<mxfile host="app.diagrams.net" agent="Mozilla/5.0 (Windows NT 10.0; Win64; x64; rv:138.0) Gecko/20100101 Firefox/138.0" version="26.2.14">
  <diagram name="Page-1" id="5i0O3vtY4aMmPJZkESCv">
    <mxGraphModel dx="2092" dy="2684" grid="1" gridSize="10" guides="1" tooltips="1" connect="1" arrows="1" fold="1" page="1" pageScale="1" pageWidth="1169" pageHeight="827" math="0" shadow="0">
      <root>
        <mxCell id="0" />
        <mxCell id="1" parent="0" />
        <mxCell id="UhmW7nwp59RxyAtJVQfH-1" value="&lt;b&gt;&lt;font style=&quot;font-size: 18px;&quot;&gt;DATASTORE&lt;br&gt;(State Backup)&lt;/font&gt;&lt;/b&gt;" style="shape=cylinder3;whiteSpace=wrap;html=1;boundedLbl=1;backgroundOutline=1;size=15;fillColor=light-dark(#B9E0A5,#7DD47D);strokeColor=#FFFFFF;" vertex="1" parent="1">
          <mxGeometry x="853" y="-440" width="167" height="150" as="geometry" />
        </mxCell>
        <UserObject label="proxy с fail-over" lucidchartObjectId="8XpIHrtV3hBn" id="UhmW7nwp59RxyAtJVQfH-2">
          <mxCell style="html=1;overflow=block;blockSpacing=1;whiteSpace=wrap;fontSize=18.3;fontColor=#333333;align=center;spacingLeft=8.4;spacingRight=8.4;spacingTop=2.4;spacing=3.6;verticalAlign=middle;strokeOpacity=0;fillOpacity=100;rounded=1;absoluteArcSize=1;arcSize=12;fillColor=#CACBE8;strokeWidth=0.8;strokeColor=#CACBE8;" vertex="1" parent="1">
            <mxGeometry x="1156" y="697.25" width="100" height="51" as="geometry" />
          </mxCell>
        </UserObject>
        <mxCell id="UhmW7nwp59RxyAtJVQfH-3" value="" style="endArrow=none;dashed=1;html=1;strokeWidth=4;rounded=0;fillColor=#e51400;strokeColor=#B20000;curved=0;" edge="1" parent="1">
          <mxGeometry width="50" height="50" relative="1" as="geometry">
            <mxPoint x="1148" y="1180" as="sourcePoint" />
            <mxPoint x="1148.9790575916231" y="245" as="targetPoint" />
          </mxGeometry>
        </mxCell>
        <UserObject label="Server 1" lucidchartObjectId="HypIMii0T2fg" id="UhmW7nwp59RxyAtJVQfH-4">
          <mxCell style="html=1;overflow=block;blockSpacing=1;whiteSpace=wrap;fontSize=18.3;fontColor=#333333;fontStyle=1;spacingLeft=8.4;spacingRight=8.4;spacingTop=2.4;spacing=3.6;verticalAlign=top;strokeOpacity=0;fillOpacity=100;rounded=1;absoluteArcSize=1;arcSize=12;fillColor=#ffdda6;strokeWidth=0.8;" vertex="1" parent="1">
            <mxGeometry x="2271" y="-600" width="212" height="270" as="geometry" />
          </mxCell>
        </UserObject>
        <UserObject label="Server 2" lucidchartObjectId="kbqIFTrSSb0c" id="UhmW7nwp59RxyAtJVQfH-5">
          <mxCell style="html=1;overflow=block;blockSpacing=1;whiteSpace=wrap;fontSize=18.3;fontColor=#333333;fontStyle=1;spacingLeft=8.4;spacingRight=8.4;spacingTop=2.4;spacing=3.6;verticalAlign=top;strokeOpacity=0;fillOpacity=100;rounded=1;absoluteArcSize=1;arcSize=12;fillColor=#ffdda6;strokeWidth=0.8;" vertex="1" parent="1">
            <mxGeometry x="2497" y="-600" width="212" height="270" as="geometry" />
          </mxCell>
        </UserObject>
        <UserObject label="Server N" lucidchartObjectId="kgqIT20~Yh46" id="UhmW7nwp59RxyAtJVQfH-6">
          <mxCell style="html=1;overflow=block;blockSpacing=1;whiteSpace=wrap;fontSize=18.3;fontColor=#333333;fontStyle=1;spacingLeft=8.4;spacingRight=8.4;spacingTop=2.4;spacing=3.6;verticalAlign=top;strokeOpacity=0;fillOpacity=100;rounded=1;absoluteArcSize=1;arcSize=12;fillColor=#ffdda6;strokeWidth=0.8;" vertex="1" parent="1">
            <mxGeometry x="2724" y="-600" width="212" height="270" as="geometry" />
          </mxCell>
        </UserObject>
        <mxCell id="UhmW7nwp59RxyAtJVQfH-7" value="" style="edgeStyle=orthogonalEdgeStyle;rounded=0;orthogonalLoop=1;jettySize=auto;html=1;" edge="1" parent="1" source="UhmW7nwp59RxyAtJVQfH-8" target="UhmW7nwp59RxyAtJVQfH-53">
          <mxGeometry relative="1" as="geometry" />
        </mxCell>
        <UserObject label="JOBMANAGER&lt;br&gt;&lt;font color=&quot;#33ff33&quot; style=&quot;font-size: 14px;&quot;&gt;&lt;b&gt;Leader&lt;/b&gt;&lt;/font&gt;" lucidchartObjectId="HypInYoTSrlu" id="UhmW7nwp59RxyAtJVQfH-8">
          <mxCell style="html=1;overflow=block;blockSpacing=1;whiteSpace=wrap;fontSize=18.3;fontColor=#ffffff;align=center;spacingLeft=8.4;spacingRight=8.4;spacingTop=2.4;spacing=3.6;strokeOpacity=0;fillOpacity=100;rounded=1;absoluteArcSize=1;arcSize=12;fillColor=#636aff;strokeWidth=0.8;" vertex="1" parent="1">
            <mxGeometry x="2284" y="-568" width="184" height="49" as="geometry" />
          </mxCell>
        </UserObject>
        <mxCell id="UhmW7nwp59RxyAtJVQfH-9" value="" style="edgeStyle=orthogonalEdgeStyle;rounded=0;orthogonalLoop=1;jettySize=auto;html=1;" edge="1" parent="1" source="UhmW7nwp59RxyAtJVQfH-10" target="UhmW7nwp59RxyAtJVQfH-54">
          <mxGeometry relative="1" as="geometry" />
        </mxCell>
        <UserObject label="JOBMANAGER&lt;br&gt;&lt;font style=&quot;font-size: 14px;&quot;&gt;Standby&lt;/font&gt;" lucidchartObjectId="RXpI0It2jUcH" id="UhmW7nwp59RxyAtJVQfH-10">
          <mxCell style="html=1;overflow=block;blockSpacing=1;whiteSpace=wrap;fontSize=18.3;fontColor=#ffffff;align=center;spacingLeft=8.4;spacingRight=8.4;spacingTop=2.4;spacing=3.6;strokeOpacity=0;fillOpacity=100;rounded=1;absoluteArcSize=1;arcSize=12;fillColor=#636aff;strokeWidth=0.8;" vertex="1" parent="1">
            <mxGeometry x="2511" y="-568" width="184" height="49" as="geometry" />
          </mxCell>
        </UserObject>
        <UserObject label="JOBMANAGER&lt;font style=&quot;font-size: 11px;&quot;&gt;&lt;br&gt;&lt;/font&gt;&lt;font style=&quot;font-size: 14px;&quot;&gt;Standby&lt;/font&gt;" lucidchartObjectId="1XpI324HXPmj" id="UhmW7nwp59RxyAtJVQfH-11">
          <mxCell style="html=1;overflow=block;blockSpacing=1;whiteSpace=wrap;fontSize=18.3;fontColor=#ffffff;align=center;spacingLeft=8.4;spacingRight=8.4;spacingTop=2.4;spacing=3.6;strokeOpacity=0;fillOpacity=100;rounded=1;absoluteArcSize=1;arcSize=12;fillColor=#636aff;strokeWidth=0.8;" vertex="1" parent="1">
            <mxGeometry x="2738" y="-568" width="184" height="49" as="geometry" />
          </mxCell>
        </UserObject>
        <mxCell id="UhmW7nwp59RxyAtJVQfH-12" value="" style="endArrow=none;dashed=1;html=1;dashPattern=1 3;strokeWidth=2;rounded=0;" edge="1" parent="1">
          <mxGeometry width="50" height="50" relative="1" as="geometry">
            <mxPoint x="594" y="1170" as="sourcePoint" />
            <mxPoint x="595" y="215" as="targetPoint" />
          </mxGeometry>
        </mxCell>
        <UserObject label="Server 1" lucidchartObjectId="HypIMii0T2fg" id="UhmW7nwp59RxyAtJVQfH-13">
          <mxCell style="html=1;overflow=block;blockSpacing=1;whiteSpace=wrap;fontSize=18.3;fontColor=#333333;fontStyle=1;spacingLeft=8.4;spacingRight=8.4;spacingTop=2.4;spacing=3.6;verticalAlign=top;strokeOpacity=0;fillOpacity=100;rounded=1;absoluteArcSize=1;arcSize=12;fillColor=#ffdda6;strokeWidth=0.8;" vertex="1" parent="1">
            <mxGeometry x="141.5" y="270" width="212" height="256" as="geometry" />
          </mxCell>
        </UserObject>
        <UserObject label="Server N" lucidchartObjectId="kbqIFTrSSb0c" id="UhmW7nwp59RxyAtJVQfH-14">
          <mxCell style="html=1;overflow=block;blockSpacing=1;whiteSpace=wrap;fontSize=18.3;fontColor=#333333;fontStyle=1;spacingLeft=8.4;spacingRight=8.4;spacingTop=2.4;spacing=3.6;verticalAlign=top;strokeOpacity=0;fillOpacity=100;rounded=1;absoluteArcSize=1;arcSize=12;fillColor=#ffdda6;strokeWidth=0.8;" vertex="1" parent="1">
            <mxGeometry x="371.5" y="270" width="212" height="256" as="geometry" />
          </mxCell>
        </UserObject>
        <UserObject label="Server 1" lucidchartObjectId="kgqIT20~Yh46" id="UhmW7nwp59RxyAtJVQfH-15">
          <mxCell style="html=1;overflow=block;blockSpacing=1;whiteSpace=wrap;fontSize=18.3;fontColor=#333333;fontStyle=1;spacingLeft=8.4;spacingRight=8.4;spacingTop=2.4;spacing=3.6;verticalAlign=top;strokeOpacity=0;fillOpacity=100;rounded=1;absoluteArcSize=1;arcSize=12;fillColor=#ffdda6;strokeWidth=0.8;" vertex="1" parent="1">
            <mxGeometry x="605.5" y="270" width="212" height="256" as="geometry" />
          </mxCell>
        </UserObject>
        <UserObject label="Server N" lucidchartObjectId="NgqIsRjEYktH" id="UhmW7nwp59RxyAtJVQfH-16">
          <mxCell style="html=1;overflow=block;blockSpacing=1;whiteSpace=wrap;fontSize=18.3;fontColor=#333333;fontStyle=1;spacingLeft=8.4;spacingRight=8.4;spacingTop=2.4;spacing=3.6;verticalAlign=top;strokeOpacity=0;fillOpacity=100;rounded=1;absoluteArcSize=1;arcSize=12;fillColor=#ffdda6;strokeWidth=0.8;" vertex="1" parent="1">
            <mxGeometry x="835.5" y="270" width="212" height="256" as="geometry" />
          </mxCell>
        </UserObject>
        <object label="" tooltip="Синхронная репликация" id="UhmW7nwp59RxyAtJVQfH-17">
          <mxCell style="edgeStyle=orthogonalEdgeStyle;rounded=0;orthogonalLoop=1;jettySize=auto;html=1;entryX=1;entryY=0.5;entryDx=0;entryDy=0;dashed=1;dashPattern=1 1;fontColor=#3399FF;strokeColor=#0080ff;" edge="1" parent="1" source="UhmW7nwp59RxyAtJVQfH-18" target="UhmW7nwp59RxyAtJVQfH-73">
            <mxGeometry relative="1" as="geometry">
              <mxPoint x="550" y="695" as="targetPoint" />
            </mxGeometry>
          </mxCell>
        </object>
        <UserObject label="&lt;div&gt;Файловое хранилище NFSv3 с георезервированием&lt;/div&gt;&lt;div&gt;&lt;br&gt;&lt;/div&gt;&lt;div&gt;&lt;br&gt;&lt;/div&gt;&lt;div style=&quot;font-size: 16px;&quot;&gt;&lt;br&gt;&lt;/div&gt;&lt;div&gt;&lt;font style=&quot;font-size: 9px;&quot;&gt;&lt;i&gt;IOPS/bandwidth ограничены правилами QoS&lt;/i&gt;&lt;/font&gt;&lt;/div&gt;" lucidchartObjectId="_KpIE2-JrPc8" id="UhmW7nwp59RxyAtJVQfH-18">
          <mxCell style="html=1;overflow=block;blockSpacing=1;whiteSpace=wrap;fontSize=20;fontStyle=1;align=center;spacing=9;verticalAlign=top;strokeOpacity=0;fillOpacity=100;rounded=1;absoluteArcSize=1;arcSize=12;fillColor=#d5e8d4;strokeWidth=0.8;strokeColor=#82b366;" vertex="1" parent="1">
            <mxGeometry x="645" y="630" width="360" height="150" as="geometry" />
          </mxCell>
        </UserObject>
        <UserObject label="Площадка 2, для часто обновляемых HA-метаданных и&amp;nbsp;инкрементных / полных снэпшотов кластера Flink " lucidchartObjectId="fSpIcaWIN3Va" id="UhmW7nwp59RxyAtJVQfH-19">
          <mxCell style="html=1;overflow=block;blockSpacing=1;whiteSpace=wrap;fontSize=16.7;fontColor=#333333;align=left;spacing=9;verticalAlign=top;strokeOpacity=100;fillOpacity=100;rounded=1;absoluteArcSize=1;arcSize=12;fillColor=#ffffff;strokeWidth=0.8;" vertex="1" parent="1">
            <mxGeometry x="660" y="688" width="330" height="72" as="geometry" />
          </mxCell>
        </UserObject>
        <UserObject label="&lt;div style=&quot;line-height: 0.9;&quot;&gt;Кластер Apache Flink&lt;br&gt;&lt;/div&gt;&lt;div&gt;&lt;sup&gt;&lt;font style=&quot;font-size: 10px;&quot;&gt;MAIN&lt;/font&gt;&lt;/sup&gt;&lt;/div&gt;" lucidchartObjectId="WnqImOF1_m_N" id="UhmW7nwp59RxyAtJVQfH-20">
          <mxCell style="html=1;overflow=block;blockSpacing=1;whiteSpace=wrap;fontSize=20;fontColor=#ffffff;fontStyle=1;spacingLeft=8.4;spacingRight=8.4;spacingTop=2.4;spacing=3.6;verticalAlign=top;strokeOpacity=0;fillOpacity=100;rounded=1;absoluteArcSize=1;arcSize=12;fillColor=#8b90ff;strokeWidth=0.8;" vertex="1" parent="1">
            <mxGeometry x="130" y="355" width="929" height="164" as="geometry" />
          </mxCell>
        </UserObject>
        <UserObject label="&lt;div&gt;JOBMANAGER&lt;/div&gt;&lt;div&gt;&lt;font color=&quot;#33ff33&quot; style=&quot;font-size: 14px;&quot;&gt;&lt;b&gt;Leader&lt;/b&gt;&lt;/font&gt;&lt;/div&gt;" lucidchartObjectId="HypInYoTSrlu" id="UhmW7nwp59RxyAtJVQfH-21">
          <mxCell style="html=1;overflow=block;blockSpacing=1;whiteSpace=wrap;fontSize=18.3;fontColor=#ffffff;align=center;spacingLeft=8.4;spacingRight=8.4;spacingTop=2.4;spacing=3.6;strokeOpacity=0;fillOpacity=100;rounded=1;absoluteArcSize=1;arcSize=12;fillColor=#636aff;strokeWidth=0.8;" vertex="1" parent="1">
            <mxGeometry x="156" y="399" width="184" height="48" as="geometry" />
          </mxCell>
        </UserObject>
        <UserObject label="TASKMANAGER" lucidchartObjectId="HypIgOagNPgA" id="UhmW7nwp59RxyAtJVQfH-22">
          <mxCell style="html=1;overflow=block;blockSpacing=1;whiteSpace=wrap;fontSize=18.3;fontColor=#ffffff;align=center;spacingLeft=8.4;spacingRight=8.4;spacingTop=2.4;spacing=3.6;strokeOpacity=0;fillOpacity=100;rounded=1;absoluteArcSize=1;arcSize=12;fillColor=#636aff;strokeWidth=0.8;" vertex="1" parent="1">
            <mxGeometry x="156" y="463" width="184" height="48" as="geometry" />
          </mxCell>
        </UserObject>
        <UserObject label="JOBMANAGER&lt;br&gt;&lt;font style=&quot;font-size: 14px;&quot;&gt;Standby&lt;/font&gt;" lucidchartObjectId="RXpI0It2jUcH" id="UhmW7nwp59RxyAtJVQfH-23">
          <mxCell style="html=1;overflow=block;blockSpacing=1;whiteSpace=wrap;fontSize=18.3;fontColor=#ffffff;align=center;spacingLeft=8.4;spacingRight=8.4;spacingTop=2.4;spacing=3.6;strokeOpacity=0;fillOpacity=100;rounded=1;absoluteArcSize=1;arcSize=12;fillColor=#636aff;strokeWidth=0.8;" vertex="1" parent="1">
            <mxGeometry x="387" y="399" width="184" height="48" as="geometry" />
          </mxCell>
        </UserObject>
        <UserObject label="TASKMANAGER" lucidchartObjectId="RXpIgnX.f~PW" id="UhmW7nwp59RxyAtJVQfH-24">
          <mxCell style="html=1;overflow=block;blockSpacing=1;whiteSpace=wrap;fontSize=18.3;fontColor=#ffffff;align=center;spacingLeft=8.4;spacingRight=8.4;spacingTop=2.4;spacing=3.6;strokeOpacity=0;fillOpacity=100;rounded=1;absoluteArcSize=1;arcSize=12;fillColor=#636aff;strokeWidth=0.8;" vertex="1" parent="1">
            <mxGeometry x="387" y="463" width="184" height="48" as="geometry" />
          </mxCell>
        </UserObject>
        <UserObject label="JOBMANAGER&lt;br&gt;&lt;font style=&quot;font-size: 14px;&quot;&gt;Standby&lt;/font&gt;" lucidchartObjectId="1XpI324HXPmj" id="UhmW7nwp59RxyAtJVQfH-25">
          <mxCell style="html=1;overflow=block;blockSpacing=1;whiteSpace=wrap;fontSize=18.3;fontColor=#ffffff;align=center;spacingLeft=8.4;spacingRight=8.4;spacingTop=2.4;spacing=3.6;strokeOpacity=0;fillOpacity=100;rounded=1;absoluteArcSize=1;arcSize=12;fillColor=#636aff;strokeWidth=0.8;" vertex="1" parent="1">
            <mxGeometry x="621" y="399" width="184" height="48" as="geometry" />
          </mxCell>
        </UserObject>
        <UserObject label="TASKMANAGER" lucidchartObjectId="1XpItajlC~17" id="UhmW7nwp59RxyAtJVQfH-26">
          <mxCell style="html=1;overflow=block;blockSpacing=1;whiteSpace=wrap;fontSize=18.3;fontColor=#ffffff;align=center;spacingLeft=8.4;spacingRight=8.4;spacingTop=2.4;spacing=3.6;strokeOpacity=0;fillOpacity=100;rounded=1;absoluteArcSize=1;arcSize=12;fillColor=#636aff;strokeWidth=0.8;" vertex="1" parent="1">
            <mxGeometry x="621" y="463" width="184" height="48" as="geometry" />
          </mxCell>
        </UserObject>
        <UserObject label="HISTORYSERVER" lucidchartObjectId="8XpIVe4FQzVd" id="UhmW7nwp59RxyAtJVQfH-27">
          <mxCell style="html=1;overflow=block;blockSpacing=1;whiteSpace=wrap;fontSize=18.3;fontColor=#ffffff;align=center;spacingLeft=8.4;spacingRight=8.4;spacingTop=2.4;spacing=3.6;strokeOpacity=0;fillOpacity=100;rounded=1;absoluteArcSize=1;arcSize=12;fillColor=#636aff;strokeWidth=0.8;" vertex="1" parent="1">
            <mxGeometry x="850" y="399" width="184" height="48" as="geometry" />
          </mxCell>
        </UserObject>
        <UserObject label="TASKMANAGER" lucidchartObjectId="8XpI6pTr3cQC" id="UhmW7nwp59RxyAtJVQfH-28">
          <mxCell style="html=1;overflow=block;blockSpacing=1;whiteSpace=wrap;fontSize=18.3;fontColor=#ffffff;align=center;spacingLeft=8.4;spacingRight=8.4;spacingTop=2.4;spacing=3.6;strokeOpacity=0;fillOpacity=100;rounded=1;absoluteArcSize=1;arcSize=12;fillColor=#636aff;strokeWidth=0.8;" vertex="1" parent="1">
            <mxGeometry x="850" y="463" width="184" height="48" as="geometry" />
          </mxCell>
        </UserObject>
        <mxCell id="UhmW7nwp59RxyAtJVQfH-29" style="edgeStyle=none;rounded=1;jumpStyle=none;orthogonalLoop=1;jettySize=auto;html=1;exitX=0.75;exitY=1;exitDx=0;exitDy=0;startArrow=oval;startFill=1;endArrow=oval;endFill=1;strokeColor=#82b366;strokeWidth=2;fillColor=#d5e8d4;" edge="1" parent="1">
          <mxGeometry relative="1" as="geometry">
            <mxPoint x="896" y="528" as="sourcePoint" />
            <mxPoint x="896" y="572" as="targetPoint" />
          </mxGeometry>
        </mxCell>
        <mxCell id="UhmW7nwp59RxyAtJVQfH-30" style="edgeStyle=none;rounded=1;jumpStyle=none;orthogonalLoop=1;jettySize=auto;html=1;exitX=0.75;exitY=1;exitDx=0;exitDy=0;startArrow=oval;startFill=1;endArrow=oval;endFill=1;strokeColor=#82b366;strokeWidth=2;fillColor=#d5e8d4;" edge="1" parent="1">
          <mxGeometry relative="1" as="geometry">
            <mxPoint x="694" y="528" as="sourcePoint" />
            <mxPoint x="694" y="572" as="targetPoint" />
          </mxGeometry>
        </mxCell>
        <mxCell id="UhmW7nwp59RxyAtJVQfH-31" style="edgeStyle=none;rounded=1;jumpStyle=none;orthogonalLoop=1;jettySize=auto;html=1;exitX=0.75;exitY=1;exitDx=0;exitDy=0;startArrow=oval;startFill=1;endArrow=oval;endFill=1;strokeColor=#82b366;strokeWidth=2;fillColor=#d5e8d4;" edge="1" parent="1">
          <mxGeometry relative="1" as="geometry">
            <mxPoint x="496" y="528" as="sourcePoint" />
            <mxPoint x="496" y="572" as="targetPoint" />
          </mxGeometry>
        </mxCell>
        <UserObject label="NGINX + nginx-ldap-auth" lucidchartObjectId="HypIE5tfspSB" id="UhmW7nwp59RxyAtJVQfH-32">
          <mxCell style="html=1;overflow=block;blockSpacing=1;whiteSpace=wrap;fontSize=18.3;fontColor=#333333;align=center;spacingLeft=8.4;spacingRight=8.4;spacingTop=2.4;spacing=3.6;verticalAlign=middle;strokeOpacity=0;fillOpacity=100;rounded=1;absoluteArcSize=1;arcSize=12;fillColor=#CACBE8;strokeWidth=0.8;" vertex="1" parent="1">
            <mxGeometry x="170" y="297" width="150" height="51" as="geometry" />
          </mxCell>
        </UserObject>
        <UserObject label="NGINX + nginx-ldap-auth" lucidchartObjectId="RXpI~8YFsiHd" id="UhmW7nwp59RxyAtJVQfH-33">
          <mxCell style="html=1;overflow=block;blockSpacing=1;whiteSpace=wrap;fontSize=18.3;fontColor=#333333;align=center;spacingLeft=8.4;spacingRight=8.4;spacingTop=2.4;spacing=3.6;verticalAlign=middle;strokeOpacity=0;fillOpacity=100;rounded=1;absoluteArcSize=1;arcSize=12;fillColor=#CACBE8;strokeWidth=0.8;" vertex="1" parent="1">
            <mxGeometry x="400" y="297" width="150" height="51" as="geometry" />
          </mxCell>
        </UserObject>
        <UserObject label="NGINX + nginx-ldap-auth" lucidchartObjectId="1XpIAn_rVOTK" id="UhmW7nwp59RxyAtJVQfH-34">
          <mxCell style="html=1;overflow=block;blockSpacing=1;whiteSpace=wrap;fontSize=18.3;fontColor=#333333;align=center;spacingLeft=8.4;spacingRight=8.4;spacingTop=2.4;spacing=3.6;verticalAlign=middle;strokeOpacity=0;fillOpacity=100;rounded=1;absoluteArcSize=1;arcSize=12;fillColor=#CACBE8;strokeWidth=0.8;" vertex="1" parent="1">
            <mxGeometry x="640" y="297" width="150" height="51" as="geometry" />
          </mxCell>
        </UserObject>
        <UserObject label="NGINX + nginx-ldap-auth" lucidchartObjectId="8XpIHrtV3hBn" id="UhmW7nwp59RxyAtJVQfH-35">
          <mxCell style="html=1;overflow=block;blockSpacing=1;whiteSpace=wrap;fontSize=18.3;fontColor=#333333;align=center;spacingLeft=8.4;spacingRight=8.4;spacingTop=2.4;spacing=3.6;verticalAlign=middle;strokeOpacity=0;fillOpacity=100;rounded=1;absoluteArcSize=1;arcSize=12;fillColor=#CACBE8;strokeWidth=0.8;strokeColor=#CACBE8;" vertex="1" parent="1">
            <mxGeometry x="870" y="297" width="150" height="51" as="geometry" />
          </mxCell>
        </UserObject>
        <mxCell id="UhmW7nwp59RxyAtJVQfH-36" style="edgeStyle=none;rounded=1;jumpStyle=none;orthogonalLoop=1;jettySize=auto;html=1;startArrow=oval;startFill=1;endArrow=oval;endFill=1;strokeColor=#CACBE8;strokeWidth=2;entryX=0.183;entryY=0.994;entryDx=0;entryDy=0;entryPerimeter=0;exitX=0.187;exitY=-0.014;exitDx=0;exitDy=0;exitPerimeter=0;" edge="1" parent="1">
          <mxGeometry relative="1" as="geometry">
            <mxPoint x="418" y="346" as="targetPoint" />
            <mxPoint x="418" y="398" as="sourcePoint" />
          </mxGeometry>
        </mxCell>
        <mxCell id="UhmW7nwp59RxyAtJVQfH-37" style="edgeStyle=none;rounded=1;jumpStyle=none;orthogonalLoop=1;jettySize=auto;html=1;exitX=0.75;exitY=0;exitDx=0;exitDy=0;startArrow=oval;startFill=1;endArrow=oval;endFill=1;strokeColor=#CACBE8;strokeWidth=2;entryX=0.75;entryY=1;entryDx=0;entryDy=0;" edge="1" parent="1">
          <mxGeometry relative="1" as="geometry">
            <mxPoint x="291" y="346" as="targetPoint" />
            <mxPoint x="291" y="399" as="sourcePoint" />
          </mxGeometry>
        </mxCell>
        <mxCell id="UhmW7nwp59RxyAtJVQfH-38" style="edgeStyle=none;rounded=1;jumpStyle=none;orthogonalLoop=1;jettySize=auto;html=1;exitX=0.75;exitY=0;exitDx=0;exitDy=0;startArrow=oval;startFill=1;endArrow=oval;endFill=1;strokeColor=#CACBE8;strokeWidth=2;entryX=0.75;entryY=1;entryDx=0;entryDy=0;" edge="1" parent="1">
          <mxGeometry relative="1" as="geometry">
            <mxPoint x="985" y="346" as="targetPoint" />
            <mxPoint x="985" y="399" as="sourcePoint" />
          </mxGeometry>
        </mxCell>
        <mxCell id="UhmW7nwp59RxyAtJVQfH-39" style="edgeStyle=none;rounded=1;jumpStyle=none;orthogonalLoop=1;jettySize=auto;html=1;startArrow=oval;startFill=1;endArrow=oval;endFill=1;strokeColor=#CACBE8;strokeWidth=2;exitX=0.812;exitY=0.994;exitDx=0;exitDy=0;exitPerimeter=0;entryX=0.815;entryY=-0.014;entryDx=0;entryDy=0;entryPerimeter=0;" edge="1" parent="1">
          <mxGeometry relative="1" as="geometry">
            <mxPoint x="768" y="398" as="targetPoint" />
            <mxPoint x="767" y="346" as="sourcePoint" />
          </mxGeometry>
        </mxCell>
        <mxCell id="UhmW7nwp59RxyAtJVQfH-40" value="&lt;b style=&quot;font-size: 24px;&quot;&gt;DC1&lt;/b&gt;" style="rounded=0;whiteSpace=wrap;html=1;fontSize=24;" vertex="1" parent="1">
          <mxGeometry x="325" y="200" width="100" height="40" as="geometry" />
        </mxCell>
        <mxCell id="UhmW7nwp59RxyAtJVQfH-41" value="&lt;b style=&quot;font-size: 24px;&quot;&gt;DC2&lt;/b&gt;" style="rounded=0;whiteSpace=wrap;html=1;fontSize=24;" vertex="1" parent="1">
          <mxGeometry x="775" y="200" width="100" height="40" as="geometry" />
        </mxCell>
        <mxCell id="UhmW7nwp59RxyAtJVQfH-42" value="" style="endArrow=none;dashed=1;html=1;dashPattern=1 3;strokeWidth=6;rounded=0;entryX=0.818;entryY=0.058;entryDx=0;entryDy=0;entryPerimeter=0;strokeColor=#727272;exitX=0.252;exitY=0.066;exitDx=0;exitDy=0;exitPerimeter=0;" edge="1" parent="1">
          <mxGeometry width="50" height="50" relative="1" as="geometry">
            <mxPoint x="413.924" y="287.15999999999985" as="sourcePoint" />
            <mxPoint x="300.91599999999994" y="287.0799999999999" as="targetPoint" />
          </mxGeometry>
        </mxCell>
        <mxCell id="UhmW7nwp59RxyAtJVQfH-43" value="" style="endArrow=none;dashed=1;html=1;dashPattern=1 3;strokeWidth=6;rounded=0;entryX=0.818;entryY=0.058;entryDx=0;entryDy=0;entryPerimeter=0;strokeColor=#727272;exitX=0.252;exitY=0.066;exitDx=0;exitDy=0;exitPerimeter=0;" edge="1" parent="1">
          <mxGeometry width="50" height="50" relative="1" as="geometry">
            <mxPoint x="877.924" y="288.15999999999985" as="sourcePoint" />
            <mxPoint x="764.9159999999999" y="288.0799999999999" as="targetPoint" />
          </mxGeometry>
        </mxCell>
        <mxCell id="UhmW7nwp59RxyAtJVQfH-44" style="edgeStyle=none;rounded=0;jumpStyle=none;orthogonalLoop=1;jettySize=auto;html=1;exitX=1;exitY=0.5;exitDx=0;exitDy=0;startArrow=none;startFill=0;endArrow=classic;endFill=0;strokeColor=#7DD47D;strokeWidth=2;" edge="1" parent="1" source="UhmW7nwp59RxyAtJVQfH-21">
          <mxGeometry relative="1" as="geometry">
            <mxPoint x="347" y="428" as="sourcePoint" />
            <mxPoint x="387" y="423" as="targetPoint" />
          </mxGeometry>
        </mxCell>
        <mxCell id="UhmW7nwp59RxyAtJVQfH-45" style="edgeStyle=none;rounded=0;jumpStyle=none;orthogonalLoop=1;jettySize=auto;html=1;exitX=1;exitY=0.5;exitDx=0;exitDy=0;entryX=0;entryY=0.5;entryDx=0;entryDy=0;startArrow=none;startFill=0;endArrow=classic;endFill=0;strokeColor=#7DD47D;strokeWidth=2;" edge="1" parent="1" source="UhmW7nwp59RxyAtJVQfH-23" target="UhmW7nwp59RxyAtJVQfH-25">
          <mxGeometry relative="1" as="geometry">
            <mxPoint x="572" y="418" as="sourcePoint" />
            <mxPoint x="619" y="418" as="targetPoint" />
          </mxGeometry>
        </mxCell>
        <mxCell id="UhmW7nwp59RxyAtJVQfH-46" value="" style="endArrow=classic;html=1;rounded=0;" edge="1" parent="1">
          <mxGeometry width="50" height="50" relative="1" as="geometry">
            <mxPoint x="2254" y="-609" as="sourcePoint" />
            <mxPoint x="2254" y="-349" as="targetPoint" />
          </mxGeometry>
        </mxCell>
        <mxCell id="UhmW7nwp59RxyAtJVQfH-47" value="&lt;i&gt;&lt;font style=&quot;font-size: 36px;&quot;&gt;t&lt;/font&gt;&lt;/i&gt;" style="text;whiteSpace=wrap;html=1;" vertex="1" parent="1">
          <mxGeometry x="2230" y="-640" width="20" height="40" as="geometry" />
        </mxCell>
        <mxCell id="UhmW7nwp59RxyAtJVQfH-48" value="" style="edgeStyle=orthogonalEdgeStyle;rounded=0;orthogonalLoop=1;jettySize=auto;html=1;" edge="1" parent="1" source="UhmW7nwp59RxyAtJVQfH-50" target="UhmW7nwp59RxyAtJVQfH-59">
          <mxGeometry relative="1" as="geometry" />
        </mxCell>
        <mxCell id="UhmW7nwp59RxyAtJVQfH-49" value="" style="edgeStyle=orthogonalEdgeStyle;rounded=0;orthogonalLoop=1;jettySize=auto;html=1;entryX=0.5;entryY=0;entryDx=0;entryDy=0;" edge="1" parent="1" source="UhmW7nwp59RxyAtJVQfH-50" target="UhmW7nwp59RxyAtJVQfH-57">
          <mxGeometry relative="1" as="geometry" />
        </mxCell>
        <UserObject label="" lucidchartObjectId="HypInYoTSrlu" id="UhmW7nwp59RxyAtJVQfH-50">
          <mxCell style="html=1;overflow=block;blockSpacing=1;whiteSpace=wrap;fontSize=18.3;fontColor=#ffffff;align=center;spacingLeft=8.4;spacingRight=8.4;spacingTop=2.4;spacing=3.6;strokeOpacity=0;fillOpacity=100;rounded=1;absoluteArcSize=1;arcSize=12;fillColor=#636aff;strokeWidth=0.8;" vertex="1" parent="1">
            <mxGeometry x="2284" y="-510" width="184" height="49" as="geometry" />
          </mxCell>
        </UserObject>
        <mxCell id="UhmW7nwp59RxyAtJVQfH-51" value="" style="endArrow=none;html=1;rounded=0;entryX=1.005;entryY=0.341;entryDx=0;entryDy=0;entryPerimeter=0;exitX=0;exitY=0.5;exitDx=0;exitDy=0;strokeColor=#FF0000;strokeWidth=7;" edge="1" parent="1" source="UhmW7nwp59RxyAtJVQfH-4" target="UhmW7nwp59RxyAtJVQfH-4">
          <mxGeometry width="50" height="50" relative="1" as="geometry">
            <mxPoint x="2151" y="-450" as="sourcePoint" />
            <mxPoint x="2201" y="-500" as="targetPoint" />
          </mxGeometry>
        </mxCell>
        <mxCell id="UhmW7nwp59RxyAtJVQfH-52" value="" style="edgeStyle=orthogonalEdgeStyle;rounded=0;orthogonalLoop=1;jettySize=auto;html=1;" edge="1" parent="1" source="UhmW7nwp59RxyAtJVQfH-53" target="UhmW7nwp59RxyAtJVQfH-60">
          <mxGeometry relative="1" as="geometry" />
        </mxCell>
        <UserObject label="JOBMANAGER&lt;br&gt;&lt;font style=&quot;font-size: 14px;&quot;&gt;Standby&lt;/font&gt;" lucidchartObjectId="RXpI0It2jUcH" id="UhmW7nwp59RxyAtJVQfH-53">
          <mxCell style="html=1;overflow=block;blockSpacing=1;whiteSpace=wrap;fontSize=18.3;fontColor=#ffffff;align=center;spacingLeft=8.4;spacingRight=8.4;spacingTop=2.4;spacing=3.6;strokeOpacity=0;fillOpacity=100;rounded=1;absoluteArcSize=1;arcSize=12;fillColor=#636aff;strokeWidth=0.8;" vertex="1" parent="1">
            <mxGeometry x="2511" y="-510" width="184" height="49" as="geometry" />
          </mxCell>
        </UserObject>
        <UserObject label="JOBMANAGER&lt;font style=&quot;font-size: 11px;&quot;&gt;&lt;br&gt;&lt;/font&gt;&lt;font style=&quot;font-size: 14px;&quot;&gt;Standby&lt;/font&gt;" lucidchartObjectId="1XpI324HXPmj" id="UhmW7nwp59RxyAtJVQfH-54">
          <mxCell style="html=1;overflow=block;blockSpacing=1;whiteSpace=wrap;fontSize=18.3;fontColor=#ffffff;align=center;spacingLeft=8.4;spacingRight=8.4;spacingTop=2.4;spacing=3.6;strokeOpacity=0;fillOpacity=100;rounded=1;absoluteArcSize=1;arcSize=12;fillColor=#636aff;strokeWidth=0.8;" vertex="1" parent="1">
            <mxGeometry x="2738" y="-510" width="184" height="49" as="geometry" />
          </mxCell>
        </UserObject>
        <mxCell id="UhmW7nwp59RxyAtJVQfH-55" value="" style="edgeStyle=orthogonalEdgeStyle;rounded=0;orthogonalLoop=1;jettySize=auto;html=1;" edge="1" parent="1" source="UhmW7nwp59RxyAtJVQfH-57" target="UhmW7nwp59RxyAtJVQfH-64">
          <mxGeometry relative="1" as="geometry" />
        </mxCell>
        <mxCell id="UhmW7nwp59RxyAtJVQfH-56" value="" style="edgeStyle=orthogonalEdgeStyle;rounded=0;orthogonalLoop=1;jettySize=auto;html=1;" edge="1" parent="1" source="UhmW7nwp59RxyAtJVQfH-57" target="UhmW7nwp59RxyAtJVQfH-62">
          <mxGeometry relative="1" as="geometry" />
        </mxCell>
        <UserObject label="&lt;font color=&quot;#ffff00&quot;&gt;Восстанавливается&lt;/font&gt;" lucidchartObjectId="HypInYoTSrlu" id="UhmW7nwp59RxyAtJVQfH-57">
          <mxCell style="html=1;overflow=block;blockSpacing=1;whiteSpace=wrap;fontSize=18.3;fontColor=#ffffff;align=center;spacingLeft=8.4;spacingRight=8.4;spacingTop=2.4;spacing=3.6;strokeOpacity=0;fillOpacity=100;rounded=1;absoluteArcSize=1;arcSize=12;fillColor=#636aff;strokeWidth=0.8;" vertex="1" parent="1">
            <mxGeometry x="2284" y="-450" width="184" height="49" as="geometry" />
          </mxCell>
        </UserObject>
        <mxCell id="UhmW7nwp59RxyAtJVQfH-58" value="" style="edgeStyle=orthogonalEdgeStyle;rounded=0;orthogonalLoop=1;jettySize=auto;html=1;" edge="1" parent="1" source="UhmW7nwp59RxyAtJVQfH-59" target="UhmW7nwp59RxyAtJVQfH-65">
          <mxGeometry relative="1" as="geometry" />
        </mxCell>
        <UserObject label="JOBMANAGER&lt;br&gt;&lt;font color=&quot;#33ff33&quot; style=&quot;font-size: 14px;&quot;&gt;&lt;b&gt;Leader&lt;/b&gt;&lt;/font&gt;" lucidchartObjectId="RXpI0It2jUcH" id="UhmW7nwp59RxyAtJVQfH-59">
          <mxCell style="html=1;overflow=block;blockSpacing=1;whiteSpace=wrap;fontSize=18.3;fontColor=#ffffff;align=center;spacingLeft=8.4;spacingRight=8.4;spacingTop=2.4;spacing=3.6;strokeOpacity=0;fillOpacity=100;rounded=1;absoluteArcSize=1;arcSize=12;fillColor=#636aff;strokeWidth=0.8;" vertex="1" parent="1">
            <mxGeometry x="2511" y="-450" width="184" height="49" as="geometry" />
          </mxCell>
        </UserObject>
        <UserObject label="JOBMANAGER&lt;font style=&quot;font-size: 11px;&quot;&gt;&lt;br&gt;&lt;/font&gt;&lt;font style=&quot;font-size: 14px;&quot;&gt;Standby&lt;/font&gt;" lucidchartObjectId="1XpI324HXPmj" id="UhmW7nwp59RxyAtJVQfH-60">
          <mxCell style="html=1;overflow=block;blockSpacing=1;whiteSpace=wrap;fontSize=18.3;fontColor=#ffffff;align=center;spacingLeft=8.4;spacingRight=8.4;spacingTop=2.4;spacing=3.6;strokeOpacity=0;fillOpacity=100;rounded=1;absoluteArcSize=1;arcSize=12;fillColor=#636aff;strokeWidth=0.8;" vertex="1" parent="1">
            <mxGeometry x="2738" y="-450" width="184" height="49" as="geometry" />
          </mxCell>
        </UserObject>
        <mxCell id="UhmW7nwp59RxyAtJVQfH-61" value="" style="edgeStyle=orthogonalEdgeStyle;rounded=0;orthogonalLoop=1;jettySize=auto;html=1;endArrow=none;endFill=0;" edge="1" parent="1" source="UhmW7nwp59RxyAtJVQfH-62" target="UhmW7nwp59RxyAtJVQfH-64">
          <mxGeometry relative="1" as="geometry" />
        </mxCell>
        <UserObject label="JOBMANAGER&lt;br&gt;&lt;font style=&quot;font-size: 14px;&quot;&gt;Standby&lt;/font&gt;" lucidchartObjectId="HypInYoTSrlu" id="UhmW7nwp59RxyAtJVQfH-62">
          <mxCell style="html=1;overflow=block;blockSpacing=1;whiteSpace=wrap;fontSize=18.3;fontColor=#ffffff;align=center;spacingLeft=8.4;spacingRight=8.4;spacingTop=2.4;spacing=3.6;strokeOpacity=0;fillOpacity=100;rounded=1;absoluteArcSize=1;arcSize=12;fillColor=#636aff;strokeWidth=0.8;" vertex="1" parent="1">
            <mxGeometry x="2284" y="-390" width="184" height="49" as="geometry" />
          </mxCell>
        </UserObject>
        <mxCell id="UhmW7nwp59RxyAtJVQfH-63" value="" style="edgeStyle=orthogonalEdgeStyle;rounded=0;orthogonalLoop=1;jettySize=auto;html=1;endArrow=none;endFill=0;" edge="1" parent="1" source="UhmW7nwp59RxyAtJVQfH-64" target="UhmW7nwp59RxyAtJVQfH-65">
          <mxGeometry relative="1" as="geometry" />
        </mxCell>
        <UserObject label="JOBMANAGER&lt;br&gt;&lt;font color=&quot;#33ff33&quot; style=&quot;font-size: 14px;&quot;&gt;&lt;b&gt;Leader&lt;/b&gt;&lt;/font&gt;" lucidchartObjectId="RXpI0It2jUcH" id="UhmW7nwp59RxyAtJVQfH-64">
          <mxCell style="html=1;overflow=block;blockSpacing=1;whiteSpace=wrap;fontSize=18.3;fontColor=#ffffff;align=center;spacingLeft=8.4;spacingRight=8.4;spacingTop=2.4;spacing=3.6;strokeOpacity=0;fillOpacity=100;rounded=1;absoluteArcSize=1;arcSize=12;fillColor=#636aff;strokeWidth=0.8;" vertex="1" parent="1">
            <mxGeometry x="2511" y="-390" width="184" height="49" as="geometry" />
          </mxCell>
        </UserObject>
        <UserObject label="JOBMANAGER&lt;font style=&quot;font-size: 11px;&quot;&gt;&lt;br&gt;&lt;/font&gt;&lt;font style=&quot;font-size: 14px;&quot;&gt;Standby&lt;/font&gt;" lucidchartObjectId="1XpI324HXPmj" id="UhmW7nwp59RxyAtJVQfH-65">
          <mxCell style="html=1;overflow=block;blockSpacing=1;whiteSpace=wrap;fontSize=18.3;fontColor=#ffffff;align=center;spacingLeft=8.4;spacingRight=8.4;spacingTop=2.4;spacing=3.6;strokeOpacity=0;fillOpacity=100;rounded=1;absoluteArcSize=1;arcSize=12;fillColor=#636aff;strokeWidth=0.8;" vertex="1" parent="1">
            <mxGeometry x="2738" y="-390" width="184" height="49" as="geometry" />
          </mxCell>
        </UserObject>
        <mxCell id="UhmW7nwp59RxyAtJVQfH-66" value="" style="endArrow=none;dashed=1;html=1;rounded=0;" edge="1" parent="1">
          <mxGeometry width="50" height="50" relative="1" as="geometry">
            <mxPoint x="2241" y="-514" as="sourcePoint" />
            <mxPoint x="2961" y="-514" as="targetPoint" />
          </mxGeometry>
        </mxCell>
        <mxCell id="UhmW7nwp59RxyAtJVQfH-67" value="" style="endArrow=none;dashed=1;html=1;rounded=0;" edge="1" parent="1">
          <mxGeometry width="50" height="50" relative="1" as="geometry">
            <mxPoint x="2241" y="-456" as="sourcePoint" />
            <mxPoint x="2961" y="-456" as="targetPoint" />
          </mxGeometry>
        </mxCell>
        <mxCell id="UhmW7nwp59RxyAtJVQfH-68" value="" style="endArrow=none;dashed=1;html=1;rounded=0;" edge="1" parent="1">
          <mxGeometry width="50" height="50" relative="1" as="geometry">
            <mxPoint x="2241" y="-396" as="sourcePoint" />
            <mxPoint x="2961" y="-396" as="targetPoint" />
          </mxGeometry>
        </mxCell>
        <mxCell id="UhmW7nwp59RxyAtJVQfH-69" value="" style="endArrow=none;html=1;rounded=0;entryX=1.005;entryY=0.341;entryDx=0;entryDy=0;entryPerimeter=0;exitX=0;exitY=0.5;exitDx=0;exitDy=0;strokeColor=#FF0000;strokeWidth=7;" edge="1" parent="1">
          <mxGeometry width="50" height="50" relative="1" as="geometry">
            <mxPoint x="2271" y="-508" as="sourcePoint" />
            <mxPoint x="2484" y="-465" as="targetPoint" />
          </mxGeometry>
        </mxCell>
        <mxCell id="UhmW7nwp59RxyAtJVQfH-70" value="&lt;font color=&quot;#ffffff&quot; style=&quot;font-size: 18px;&quot;&gt;&lt;span style=&quot;background-color: rgb(255, 0, 0);&quot;&gt;! СБОЙ ! &lt;br&gt;&lt;/span&gt;&lt;/font&gt;" style="rounded=0;whiteSpace=wrap;html=1;fillColor=#FF0000;strokeColor=none;" vertex="1" parent="1">
          <mxGeometry x="2332" y="-500" width="90" height="30" as="geometry" />
        </mxCell>
        <mxCell id="UhmW7nwp59RxyAtJVQfH-71" value="&lt;b&gt;&lt;font style=&quot;font-size: 18px;&quot;&gt;&lt;i&gt;Автоматический fail-over master-нод Apache Flink&lt;/i&gt;&lt;/font&gt;&lt;/b&gt;" style="shape=note;whiteSpace=wrap;html=1;backgroundOutline=1;fontColor=#000000;darkOpacity=0.05;fillColor=#FFF9B2;strokeColor=none;fillStyle=solid;direction=west;gradientDirection=north;gradientColor=#FFF2A1;shadow=1;size=20;pointerEvents=1;" vertex="1" parent="1">
          <mxGeometry x="2424" y="-680" width="358" height="50" as="geometry" />
        </mxCell>
        <mxCell id="UhmW7nwp59RxyAtJVQfH-72" value="" style="edgeStyle=orthogonalEdgeStyle;rounded=0;orthogonalLoop=1;jettySize=auto;html=1;exitX=0.5;exitY=1;exitDx=0;exitDy=0;entryX=0.5;entryY=0;entryDx=0;entryDy=0;" edge="1" parent="1" source="UhmW7nwp59RxyAtJVQfH-8" target="UhmW7nwp59RxyAtJVQfH-50">
          <mxGeometry relative="1" as="geometry">
            <mxPoint x="2478" y="-533" as="sourcePoint" />
            <mxPoint x="2613" y="-500" as="targetPoint" />
          </mxGeometry>
        </mxCell>
        <UserObject label="&lt;div&gt;Файловое хранилище NFSv3 с георезервированием&lt;br&gt;&lt;/div&gt;&lt;div&gt;&lt;br&gt;&lt;/div&gt;&lt;div&gt;&lt;br&gt;&lt;/div&gt;&lt;div style=&quot;font-size: 15px;&quot;&gt;&lt;br&gt;&lt;/div&gt;&lt;div&gt;&lt;font style=&quot;font-size: 9px;&quot;&gt;&lt;i&gt;IOPS/bandwidth ограничены правилами QoS&lt;/i&gt;&lt;/font&gt;&lt;/div&gt;" lucidchartObjectId="_KpIE2-JrPc8" id="UhmW7nwp59RxyAtJVQfH-73">
          <mxCell style="html=1;overflow=block;blockSpacing=1;whiteSpace=wrap;fontSize=20;fontStyle=1;align=center;spacing=9;verticalAlign=top;strokeOpacity=0;fillOpacity=100;rounded=1;absoluteArcSize=1;arcSize=12;fillColor=#d5e8d4;strokeWidth=0.8;strokeColor=#82b366;" vertex="1" parent="1">
            <mxGeometry x="188" y="630" width="360" height="150" as="geometry" />
          </mxCell>
        </UserObject>
        <UserObject label="Площадка 1, для часто обновляемых HA-метаданных и инкрементных / полных снэпшотов кластера Flink" lucidchartObjectId="fSpIcaWIN3Va" id="UhmW7nwp59RxyAtJVQfH-74">
          <mxCell style="html=1;overflow=block;blockSpacing=1;whiteSpace=wrap;fontSize=16.7;fontColor=#333333;align=left;spacing=9;verticalAlign=top;strokeOpacity=100;fillOpacity=100;rounded=1;absoluteArcSize=1;arcSize=12;fillColor=#ffffff;strokeWidth=0.8;" vertex="1" parent="1">
            <mxGeometry x="203" y="688" width="330" height="72" as="geometry" />
          </mxCell>
        </UserObject>
        <mxCell id="UhmW7nwp59RxyAtJVQfH-75" value="Синхронная репликация" style="text;html=1;align=center;verticalAlign=middle;whiteSpace=wrap;rounded=0;fontSize=8;fontColor=#3399FF;fontStyle=1" vertex="1" parent="1">
          <mxGeometry x="555" y="674" width="79" height="31" as="geometry" />
        </mxCell>
        <UserObject label="Server 1" lucidchartObjectId="HypIMii0T2fg" id="UhmW7nwp59RxyAtJVQfH-76">
          <mxCell style="html=1;overflow=block;blockSpacing=1;whiteSpace=wrap;fontSize=18.3;fontColor=#333333;fontStyle=1;spacingLeft=8.4;spacingRight=8.4;spacingTop=2.4;spacing=3.6;verticalAlign=top;strokeOpacity=0;fillOpacity=100;rounded=1;absoluteArcSize=1;arcSize=12;fillColor=#ffdda6;strokeWidth=0.8;" vertex="1" parent="1">
            <mxGeometry x="141.5" y="880" width="212" height="256" as="geometry" />
          </mxCell>
        </UserObject>
        <UserObject label="Server N" lucidchartObjectId="kbqIFTrSSb0c" id="UhmW7nwp59RxyAtJVQfH-77">
          <mxCell style="html=1;overflow=block;blockSpacing=1;whiteSpace=wrap;fontSize=18.3;fontColor=#333333;fontStyle=1;spacingLeft=8.4;spacingRight=8.4;spacingTop=2.4;spacing=3.6;verticalAlign=top;strokeOpacity=0;fillOpacity=100;rounded=1;absoluteArcSize=1;arcSize=12;fillColor=#ffdda6;strokeWidth=0.8;" vertex="1" parent="1">
            <mxGeometry x="371.5" y="880" width="212" height="256" as="geometry" />
          </mxCell>
        </UserObject>
        <UserObject label="Server 1" lucidchartObjectId="kgqIT20~Yh46" id="UhmW7nwp59RxyAtJVQfH-78">
          <mxCell style="html=1;overflow=block;blockSpacing=1;whiteSpace=wrap;fontSize=18.3;fontColor=#333333;fontStyle=1;spacingLeft=8.4;spacingRight=8.4;spacingTop=2.4;spacing=3.6;verticalAlign=top;strokeOpacity=0;fillOpacity=100;rounded=1;absoluteArcSize=1;arcSize=12;fillColor=#ffdda6;strokeWidth=0.8;" vertex="1" parent="1">
            <mxGeometry x="605.5" y="880" width="212" height="256" as="geometry" />
          </mxCell>
        </UserObject>
        <UserObject label="Server N" lucidchartObjectId="NgqIsRjEYktH" id="UhmW7nwp59RxyAtJVQfH-79">
          <mxCell style="html=1;overflow=block;blockSpacing=1;whiteSpace=wrap;fontSize=18.3;fontColor=#333333;fontStyle=1;spacingLeft=8.4;spacingRight=8.4;spacingTop=2.4;spacing=3.6;verticalAlign=top;strokeOpacity=0;fillOpacity=100;rounded=1;absoluteArcSize=1;arcSize=12;fillColor=#ffdda6;strokeWidth=0.8;" vertex="1" parent="1">
            <mxGeometry x="835.5" y="880" width="212" height="256" as="geometry" />
          </mxCell>
        </UserObject>
        <UserObject label="&lt;div style=&quot;line-height: 0.9;&quot;&gt;Кластер Apache Flink&lt;br&gt;&lt;/div&gt;&lt;div&gt;&lt;sup&gt;&lt;font style=&quot;font-size: 10px;&quot;&gt;STAND-IN&lt;/font&gt;&lt;/sup&gt;&lt;/div&gt;" lucidchartObjectId="WnqImOF1_m_N" id="UhmW7nwp59RxyAtJVQfH-80">
          <mxCell style="html=1;overflow=block;blockSpacing=1;whiteSpace=wrap;fontSize=20;fontColor=#ffffff;fontStyle=1;spacingLeft=8.4;spacingRight=8.4;spacingTop=2.4;spacing=3.6;verticalAlign=top;strokeOpacity=0;fillOpacity=100;rounded=1;absoluteArcSize=1;arcSize=12;fillColor=#8b90ff;strokeWidth=0.8;" vertex="1" parent="1">
            <mxGeometry x="130" y="965" width="929" height="164" as="geometry" />
          </mxCell>
        </UserObject>
        <UserObject label="&lt;div&gt;JOBMANAGER&lt;/div&gt;&lt;div&gt;&lt;font style=&quot;font-size: 14px;&quot;&gt;Standby&lt;/font&gt;&lt;/div&gt;" lucidchartObjectId="HypInYoTSrlu" id="UhmW7nwp59RxyAtJVQfH-81">
          <mxCell style="html=1;overflow=block;blockSpacing=1;whiteSpace=wrap;fontSize=18.3;fontColor=#ffffff;align=center;spacingLeft=8.4;spacingRight=8.4;spacingTop=2.4;spacing=3.6;strokeOpacity=0;fillOpacity=100;rounded=1;absoluteArcSize=1;arcSize=12;fillColor=#636aff;strokeWidth=0.8;" vertex="1" parent="1">
            <mxGeometry x="156" y="1009" width="184" height="48" as="geometry" />
          </mxCell>
        </UserObject>
        <UserObject label="TASKMANAGER" lucidchartObjectId="HypIgOagNPgA" id="UhmW7nwp59RxyAtJVQfH-82">
          <mxCell style="html=1;overflow=block;blockSpacing=1;whiteSpace=wrap;fontSize=18.3;fontColor=#ffffff;align=center;spacingLeft=8.4;spacingRight=8.4;spacingTop=2.4;spacing=3.6;strokeOpacity=0;fillOpacity=100;rounded=1;absoluteArcSize=1;arcSize=12;fillColor=#636aff;strokeWidth=0.8;" vertex="1" parent="1">
            <mxGeometry x="156" y="1073" width="184" height="48" as="geometry" />
          </mxCell>
        </UserObject>
        <UserObject label="&lt;div&gt;JOBMANAGER&lt;/div&gt;&lt;div&gt;&lt;font style=&quot;font-size: 14px;&quot;&gt;Standby&lt;/font&gt;&lt;/div&gt;" lucidchartObjectId="RXpI0It2jUcH" id="UhmW7nwp59RxyAtJVQfH-83">
          <mxCell style="html=1;overflow=block;blockSpacing=1;whiteSpace=wrap;fontSize=18.3;fontColor=#ffffff;align=center;spacingLeft=8.4;spacingRight=8.4;spacingTop=2.4;spacing=3.6;strokeOpacity=0;fillOpacity=100;rounded=1;absoluteArcSize=1;arcSize=12;fillColor=#636aff;strokeWidth=0.8;" vertex="1" parent="1">
            <mxGeometry x="387" y="1009" width="184" height="48" as="geometry" />
          </mxCell>
        </UserObject>
        <UserObject label="TASKMANAGER" lucidchartObjectId="RXpIgnX.f~PW" id="UhmW7nwp59RxyAtJVQfH-84">
          <mxCell style="html=1;overflow=block;blockSpacing=1;whiteSpace=wrap;fontSize=18.3;fontColor=#ffffff;align=center;spacingLeft=8.4;spacingRight=8.4;spacingTop=2.4;spacing=3.6;strokeOpacity=0;fillOpacity=100;rounded=1;absoluteArcSize=1;arcSize=12;fillColor=#636aff;strokeWidth=0.8;" vertex="1" parent="1">
            <mxGeometry x="387" y="1073" width="184" height="48" as="geometry" />
          </mxCell>
        </UserObject>
        <UserObject label="JOBMANAGER&lt;font color=&quot;#33ff33&quot; style=&quot;font-size: 14px;&quot;&gt;&lt;b&gt;&lt;br&gt;Leader&lt;/b&gt;&lt;/font&gt;" lucidchartObjectId="1XpI324HXPmj" id="UhmW7nwp59RxyAtJVQfH-85">
          <mxCell style="html=1;overflow=block;blockSpacing=1;whiteSpace=wrap;fontSize=18.3;fontColor=#ffffff;align=center;spacingLeft=8.4;spacingRight=8.4;spacingTop=2.4;spacing=3.6;strokeOpacity=0;fillOpacity=100;rounded=1;absoluteArcSize=1;arcSize=12;fillColor=#636aff;strokeWidth=0.8;" vertex="1" parent="1">
            <mxGeometry x="621" y="1009" width="184" height="48" as="geometry" />
          </mxCell>
        </UserObject>
        <UserObject label="TASKMANAGER" lucidchartObjectId="1XpItajlC~17" id="UhmW7nwp59RxyAtJVQfH-86">
          <mxCell style="html=1;overflow=block;blockSpacing=1;whiteSpace=wrap;fontSize=18.3;fontColor=#ffffff;align=center;spacingLeft=8.4;spacingRight=8.4;spacingTop=2.4;spacing=3.6;strokeOpacity=0;fillOpacity=100;rounded=1;absoluteArcSize=1;arcSize=12;fillColor=#636aff;strokeWidth=0.8;" vertex="1" parent="1">
            <mxGeometry x="621" y="1073" width="184" height="48" as="geometry" />
          </mxCell>
        </UserObject>
        <UserObject label="HISTORYSERVER" lucidchartObjectId="8XpIVe4FQzVd" id="UhmW7nwp59RxyAtJVQfH-87">
          <mxCell style="html=1;overflow=block;blockSpacing=1;whiteSpace=wrap;fontSize=18.3;fontColor=#ffffff;align=center;spacingLeft=8.4;spacingRight=8.4;spacingTop=2.4;spacing=3.6;strokeOpacity=0;fillOpacity=100;rounded=1;absoluteArcSize=1;arcSize=12;fillColor=#636aff;strokeWidth=0.8;" vertex="1" parent="1">
            <mxGeometry x="850" y="1009" width="184" height="48" as="geometry" />
          </mxCell>
        </UserObject>
        <UserObject label="TASKMANAGER" lucidchartObjectId="8XpI6pTr3cQC" id="UhmW7nwp59RxyAtJVQfH-88">
          <mxCell style="html=1;overflow=block;blockSpacing=1;whiteSpace=wrap;fontSize=18.3;fontColor=#ffffff;align=center;spacingLeft=8.4;spacingRight=8.4;spacingTop=2.4;spacing=3.6;strokeOpacity=0;fillOpacity=100;rounded=1;absoluteArcSize=1;arcSize=12;fillColor=#636aff;strokeWidth=0.8;" vertex="1" parent="1">
            <mxGeometry x="850" y="1073" width="184" height="48" as="geometry" />
          </mxCell>
        </UserObject>
        <mxCell id="UhmW7nwp59RxyAtJVQfH-89" style="edgeStyle=none;rounded=1;jumpStyle=none;orthogonalLoop=1;jettySize=auto;html=1;exitX=0.75;exitY=1;exitDx=0;exitDy=0;startArrow=oval;startFill=1;endArrow=oval;endFill=1;strokeColor=#82b366;strokeWidth=2;fillColor=#d5e8d4;" edge="1" parent="1">
          <mxGeometry relative="1" as="geometry">
            <mxPoint x="898.5" y="880" as="sourcePoint" />
            <mxPoint x="898.5" y="836" as="targetPoint" />
          </mxGeometry>
        </mxCell>
        <mxCell id="UhmW7nwp59RxyAtJVQfH-90" style="edgeStyle=none;rounded=1;jumpStyle=none;orthogonalLoop=1;jettySize=auto;html=1;exitX=0.75;exitY=1;exitDx=0;exitDy=0;startArrow=oval;startFill=1;endArrow=oval;endFill=1;strokeColor=#82b366;strokeWidth=2;fillColor=#d5e8d4;" edge="1" parent="1">
          <mxGeometry relative="1" as="geometry">
            <mxPoint x="696.5" y="880" as="sourcePoint" />
            <mxPoint x="696.5" y="836" as="targetPoint" />
          </mxGeometry>
        </mxCell>
        <mxCell id="UhmW7nwp59RxyAtJVQfH-91" style="edgeStyle=none;rounded=1;jumpStyle=none;orthogonalLoop=1;jettySize=auto;html=1;exitX=0.75;exitY=1;exitDx=0;exitDy=0;startArrow=oval;startFill=1;endArrow=oval;endFill=1;strokeColor=#82b366;strokeWidth=2;fillColor=#d5e8d4;" edge="1" parent="1">
          <mxGeometry relative="1" as="geometry">
            <mxPoint x="498.5" y="880" as="sourcePoint" />
            <mxPoint x="498.5" y="836" as="targetPoint" />
          </mxGeometry>
        </mxCell>
        <UserObject label="NGINX + nginx-ldap-auth" lucidchartObjectId="HypIE5tfspSB" id="UhmW7nwp59RxyAtJVQfH-92">
          <mxCell style="html=1;overflow=block;blockSpacing=1;whiteSpace=wrap;fontSize=18.3;fontColor=#333333;align=center;spacingLeft=8.4;spacingRight=8.4;spacingTop=2.4;spacing=3.6;verticalAlign=middle;strokeOpacity=0;fillOpacity=100;rounded=1;absoluteArcSize=1;arcSize=12;fillColor=#CACBE8;strokeWidth=0.8;" vertex="1" parent="1">
            <mxGeometry x="170" y="907" width="150" height="51" as="geometry" />
          </mxCell>
        </UserObject>
        <UserObject label="NGINX + nginx-ldap-auth" lucidchartObjectId="RXpI~8YFsiHd" id="UhmW7nwp59RxyAtJVQfH-93">
          <mxCell style="html=1;overflow=block;blockSpacing=1;whiteSpace=wrap;fontSize=18.3;fontColor=#333333;align=center;spacingLeft=8.4;spacingRight=8.4;spacingTop=2.4;spacing=3.6;verticalAlign=middle;strokeOpacity=0;fillOpacity=100;rounded=1;absoluteArcSize=1;arcSize=12;fillColor=#CACBE8;strokeWidth=0.8;" vertex="1" parent="1">
            <mxGeometry x="400" y="907" width="150" height="51" as="geometry" />
          </mxCell>
        </UserObject>
        <UserObject label="NGINX + nginx-ldap-auth" lucidchartObjectId="1XpIAn_rVOTK" id="UhmW7nwp59RxyAtJVQfH-94">
          <mxCell style="html=1;overflow=block;blockSpacing=1;whiteSpace=wrap;fontSize=18.3;fontColor=#333333;align=center;spacingLeft=8.4;spacingRight=8.4;spacingTop=2.4;spacing=3.6;verticalAlign=middle;strokeOpacity=0;fillOpacity=100;rounded=1;absoluteArcSize=1;arcSize=12;fillColor=#CACBE8;strokeWidth=0.8;" vertex="1" parent="1">
            <mxGeometry x="640" y="907" width="150" height="51" as="geometry" />
          </mxCell>
        </UserObject>
        <UserObject label="NGINX + nginx-ldap-auth" lucidchartObjectId="8XpIHrtV3hBn" id="UhmW7nwp59RxyAtJVQfH-95">
          <mxCell style="html=1;overflow=block;blockSpacing=1;whiteSpace=wrap;fontSize=18.3;fontColor=#333333;align=center;spacingLeft=8.4;spacingRight=8.4;spacingTop=2.4;spacing=3.6;verticalAlign=middle;strokeOpacity=0;fillOpacity=100;rounded=1;absoluteArcSize=1;arcSize=12;fillColor=#CACBE8;strokeWidth=0.8;strokeColor=#CACBE8;" vertex="1" parent="1">
            <mxGeometry x="870" y="907" width="150" height="51" as="geometry" />
          </mxCell>
        </UserObject>
        <mxCell id="UhmW7nwp59RxyAtJVQfH-96" style="edgeStyle=none;rounded=1;jumpStyle=none;orthogonalLoop=1;jettySize=auto;html=1;startArrow=oval;startFill=1;endArrow=oval;endFill=1;strokeColor=#CACBE8;strokeWidth=2;entryX=0.183;entryY=0.994;entryDx=0;entryDy=0;entryPerimeter=0;exitX=0.187;exitY=-0.014;exitDx=0;exitDy=0;exitPerimeter=0;" edge="1" parent="1">
          <mxGeometry relative="1" as="geometry">
            <mxPoint x="418" y="956" as="targetPoint" />
            <mxPoint x="418" y="1008" as="sourcePoint" />
          </mxGeometry>
        </mxCell>
        <mxCell id="UhmW7nwp59RxyAtJVQfH-97" style="edgeStyle=none;rounded=1;jumpStyle=none;orthogonalLoop=1;jettySize=auto;html=1;exitX=0.75;exitY=0;exitDx=0;exitDy=0;startArrow=oval;startFill=1;endArrow=oval;endFill=1;strokeColor=#CACBE8;strokeWidth=2;entryX=0.75;entryY=1;entryDx=0;entryDy=0;" edge="1" parent="1">
          <mxGeometry relative="1" as="geometry">
            <mxPoint x="291" y="956" as="targetPoint" />
            <mxPoint x="291" y="1009" as="sourcePoint" />
          </mxGeometry>
        </mxCell>
        <mxCell id="UhmW7nwp59RxyAtJVQfH-98" style="edgeStyle=none;rounded=1;jumpStyle=none;orthogonalLoop=1;jettySize=auto;html=1;exitX=0.75;exitY=0;exitDx=0;exitDy=0;startArrow=oval;startFill=1;endArrow=oval;endFill=1;strokeColor=#CACBE8;strokeWidth=2;entryX=0.75;entryY=1;entryDx=0;entryDy=0;" edge="1" parent="1">
          <mxGeometry relative="1" as="geometry">
            <mxPoint x="985" y="956" as="targetPoint" />
            <mxPoint x="985" y="1009" as="sourcePoint" />
          </mxGeometry>
        </mxCell>
        <mxCell id="UhmW7nwp59RxyAtJVQfH-99" style="edgeStyle=none;rounded=1;jumpStyle=none;orthogonalLoop=1;jettySize=auto;html=1;startArrow=oval;startFill=1;endArrow=oval;endFill=1;strokeColor=#CACBE8;strokeWidth=2;exitX=0.812;exitY=0.994;exitDx=0;exitDy=0;exitPerimeter=0;entryX=0.815;entryY=-0.014;entryDx=0;entryDy=0;entryPerimeter=0;" edge="1" parent="1">
          <mxGeometry relative="1" as="geometry">
            <mxPoint x="768" y="1008" as="targetPoint" />
            <mxPoint x="767" y="956" as="sourcePoint" />
          </mxGeometry>
        </mxCell>
        <mxCell id="UhmW7nwp59RxyAtJVQfH-100" value="" style="endArrow=none;dashed=1;html=1;dashPattern=1 3;strokeWidth=6;rounded=0;entryX=0.818;entryY=0.058;entryDx=0;entryDy=0;entryPerimeter=0;strokeColor=#727272;exitX=0.252;exitY=0.066;exitDx=0;exitDy=0;exitPerimeter=0;" edge="1" parent="1">
          <mxGeometry width="50" height="50" relative="1" as="geometry">
            <mxPoint x="413.924" y="897.1599999999999" as="sourcePoint" />
            <mxPoint x="300.91599999999994" y="897.0799999999999" as="targetPoint" />
          </mxGeometry>
        </mxCell>
        <mxCell id="UhmW7nwp59RxyAtJVQfH-101" value="" style="endArrow=none;dashed=1;html=1;dashPattern=1 3;strokeWidth=6;rounded=0;entryX=0.818;entryY=0.058;entryDx=0;entryDy=0;entryPerimeter=0;strokeColor=#727272;exitX=0.252;exitY=0.066;exitDx=0;exitDy=0;exitPerimeter=0;" edge="1" parent="1">
          <mxGeometry width="50" height="50" relative="1" as="geometry">
            <mxPoint x="877.924" y="898.1599999999999" as="sourcePoint" />
            <mxPoint x="764.9159999999999" y="898.0799999999999" as="targetPoint" />
          </mxGeometry>
        </mxCell>
        <mxCell id="UhmW7nwp59RxyAtJVQfH-102" style="edgeStyle=none;rounded=0;jumpStyle=none;orthogonalLoop=1;jettySize=auto;html=1;exitX=0;exitY=0.5;exitDx=0;exitDy=0;entryX=1;entryY=0.5;entryDx=0;entryDy=0;startArrow=none;startFill=0;endArrow=classic;endFill=0;strokeColor=#7DD47D;strokeWidth=2;" edge="1" parent="1" source="UhmW7nwp59RxyAtJVQfH-83" target="UhmW7nwp59RxyAtJVQfH-81">
          <mxGeometry relative="1" as="geometry">
            <mxPoint x="394" y="1038" as="sourcePoint" />
            <mxPoint x="347" y="1038" as="targetPoint" />
          </mxGeometry>
        </mxCell>
        <mxCell id="UhmW7nwp59RxyAtJVQfH-103" style="edgeStyle=none;rounded=0;jumpStyle=none;orthogonalLoop=1;jettySize=auto;html=1;exitX=0;exitY=0.5;exitDx=0;exitDy=0;entryX=1;entryY=0.5;entryDx=0;entryDy=0;startArrow=none;startFill=0;endArrow=classic;endFill=0;strokeColor=#7DD47D;strokeWidth=2;" edge="1" parent="1" source="UhmW7nwp59RxyAtJVQfH-85" target="UhmW7nwp59RxyAtJVQfH-83">
          <mxGeometry relative="1" as="geometry">
            <mxPoint x="619" y="1028" as="sourcePoint" />
            <mxPoint x="572" y="1028" as="targetPoint" />
          </mxGeometry>
        </mxCell>
        <mxCell id="UhmW7nwp59RxyAtJVQfH-104" value="" style="endArrow=none;dashed=1;html=1;dashPattern=1 3;strokeWidth=2;rounded=0;" edge="1" parent="1">
          <mxGeometry width="50" height="50" relative="1" as="geometry">
            <mxPoint x="1694" y="1170" as="sourcePoint" />
            <mxPoint x="1695" y="215" as="targetPoint" />
          </mxGeometry>
        </mxCell>
        <UserObject label="Server 1" lucidchartObjectId="HypIMii0T2fg" id="UhmW7nwp59RxyAtJVQfH-105">
          <mxCell style="html=1;overflow=block;blockSpacing=1;whiteSpace=wrap;fontSize=18.3;fontColor=#333333;fontStyle=1;spacingLeft=8.4;spacingRight=8.4;spacingTop=2.4;spacing=3.6;verticalAlign=top;strokeOpacity=0;fillOpacity=100;rounded=1;absoluteArcSize=1;arcSize=12;fillColor=#ffdda6;strokeWidth=0.8;" vertex="1" parent="1">
            <mxGeometry x="1241.5" y="270" width="212" height="256" as="geometry" />
          </mxCell>
        </UserObject>
        <UserObject label="Server N" lucidchartObjectId="kbqIFTrSSb0c" id="UhmW7nwp59RxyAtJVQfH-106">
          <mxCell style="html=1;overflow=block;blockSpacing=1;whiteSpace=wrap;fontSize=18.3;fontColor=#333333;fontStyle=1;spacingLeft=8.4;spacingRight=8.4;spacingTop=2.4;spacing=3.6;verticalAlign=top;strokeOpacity=0;fillOpacity=100;rounded=1;absoluteArcSize=1;arcSize=12;fillColor=#ffdda6;strokeWidth=0.8;" vertex="1" parent="1">
            <mxGeometry x="1471.5" y="270" width="212" height="256" as="geometry" />
          </mxCell>
        </UserObject>
        <UserObject label="Server 1" lucidchartObjectId="kgqIT20~Yh46" id="UhmW7nwp59RxyAtJVQfH-107">
          <mxCell style="html=1;overflow=block;blockSpacing=1;whiteSpace=wrap;fontSize=18.3;fontColor=#333333;fontStyle=1;spacingLeft=8.4;spacingRight=8.4;spacingTop=2.4;spacing=3.6;verticalAlign=top;strokeOpacity=0;fillOpacity=100;rounded=1;absoluteArcSize=1;arcSize=12;fillColor=#ffdda6;strokeWidth=0.8;" vertex="1" parent="1">
            <mxGeometry x="1705.5" y="270" width="212" height="256" as="geometry" />
          </mxCell>
        </UserObject>
        <UserObject label="Server N" lucidchartObjectId="NgqIsRjEYktH" id="UhmW7nwp59RxyAtJVQfH-108">
          <mxCell style="html=1;overflow=block;blockSpacing=1;whiteSpace=wrap;fontSize=18.3;fontColor=#333333;fontStyle=1;spacingLeft=8.4;spacingRight=8.4;spacingTop=2.4;spacing=3.6;verticalAlign=top;strokeOpacity=0;fillOpacity=100;rounded=1;absoluteArcSize=1;arcSize=12;fillColor=#ffdda6;strokeWidth=0.8;" vertex="1" parent="1">
            <mxGeometry x="1935.5" y="270" width="212" height="256" as="geometry" />
          </mxCell>
        </UserObject>
        <object label="" tooltip="Синхронная репликация" id="UhmW7nwp59RxyAtJVQfH-109">
          <mxCell style="edgeStyle=orthogonalEdgeStyle;rounded=0;orthogonalLoop=1;jettySize=auto;html=1;entryX=1;entryY=0.5;entryDx=0;entryDy=0;dashed=1;dashPattern=1 1;fontColor=#3399FF;strokeColor=#0080ff;startArrow=classic;startFill=1;endArrow=none;endFill=0;" edge="1" parent="1" source="UhmW7nwp59RxyAtJVQfH-110" target="UhmW7nwp59RxyAtJVQfH-138">
            <mxGeometry relative="1" as="geometry">
              <mxPoint x="1650" y="695" as="targetPoint" />
            </mxGeometry>
          </mxCell>
        </object>
        <UserObject label="&lt;div&gt;Файловое хранилище NFSv3 с георезервированием&lt;/div&gt;&lt;div&gt;&lt;br&gt;&lt;/div&gt;&lt;div&gt;&lt;br&gt;&lt;/div&gt;&lt;div style=&quot;font-size: 16px;&quot;&gt;&lt;br&gt;&lt;/div&gt;&lt;div&gt;&lt;font style=&quot;font-size: 9px;&quot;&gt;&lt;i&gt;IOPS/bandwidth ограничены правилами QoS&lt;/i&gt;&lt;/font&gt;&lt;/div&gt;" lucidchartObjectId="_KpIE2-JrPc8" id="UhmW7nwp59RxyAtJVQfH-110">
          <mxCell style="html=1;overflow=block;blockSpacing=1;whiteSpace=wrap;fontSize=20;fontStyle=1;align=center;spacing=9;verticalAlign=top;strokeOpacity=0;fillOpacity=100;rounded=1;absoluteArcSize=1;arcSize=12;fillColor=#d5e8d4;strokeWidth=0.8;strokeColor=#82b366;" vertex="1" parent="1">
            <mxGeometry x="1745" y="630" width="360" height="150" as="geometry" />
          </mxCell>
        </UserObject>
        <UserObject label="Площадка 2, для часто обновляемых HA-метаданных и&amp;nbsp;инкрементных / полных снэпшотов кластера Flink " lucidchartObjectId="fSpIcaWIN3Va" id="UhmW7nwp59RxyAtJVQfH-111">
          <mxCell style="html=1;overflow=block;blockSpacing=1;whiteSpace=wrap;fontSize=16.7;fontColor=#333333;align=left;spacing=9;verticalAlign=top;strokeOpacity=100;fillOpacity=100;rounded=1;absoluteArcSize=1;arcSize=12;fillColor=#ffffff;strokeWidth=0.8;" vertex="1" parent="1">
            <mxGeometry x="1760" y="688" width="330" height="72" as="geometry" />
          </mxCell>
        </UserObject>
        <UserObject label="&lt;div style=&quot;line-height: 0.9;&quot;&gt;Кластер Apache Flink&lt;br&gt;&lt;/div&gt;&lt;div&gt;&lt;sup&gt;&lt;font style=&quot;font-size: 10px;&quot;&gt;MAIN&lt;/font&gt;&lt;/sup&gt;&lt;/div&gt;" lucidchartObjectId="WnqImOF1_m_N" id="UhmW7nwp59RxyAtJVQfH-112">
          <mxCell style="html=1;overflow=block;blockSpacing=1;whiteSpace=wrap;fontSize=20;fontColor=#ffffff;fontStyle=1;spacingLeft=8.4;spacingRight=8.4;spacingTop=2.4;spacing=3.6;verticalAlign=top;strokeOpacity=0;fillOpacity=100;rounded=1;absoluteArcSize=1;arcSize=12;fillColor=#8b90ff;strokeWidth=0.8;" vertex="1" parent="1">
            <mxGeometry x="1230" y="355" width="929" height="164" as="geometry" />
          </mxCell>
        </UserObject>
        <UserObject label="&lt;div&gt;JOBMANAGER&lt;/div&gt;&lt;div&gt;&lt;font color=&quot;#33ff33&quot; style=&quot;font-size: 14px;&quot;&gt;&lt;b&gt;Leader&lt;/b&gt;&lt;/font&gt;&lt;/div&gt;" lucidchartObjectId="HypInYoTSrlu" id="UhmW7nwp59RxyAtJVQfH-113">
          <mxCell style="html=1;overflow=block;blockSpacing=1;whiteSpace=wrap;fontSize=18.3;fontColor=#ffffff;align=center;spacingLeft=8.4;spacingRight=8.4;spacingTop=2.4;spacing=3.6;strokeOpacity=0;fillOpacity=100;rounded=1;absoluteArcSize=1;arcSize=12;fillColor=#636aff;strokeWidth=0.8;" vertex="1" parent="1">
            <mxGeometry x="1256" y="399" width="184" height="48" as="geometry" />
          </mxCell>
        </UserObject>
        <UserObject label="TASKMANAGER" lucidchartObjectId="HypIgOagNPgA" id="UhmW7nwp59RxyAtJVQfH-114">
          <mxCell style="html=1;overflow=block;blockSpacing=1;whiteSpace=wrap;fontSize=18.3;fontColor=#ffffff;align=center;spacingLeft=8.4;spacingRight=8.4;spacingTop=2.4;spacing=3.6;strokeOpacity=0;fillOpacity=100;rounded=1;absoluteArcSize=1;arcSize=12;fillColor=#636aff;strokeWidth=0.8;" vertex="1" parent="1">
            <mxGeometry x="1256" y="463" width="184" height="48" as="geometry" />
          </mxCell>
        </UserObject>
        <UserObject label="JOBMANAGER&lt;br&gt;&lt;font style=&quot;font-size: 14px;&quot;&gt;Standby&lt;/font&gt;" lucidchartObjectId="RXpI0It2jUcH" id="UhmW7nwp59RxyAtJVQfH-115">
          <mxCell style="html=1;overflow=block;blockSpacing=1;whiteSpace=wrap;fontSize=18.3;fontColor=#ffffff;align=center;spacingLeft=8.4;spacingRight=8.4;spacingTop=2.4;spacing=3.6;strokeOpacity=0;fillOpacity=100;rounded=1;absoluteArcSize=1;arcSize=12;fillColor=#636aff;strokeWidth=0.8;" vertex="1" parent="1">
            <mxGeometry x="1487" y="399" width="184" height="48" as="geometry" />
          </mxCell>
        </UserObject>
        <UserObject label="TASKMANAGER" lucidchartObjectId="RXpIgnX.f~PW" id="UhmW7nwp59RxyAtJVQfH-116">
          <mxCell style="html=1;overflow=block;blockSpacing=1;whiteSpace=wrap;fontSize=18.3;fontColor=#ffffff;align=center;spacingLeft=8.4;spacingRight=8.4;spacingTop=2.4;spacing=3.6;strokeOpacity=0;fillOpacity=100;rounded=1;absoluteArcSize=1;arcSize=12;fillColor=#636aff;strokeWidth=0.8;" vertex="1" parent="1">
            <mxGeometry x="1487" y="463" width="184" height="48" as="geometry" />
          </mxCell>
        </UserObject>
        <UserObject label="JOBMANAGER&lt;br&gt;&lt;font style=&quot;font-size: 14px;&quot;&gt;Standby&lt;/font&gt;" lucidchartObjectId="1XpI324HXPmj" id="UhmW7nwp59RxyAtJVQfH-117">
          <mxCell style="html=1;overflow=block;blockSpacing=1;whiteSpace=wrap;fontSize=18.3;fontColor=#ffffff;align=center;spacingLeft=8.4;spacingRight=8.4;spacingTop=2.4;spacing=3.6;strokeOpacity=0;fillOpacity=100;rounded=1;absoluteArcSize=1;arcSize=12;fillColor=#636aff;strokeWidth=0.8;" vertex="1" parent="1">
            <mxGeometry x="1721" y="399" width="184" height="48" as="geometry" />
          </mxCell>
        </UserObject>
        <UserObject label="TASKMANAGER" lucidchartObjectId="1XpItajlC~17" id="UhmW7nwp59RxyAtJVQfH-118">
          <mxCell style="html=1;overflow=block;blockSpacing=1;whiteSpace=wrap;fontSize=18.3;fontColor=#ffffff;align=center;spacingLeft=8.4;spacingRight=8.4;spacingTop=2.4;spacing=3.6;strokeOpacity=0;fillOpacity=100;rounded=1;absoluteArcSize=1;arcSize=12;fillColor=#636aff;strokeWidth=0.8;" vertex="1" parent="1">
            <mxGeometry x="1721" y="463" width="184" height="48" as="geometry" />
          </mxCell>
        </UserObject>
        <UserObject label="HISTORYSERVER" lucidchartObjectId="8XpIVe4FQzVd" id="UhmW7nwp59RxyAtJVQfH-119">
          <mxCell style="html=1;overflow=block;blockSpacing=1;whiteSpace=wrap;fontSize=18.3;fontColor=#ffffff;align=center;spacingLeft=8.4;spacingRight=8.4;spacingTop=2.4;spacing=3.6;strokeOpacity=0;fillOpacity=100;rounded=1;absoluteArcSize=1;arcSize=12;fillColor=#636aff;strokeWidth=0.8;" vertex="1" parent="1">
            <mxGeometry x="1950" y="399" width="184" height="48" as="geometry" />
          </mxCell>
        </UserObject>
        <UserObject label="TASKMANAGER" lucidchartObjectId="8XpI6pTr3cQC" id="UhmW7nwp59RxyAtJVQfH-120">
          <mxCell style="html=1;overflow=block;blockSpacing=1;whiteSpace=wrap;fontSize=18.3;fontColor=#ffffff;align=center;spacingLeft=8.4;spacingRight=8.4;spacingTop=2.4;spacing=3.6;strokeOpacity=0;fillOpacity=100;rounded=1;absoluteArcSize=1;arcSize=12;fillColor=#636aff;strokeWidth=0.8;" vertex="1" parent="1">
            <mxGeometry x="1950" y="463" width="184" height="48" as="geometry" />
          </mxCell>
        </UserObject>
        <mxCell id="UhmW7nwp59RxyAtJVQfH-121" style="edgeStyle=none;rounded=1;jumpStyle=none;orthogonalLoop=1;jettySize=auto;html=1;exitX=0.75;exitY=1;exitDx=0;exitDy=0;startArrow=oval;startFill=1;endArrow=oval;endFill=1;strokeColor=#82b366;strokeWidth=2;fillColor=#d5e8d4;" edge="1" parent="1">
          <mxGeometry relative="1" as="geometry">
            <mxPoint x="1826" y="528" as="sourcePoint" />
            <mxPoint x="1826" y="572" as="targetPoint" />
          </mxGeometry>
        </mxCell>
        <mxCell id="UhmW7nwp59RxyAtJVQfH-122" style="edgeStyle=none;rounded=1;jumpStyle=none;orthogonalLoop=1;jettySize=auto;html=1;exitX=0.75;exitY=1;exitDx=0;exitDy=0;startArrow=oval;startFill=1;endArrow=oval;endFill=1;strokeColor=#82b366;strokeWidth=2;fillColor=#d5e8d4;" edge="1" parent="1">
          <mxGeometry relative="1" as="geometry">
            <mxPoint x="1604" y="528" as="sourcePoint" />
            <mxPoint x="1604" y="572" as="targetPoint" />
          </mxGeometry>
        </mxCell>
        <mxCell id="UhmW7nwp59RxyAtJVQfH-123" style="edgeStyle=none;rounded=1;jumpStyle=none;orthogonalLoop=1;jettySize=auto;html=1;exitX=0.75;exitY=1;exitDx=0;exitDy=0;startArrow=oval;startFill=1;endArrow=oval;endFill=1;strokeColor=#82b366;strokeWidth=2;fillColor=#d5e8d4;" edge="1" parent="1">
          <mxGeometry relative="1" as="geometry">
            <mxPoint x="1416" y="528" as="sourcePoint" />
            <mxPoint x="1416" y="572" as="targetPoint" />
          </mxGeometry>
        </mxCell>
        <UserObject label="NGINX + nginx-ldap-auth" lucidchartObjectId="HypIE5tfspSB" id="UhmW7nwp59RxyAtJVQfH-124">
          <mxCell style="html=1;overflow=block;blockSpacing=1;whiteSpace=wrap;fontSize=18.3;fontColor=#333333;align=center;spacingLeft=8.4;spacingRight=8.4;spacingTop=2.4;spacing=3.6;verticalAlign=middle;strokeOpacity=0;fillOpacity=100;rounded=1;absoluteArcSize=1;arcSize=12;fillColor=#CACBE8;strokeWidth=0.8;" vertex="1" parent="1">
            <mxGeometry x="1270" y="297" width="150" height="51" as="geometry" />
          </mxCell>
        </UserObject>
        <UserObject label="NGINX + nginx-ldap-auth" lucidchartObjectId="RXpI~8YFsiHd" id="UhmW7nwp59RxyAtJVQfH-125">
          <mxCell style="html=1;overflow=block;blockSpacing=1;whiteSpace=wrap;fontSize=18.3;fontColor=#333333;align=center;spacingLeft=8.4;spacingRight=8.4;spacingTop=2.4;spacing=3.6;verticalAlign=middle;strokeOpacity=0;fillOpacity=100;rounded=1;absoluteArcSize=1;arcSize=12;fillColor=#CACBE8;strokeWidth=0.8;" vertex="1" parent="1">
            <mxGeometry x="1500" y="297" width="150" height="51" as="geometry" />
          </mxCell>
        </UserObject>
        <UserObject label="NGINX + nginx-ldap-auth" lucidchartObjectId="1XpIAn_rVOTK" id="UhmW7nwp59RxyAtJVQfH-126">
          <mxCell style="html=1;overflow=block;blockSpacing=1;whiteSpace=wrap;fontSize=18.3;fontColor=#333333;align=center;spacingLeft=8.4;spacingRight=8.4;spacingTop=2.4;spacing=3.6;verticalAlign=middle;strokeOpacity=0;fillOpacity=100;rounded=1;absoluteArcSize=1;arcSize=12;fillColor=#CACBE8;strokeWidth=0.8;" vertex="1" parent="1">
            <mxGeometry x="1740" y="297" width="150" height="51" as="geometry" />
          </mxCell>
        </UserObject>
        <UserObject label="NGINX + nginx-ldap-auth" lucidchartObjectId="8XpIHrtV3hBn" id="UhmW7nwp59RxyAtJVQfH-127">
          <mxCell style="html=1;overflow=block;blockSpacing=1;whiteSpace=wrap;fontSize=18.3;fontColor=#333333;align=center;spacingLeft=8.4;spacingRight=8.4;spacingTop=2.4;spacing=3.6;verticalAlign=middle;strokeOpacity=0;fillOpacity=100;rounded=1;absoluteArcSize=1;arcSize=12;fillColor=#CACBE8;strokeWidth=0.8;strokeColor=#CACBE8;" vertex="1" parent="1">
            <mxGeometry x="1970" y="297" width="150" height="51" as="geometry" />
          </mxCell>
        </UserObject>
        <mxCell id="UhmW7nwp59RxyAtJVQfH-128" style="edgeStyle=none;rounded=1;jumpStyle=none;orthogonalLoop=1;jettySize=auto;html=1;startArrow=oval;startFill=1;endArrow=oval;endFill=1;strokeColor=#CACBE8;strokeWidth=2;entryX=0.183;entryY=0.994;entryDx=0;entryDy=0;entryPerimeter=0;exitX=0.187;exitY=-0.014;exitDx=0;exitDy=0;exitPerimeter=0;" edge="1" parent="1">
          <mxGeometry relative="1" as="geometry">
            <mxPoint x="1518" y="346" as="targetPoint" />
            <mxPoint x="1518" y="398" as="sourcePoint" />
          </mxGeometry>
        </mxCell>
        <mxCell id="UhmW7nwp59RxyAtJVQfH-129" style="edgeStyle=none;rounded=1;jumpStyle=none;orthogonalLoop=1;jettySize=auto;html=1;exitX=0.75;exitY=0;exitDx=0;exitDy=0;startArrow=oval;startFill=1;endArrow=oval;endFill=1;strokeColor=#CACBE8;strokeWidth=2;entryX=0.75;entryY=1;entryDx=0;entryDy=0;" edge="1" parent="1">
          <mxGeometry relative="1" as="geometry">
            <mxPoint x="1391" y="346" as="targetPoint" />
            <mxPoint x="1391" y="399" as="sourcePoint" />
          </mxGeometry>
        </mxCell>
        <mxCell id="UhmW7nwp59RxyAtJVQfH-130" style="edgeStyle=none;rounded=1;jumpStyle=none;orthogonalLoop=1;jettySize=auto;html=1;exitX=0.75;exitY=0;exitDx=0;exitDy=0;startArrow=oval;startFill=1;endArrow=oval;endFill=1;strokeColor=#CACBE8;strokeWidth=2;entryX=0.75;entryY=1;entryDx=0;entryDy=0;" edge="1" parent="1">
          <mxGeometry relative="1" as="geometry">
            <mxPoint x="2085" y="346" as="targetPoint" />
            <mxPoint x="2085" y="399" as="sourcePoint" />
          </mxGeometry>
        </mxCell>
        <mxCell id="UhmW7nwp59RxyAtJVQfH-131" style="edgeStyle=none;rounded=1;jumpStyle=none;orthogonalLoop=1;jettySize=auto;html=1;startArrow=oval;startFill=1;endArrow=oval;endFill=1;strokeColor=#CACBE8;strokeWidth=2;exitX=0.812;exitY=0.994;exitDx=0;exitDy=0;exitPerimeter=0;entryX=0.815;entryY=-0.014;entryDx=0;entryDy=0;entryPerimeter=0;" edge="1" parent="1">
          <mxGeometry relative="1" as="geometry">
            <mxPoint x="1868" y="398" as="targetPoint" />
            <mxPoint x="1867" y="346" as="sourcePoint" />
          </mxGeometry>
        </mxCell>
        <mxCell id="UhmW7nwp59RxyAtJVQfH-132" value="&lt;b style=&quot;font-size: 24px;&quot;&gt;DC1&lt;/b&gt;" style="rounded=0;whiteSpace=wrap;html=1;fontSize=24;" vertex="1" parent="1">
          <mxGeometry x="1425" y="200" width="100" height="40" as="geometry" />
        </mxCell>
        <mxCell id="UhmW7nwp59RxyAtJVQfH-133" value="&lt;b style=&quot;font-size: 24px;&quot;&gt;DC2&lt;/b&gt;" style="rounded=0;whiteSpace=wrap;html=1;fontSize=24;" vertex="1" parent="1">
          <mxGeometry x="1875" y="200" width="100" height="40" as="geometry" />
        </mxCell>
        <mxCell id="UhmW7nwp59RxyAtJVQfH-134" value="" style="endArrow=none;dashed=1;html=1;dashPattern=1 3;strokeWidth=6;rounded=0;entryX=0.818;entryY=0.058;entryDx=0;entryDy=0;entryPerimeter=0;strokeColor=#727272;exitX=0.252;exitY=0.066;exitDx=0;exitDy=0;exitPerimeter=0;" edge="1" parent="1">
          <mxGeometry width="50" height="50" relative="1" as="geometry">
            <mxPoint x="1513.924" y="287.15999999999985" as="sourcePoint" />
            <mxPoint x="1400.916" y="287.0799999999999" as="targetPoint" />
          </mxGeometry>
        </mxCell>
        <mxCell id="UhmW7nwp59RxyAtJVQfH-135" value="" style="endArrow=none;dashed=1;html=1;dashPattern=1 3;strokeWidth=6;rounded=0;entryX=0.818;entryY=0.058;entryDx=0;entryDy=0;entryPerimeter=0;strokeColor=#727272;exitX=0.252;exitY=0.066;exitDx=0;exitDy=0;exitPerimeter=0;" edge="1" parent="1">
          <mxGeometry width="50" height="50" relative="1" as="geometry">
            <mxPoint x="1977.924" y="288.15999999999985" as="sourcePoint" />
            <mxPoint x="1864.916" y="288.0799999999999" as="targetPoint" />
          </mxGeometry>
        </mxCell>
        <mxCell id="UhmW7nwp59RxyAtJVQfH-136" style="edgeStyle=none;rounded=0;jumpStyle=none;orthogonalLoop=1;jettySize=auto;html=1;exitX=1;exitY=0.5;exitDx=0;exitDy=0;entryX=0;entryY=0.5;entryDx=0;entryDy=0;startArrow=none;startFill=0;endArrow=classic;endFill=0;strokeColor=#7DD47D;strokeWidth=2;" edge="1" parent="1" source="UhmW7nwp59RxyAtJVQfH-113" target="UhmW7nwp59RxyAtJVQfH-115">
          <mxGeometry relative="1" as="geometry">
            <mxPoint x="1447" y="428" as="sourcePoint" />
            <mxPoint x="1494" y="428" as="targetPoint" />
          </mxGeometry>
        </mxCell>
        <mxCell id="UhmW7nwp59RxyAtJVQfH-137" style="edgeStyle=none;rounded=0;jumpStyle=none;orthogonalLoop=1;jettySize=auto;html=1;exitX=1;exitY=0.5;exitDx=0;exitDy=0;entryX=0;entryY=0.5;entryDx=0;entryDy=0;startArrow=none;startFill=0;endArrow=classic;endFill=0;strokeColor=#7DD47D;strokeWidth=2;" edge="1" parent="1" source="UhmW7nwp59RxyAtJVQfH-115" target="UhmW7nwp59RxyAtJVQfH-117">
          <mxGeometry relative="1" as="geometry">
            <mxPoint x="1672" y="418" as="sourcePoint" />
            <mxPoint x="1719" y="418" as="targetPoint" />
          </mxGeometry>
        </mxCell>
        <UserObject label="&lt;div&gt;Файловое хранилище NFSv3 с георезервированием&lt;/div&gt;&lt;div&gt;&lt;br&gt;&lt;/div&gt;&lt;div&gt;&lt;br&gt;&lt;/div&gt;&lt;div style=&quot;font-size: 15px;&quot;&gt;&lt;br&gt;&lt;/div&gt;&lt;div&gt;&lt;font style=&quot;font-size: 9px;&quot;&gt;&lt;i&gt;IOPS/bandwidth ограничены правилами QoS&lt;/i&gt;&lt;/font&gt;&lt;/div&gt;" lucidchartObjectId="_KpIE2-JrPc8" id="UhmW7nwp59RxyAtJVQfH-138">
          <mxCell style="html=1;overflow=block;blockSpacing=1;whiteSpace=wrap;fontSize=20;fontStyle=1;align=center;spacing=9;verticalAlign=top;strokeOpacity=0;fillOpacity=100;rounded=1;absoluteArcSize=1;arcSize=12;fillColor=#d5e8d4;strokeWidth=0.8;strokeColor=#82b366;" vertex="1" parent="1">
            <mxGeometry x="1288" y="630" width="360" height="150" as="geometry" />
          </mxCell>
        </UserObject>
        <UserObject label="Площадка 1, для часто обновляемых HA-метаданных и инкрементных / полных снэпшотов кластера Flink" lucidchartObjectId="fSpIcaWIN3Va" id="UhmW7nwp59RxyAtJVQfH-139">
          <mxCell style="html=1;overflow=block;blockSpacing=1;whiteSpace=wrap;fontSize=16.7;fontColor=#333333;align=left;spacing=9;verticalAlign=top;strokeOpacity=100;fillOpacity=100;rounded=1;absoluteArcSize=1;arcSize=12;fillColor=#ffffff;strokeWidth=0.8;" vertex="1" parent="1">
            <mxGeometry x="1303" y="688" width="330" height="72" as="geometry" />
          </mxCell>
        </UserObject>
        <mxCell id="UhmW7nwp59RxyAtJVQfH-140" value="Синхронная репликация" style="text;html=1;align=center;verticalAlign=middle;whiteSpace=wrap;rounded=0;fontSize=8;fontColor=#3399FF;fontStyle=1" vertex="1" parent="1">
          <mxGeometry x="1655" y="674" width="79" height="31" as="geometry" />
        </mxCell>
        <UserObject label="Server 1" lucidchartObjectId="HypIMii0T2fg" id="UhmW7nwp59RxyAtJVQfH-141">
          <mxCell style="html=1;overflow=block;blockSpacing=1;whiteSpace=wrap;fontSize=18.3;fontColor=#333333;fontStyle=1;spacingLeft=8.4;spacingRight=8.4;spacingTop=2.4;spacing=3.6;verticalAlign=top;strokeOpacity=0;fillOpacity=100;rounded=1;absoluteArcSize=1;arcSize=12;fillColor=#ffdda6;strokeWidth=0.8;" vertex="1" parent="1">
            <mxGeometry x="1241.5" y="880" width="212" height="256" as="geometry" />
          </mxCell>
        </UserObject>
        <UserObject label="Server N" lucidchartObjectId="kbqIFTrSSb0c" id="UhmW7nwp59RxyAtJVQfH-142">
          <mxCell style="html=1;overflow=block;blockSpacing=1;whiteSpace=wrap;fontSize=18.3;fontColor=#333333;fontStyle=1;spacingLeft=8.4;spacingRight=8.4;spacingTop=2.4;spacing=3.6;verticalAlign=top;strokeOpacity=0;fillOpacity=100;rounded=1;absoluteArcSize=1;arcSize=12;fillColor=#ffdda6;strokeWidth=0.8;" vertex="1" parent="1">
            <mxGeometry x="1471.5" y="880" width="212" height="256" as="geometry" />
          </mxCell>
        </UserObject>
        <UserObject label="Server 1" lucidchartObjectId="kgqIT20~Yh46" id="UhmW7nwp59RxyAtJVQfH-143">
          <mxCell style="html=1;overflow=block;blockSpacing=1;whiteSpace=wrap;fontSize=18.3;fontColor=#333333;fontStyle=1;spacingLeft=8.4;spacingRight=8.4;spacingTop=2.4;spacing=3.6;verticalAlign=top;strokeOpacity=0;fillOpacity=100;rounded=1;absoluteArcSize=1;arcSize=12;fillColor=#ffdda6;strokeWidth=0.8;" vertex="1" parent="1">
            <mxGeometry x="1705.5" y="880" width="212" height="256" as="geometry" />
          </mxCell>
        </UserObject>
        <UserObject label="Server N" lucidchartObjectId="NgqIsRjEYktH" id="UhmW7nwp59RxyAtJVQfH-144">
          <mxCell style="html=1;overflow=block;blockSpacing=1;whiteSpace=wrap;fontSize=18.3;fontColor=#333333;fontStyle=1;spacingLeft=8.4;spacingRight=8.4;spacingTop=2.4;spacing=3.6;verticalAlign=top;strokeOpacity=0;fillOpacity=100;rounded=1;absoluteArcSize=1;arcSize=12;fillColor=#ffdda6;strokeWidth=0.8;" vertex="1" parent="1">
            <mxGeometry x="1935.5" y="880" width="212" height="256" as="geometry" />
          </mxCell>
        </UserObject>
        <UserObject label="&lt;div style=&quot;line-height: 0.9;&quot;&gt;Кластер Apache Flink&lt;br&gt;&lt;/div&gt;&lt;div&gt;&lt;sup&gt;&lt;font style=&quot;font-size: 10px;&quot;&gt;STAND-IN&lt;/font&gt;&lt;/sup&gt;&lt;/div&gt;" lucidchartObjectId="WnqImOF1_m_N" id="UhmW7nwp59RxyAtJVQfH-145">
          <mxCell style="html=1;overflow=block;blockSpacing=1;whiteSpace=wrap;fontSize=20;fontColor=#ffffff;fontStyle=1;spacingLeft=8.4;spacingRight=8.4;spacingTop=2.4;spacing=3.6;verticalAlign=top;strokeOpacity=0;fillOpacity=100;rounded=1;absoluteArcSize=1;arcSize=12;fillColor=#8b90ff;strokeWidth=0.8;" vertex="1" parent="1">
            <mxGeometry x="1230" y="965" width="929" height="164" as="geometry" />
          </mxCell>
        </UserObject>
        <UserObject label="&lt;div&gt;JOBMANAGER&lt;/div&gt;&lt;div&gt;&lt;font style=&quot;font-size: 14px;&quot;&gt;Standby&lt;/font&gt;&lt;/div&gt;" lucidchartObjectId="HypInYoTSrlu" id="UhmW7nwp59RxyAtJVQfH-146">
          <mxCell style="html=1;overflow=block;blockSpacing=1;whiteSpace=wrap;fontSize=18.3;fontColor=#ffffff;align=center;spacingLeft=8.4;spacingRight=8.4;spacingTop=2.4;spacing=3.6;strokeOpacity=0;fillOpacity=100;rounded=1;absoluteArcSize=1;arcSize=12;fillColor=#636aff;strokeWidth=0.8;" vertex="1" parent="1">
            <mxGeometry x="1256" y="1009" width="184" height="48" as="geometry" />
          </mxCell>
        </UserObject>
        <UserObject label="TASKMANAGER" lucidchartObjectId="HypIgOagNPgA" id="UhmW7nwp59RxyAtJVQfH-147">
          <mxCell style="html=1;overflow=block;blockSpacing=1;whiteSpace=wrap;fontSize=18.3;fontColor=#ffffff;align=center;spacingLeft=8.4;spacingRight=8.4;spacingTop=2.4;spacing=3.6;strokeOpacity=0;fillOpacity=100;rounded=1;absoluteArcSize=1;arcSize=12;fillColor=#636aff;strokeWidth=0.8;" vertex="1" parent="1">
            <mxGeometry x="1256" y="1073" width="184" height="48" as="geometry" />
          </mxCell>
        </UserObject>
        <UserObject label="&lt;div&gt;JOBMANAGER&lt;/div&gt;&lt;div&gt;&lt;font style=&quot;font-size: 14px;&quot;&gt;Standby&lt;/font&gt;&lt;/div&gt;" lucidchartObjectId="RXpI0It2jUcH" id="UhmW7nwp59RxyAtJVQfH-148">
          <mxCell style="html=1;overflow=block;blockSpacing=1;whiteSpace=wrap;fontSize=18.3;fontColor=#ffffff;align=center;spacingLeft=8.4;spacingRight=8.4;spacingTop=2.4;spacing=3.6;strokeOpacity=0;fillOpacity=100;rounded=1;absoluteArcSize=1;arcSize=12;fillColor=#636aff;strokeWidth=0.8;" vertex="1" parent="1">
            <mxGeometry x="1487" y="1009" width="184" height="48" as="geometry" />
          </mxCell>
        </UserObject>
        <UserObject label="TASKMANAGER" lucidchartObjectId="RXpIgnX.f~PW" id="UhmW7nwp59RxyAtJVQfH-149">
          <mxCell style="html=1;overflow=block;blockSpacing=1;whiteSpace=wrap;fontSize=18.3;fontColor=#ffffff;align=center;spacingLeft=8.4;spacingRight=8.4;spacingTop=2.4;spacing=3.6;strokeOpacity=0;fillOpacity=100;rounded=1;absoluteArcSize=1;arcSize=12;fillColor=#636aff;strokeWidth=0.8;" vertex="1" parent="1">
            <mxGeometry x="1487" y="1073" width="184" height="48" as="geometry" />
          </mxCell>
        </UserObject>
        <UserObject label="JOBMANAGER&lt;font color=&quot;#33ff33&quot; style=&quot;font-size: 14px;&quot;&gt;&lt;b&gt;&lt;br&gt;Leader&lt;/b&gt;&lt;/font&gt;" lucidchartObjectId="1XpI324HXPmj" id="UhmW7nwp59RxyAtJVQfH-150">
          <mxCell style="html=1;overflow=block;blockSpacing=1;whiteSpace=wrap;fontSize=18.3;fontColor=#ffffff;align=center;spacingLeft=8.4;spacingRight=8.4;spacingTop=2.4;spacing=3.6;strokeOpacity=0;fillOpacity=100;rounded=1;absoluteArcSize=1;arcSize=12;fillColor=#636aff;strokeWidth=0.8;" vertex="1" parent="1">
            <mxGeometry x="1721" y="1009" width="184" height="48" as="geometry" />
          </mxCell>
        </UserObject>
        <UserObject label="TASKMANAGER" lucidchartObjectId="1XpItajlC~17" id="UhmW7nwp59RxyAtJVQfH-151">
          <mxCell style="html=1;overflow=block;blockSpacing=1;whiteSpace=wrap;fontSize=18.3;fontColor=#ffffff;align=center;spacingLeft=8.4;spacingRight=8.4;spacingTop=2.4;spacing=3.6;strokeOpacity=0;fillOpacity=100;rounded=1;absoluteArcSize=1;arcSize=12;fillColor=#636aff;strokeWidth=0.8;" vertex="1" parent="1">
            <mxGeometry x="1721" y="1073" width="184" height="48" as="geometry" />
          </mxCell>
        </UserObject>
        <UserObject label="HISTORYSERVER" lucidchartObjectId="8XpIVe4FQzVd" id="UhmW7nwp59RxyAtJVQfH-152">
          <mxCell style="html=1;overflow=block;blockSpacing=1;whiteSpace=wrap;fontSize=18.3;fontColor=#ffffff;align=center;spacingLeft=8.4;spacingRight=8.4;spacingTop=2.4;spacing=3.6;strokeOpacity=0;fillOpacity=100;rounded=1;absoluteArcSize=1;arcSize=12;fillColor=#636aff;strokeWidth=0.8;" vertex="1" parent="1">
            <mxGeometry x="1950" y="1009" width="184" height="48" as="geometry" />
          </mxCell>
        </UserObject>
        <UserObject label="TASKMANAGER" lucidchartObjectId="8XpI6pTr3cQC" id="UhmW7nwp59RxyAtJVQfH-153">
          <mxCell style="html=1;overflow=block;blockSpacing=1;whiteSpace=wrap;fontSize=18.3;fontColor=#ffffff;align=center;spacingLeft=8.4;spacingRight=8.4;spacingTop=2.4;spacing=3.6;strokeOpacity=0;fillOpacity=100;rounded=1;absoluteArcSize=1;arcSize=12;fillColor=#636aff;strokeWidth=0.8;" vertex="1" parent="1">
            <mxGeometry x="1950" y="1073" width="184" height="48" as="geometry" />
          </mxCell>
        </UserObject>
        <mxCell id="UhmW7nwp59RxyAtJVQfH-154" style="edgeStyle=none;rounded=1;jumpStyle=none;orthogonalLoop=1;jettySize=auto;html=1;exitX=0.75;exitY=1;exitDx=0;exitDy=0;startArrow=oval;startFill=1;endArrow=oval;endFill=1;strokeColor=#82b366;strokeWidth=2;fillColor=#d5e8d4;" edge="1" parent="1">
          <mxGeometry relative="1" as="geometry">
            <mxPoint x="1828.5" y="880" as="sourcePoint" />
            <mxPoint x="1828.5" y="836" as="targetPoint" />
          </mxGeometry>
        </mxCell>
        <mxCell id="UhmW7nwp59RxyAtJVQfH-155" style="edgeStyle=none;rounded=1;jumpStyle=none;orthogonalLoop=1;jettySize=auto;html=1;exitX=0.75;exitY=1;exitDx=0;exitDy=0;startArrow=oval;startFill=1;endArrow=oval;endFill=1;strokeColor=#82b366;strokeWidth=2;fillColor=#d5e8d4;" edge="1" parent="1">
          <mxGeometry relative="1" as="geometry">
            <mxPoint x="1616.5" y="880" as="sourcePoint" />
            <mxPoint x="1616.5" y="836" as="targetPoint" />
          </mxGeometry>
        </mxCell>
        <mxCell id="UhmW7nwp59RxyAtJVQfH-156" style="edgeStyle=none;rounded=1;jumpStyle=none;orthogonalLoop=1;jettySize=auto;html=1;exitX=0.75;exitY=1;exitDx=0;exitDy=0;startArrow=oval;startFill=1;endArrow=oval;endFill=1;strokeColor=#82b366;strokeWidth=2;fillColor=#d5e8d4;" edge="1" parent="1">
          <mxGeometry relative="1" as="geometry">
            <mxPoint x="1418.5" y="880" as="sourcePoint" />
            <mxPoint x="1418.5" y="836" as="targetPoint" />
          </mxGeometry>
        </mxCell>
        <UserObject label="NGINX + nginx-ldap-auth" lucidchartObjectId="HypIE5tfspSB" id="UhmW7nwp59RxyAtJVQfH-157">
          <mxCell style="html=1;overflow=block;blockSpacing=1;whiteSpace=wrap;fontSize=18.3;fontColor=#333333;align=center;spacingLeft=8.4;spacingRight=8.4;spacingTop=2.4;spacing=3.6;verticalAlign=middle;strokeOpacity=0;fillOpacity=100;rounded=1;absoluteArcSize=1;arcSize=12;fillColor=#CACBE8;strokeWidth=0.8;" vertex="1" parent="1">
            <mxGeometry x="1270" y="907" width="150" height="51" as="geometry" />
          </mxCell>
        </UserObject>
        <UserObject label="NGINX + nginx-ldap-auth" lucidchartObjectId="RXpI~8YFsiHd" id="UhmW7nwp59RxyAtJVQfH-158">
          <mxCell style="html=1;overflow=block;blockSpacing=1;whiteSpace=wrap;fontSize=18.3;fontColor=#333333;align=center;spacingLeft=8.4;spacingRight=8.4;spacingTop=2.4;spacing=3.6;verticalAlign=middle;strokeOpacity=0;fillOpacity=100;rounded=1;absoluteArcSize=1;arcSize=12;fillColor=#CACBE8;strokeWidth=0.8;" vertex="1" parent="1">
            <mxGeometry x="1500" y="907" width="150" height="51" as="geometry" />
          </mxCell>
        </UserObject>
        <UserObject label="NGINX + nginx-ldap-auth" lucidchartObjectId="1XpIAn_rVOTK" id="UhmW7nwp59RxyAtJVQfH-159">
          <mxCell style="html=1;overflow=block;blockSpacing=1;whiteSpace=wrap;fontSize=18.3;fontColor=#333333;align=center;spacingLeft=8.4;spacingRight=8.4;spacingTop=2.4;spacing=3.6;verticalAlign=middle;strokeOpacity=0;fillOpacity=100;rounded=1;absoluteArcSize=1;arcSize=12;fillColor=#CACBE8;strokeWidth=0.8;" vertex="1" parent="1">
            <mxGeometry x="1740" y="907" width="150" height="51" as="geometry" />
          </mxCell>
        </UserObject>
        <UserObject label="NGINX + nginx-ldap-auth" lucidchartObjectId="8XpIHrtV3hBn" id="UhmW7nwp59RxyAtJVQfH-160">
          <mxCell style="html=1;overflow=block;blockSpacing=1;whiteSpace=wrap;fontSize=18.3;fontColor=#333333;align=center;spacingLeft=8.4;spacingRight=8.4;spacingTop=2.4;spacing=3.6;verticalAlign=middle;strokeOpacity=0;fillOpacity=100;rounded=1;absoluteArcSize=1;arcSize=12;fillColor=#CACBE8;strokeWidth=0.8;strokeColor=#CACBE8;" vertex="1" parent="1">
            <mxGeometry x="1970" y="907" width="150" height="51" as="geometry" />
          </mxCell>
        </UserObject>
        <mxCell id="UhmW7nwp59RxyAtJVQfH-161" style="edgeStyle=none;rounded=1;jumpStyle=none;orthogonalLoop=1;jettySize=auto;html=1;startArrow=oval;startFill=1;endArrow=oval;endFill=1;strokeColor=#CACBE8;strokeWidth=2;entryX=0.183;entryY=0.994;entryDx=0;entryDy=0;entryPerimeter=0;exitX=0.187;exitY=-0.014;exitDx=0;exitDy=0;exitPerimeter=0;" edge="1" parent="1">
          <mxGeometry relative="1" as="geometry">
            <mxPoint x="1518" y="956" as="targetPoint" />
            <mxPoint x="1518" y="1008" as="sourcePoint" />
          </mxGeometry>
        </mxCell>
        <mxCell id="UhmW7nwp59RxyAtJVQfH-162" style="edgeStyle=none;rounded=1;jumpStyle=none;orthogonalLoop=1;jettySize=auto;html=1;exitX=0.75;exitY=0;exitDx=0;exitDy=0;startArrow=oval;startFill=1;endArrow=oval;endFill=1;strokeColor=#CACBE8;strokeWidth=2;entryX=0.75;entryY=1;entryDx=0;entryDy=0;" edge="1" parent="1">
          <mxGeometry relative="1" as="geometry">
            <mxPoint x="1391" y="956" as="targetPoint" />
            <mxPoint x="1391" y="1009" as="sourcePoint" />
          </mxGeometry>
        </mxCell>
        <mxCell id="UhmW7nwp59RxyAtJVQfH-163" style="edgeStyle=none;rounded=1;jumpStyle=none;orthogonalLoop=1;jettySize=auto;html=1;exitX=0.75;exitY=0;exitDx=0;exitDy=0;startArrow=oval;startFill=1;endArrow=oval;endFill=1;strokeColor=#CACBE8;strokeWidth=2;entryX=0.75;entryY=1;entryDx=0;entryDy=0;" edge="1" parent="1">
          <mxGeometry relative="1" as="geometry">
            <mxPoint x="2085" y="956" as="targetPoint" />
            <mxPoint x="2085" y="1009" as="sourcePoint" />
          </mxGeometry>
        </mxCell>
        <mxCell id="UhmW7nwp59RxyAtJVQfH-164" style="edgeStyle=none;rounded=1;jumpStyle=none;orthogonalLoop=1;jettySize=auto;html=1;startArrow=oval;startFill=1;endArrow=oval;endFill=1;strokeColor=#CACBE8;strokeWidth=2;exitX=0.812;exitY=0.994;exitDx=0;exitDy=0;exitPerimeter=0;entryX=0.815;entryY=-0.014;entryDx=0;entryDy=0;entryPerimeter=0;" edge="1" parent="1">
          <mxGeometry relative="1" as="geometry">
            <mxPoint x="1868" y="1008" as="targetPoint" />
            <mxPoint x="1867" y="956" as="sourcePoint" />
          </mxGeometry>
        </mxCell>
        <mxCell id="UhmW7nwp59RxyAtJVQfH-165" value="" style="endArrow=none;dashed=1;html=1;dashPattern=1 3;strokeWidth=6;rounded=0;entryX=0.818;entryY=0.058;entryDx=0;entryDy=0;entryPerimeter=0;strokeColor=#727272;exitX=0.252;exitY=0.066;exitDx=0;exitDy=0;exitPerimeter=0;" edge="1" parent="1">
          <mxGeometry width="50" height="50" relative="1" as="geometry">
            <mxPoint x="1513.924" y="897.1599999999999" as="sourcePoint" />
            <mxPoint x="1400.916" y="897.0799999999999" as="targetPoint" />
          </mxGeometry>
        </mxCell>
        <mxCell id="UhmW7nwp59RxyAtJVQfH-166" value="" style="endArrow=none;dashed=1;html=1;dashPattern=1 3;strokeWidth=6;rounded=0;entryX=0.818;entryY=0.058;entryDx=0;entryDy=0;entryPerimeter=0;strokeColor=#727272;exitX=0.252;exitY=0.066;exitDx=0;exitDy=0;exitPerimeter=0;" edge="1" parent="1">
          <mxGeometry width="50" height="50" relative="1" as="geometry">
            <mxPoint x="1977.924" y="898.1599999999999" as="sourcePoint" />
            <mxPoint x="1864.916" y="898.0799999999999" as="targetPoint" />
          </mxGeometry>
        </mxCell>
        <mxCell id="UhmW7nwp59RxyAtJVQfH-167" style="edgeStyle=none;rounded=0;jumpStyle=none;orthogonalLoop=1;jettySize=auto;html=1;exitX=0;exitY=0.5;exitDx=0;exitDy=0;entryX=1;entryY=0.5;entryDx=0;entryDy=0;startArrow=none;startFill=0;endArrow=classic;endFill=0;strokeColor=#7DD47D;strokeWidth=2;" edge="1" parent="1" source="UhmW7nwp59RxyAtJVQfH-148" target="UhmW7nwp59RxyAtJVQfH-146">
          <mxGeometry relative="1" as="geometry">
            <mxPoint x="1494" y="1038" as="sourcePoint" />
            <mxPoint x="1447" y="1038" as="targetPoint" />
          </mxGeometry>
        </mxCell>
        <mxCell id="UhmW7nwp59RxyAtJVQfH-168" style="edgeStyle=none;rounded=0;jumpStyle=none;orthogonalLoop=1;jettySize=auto;html=1;exitX=0;exitY=0.5;exitDx=0;exitDy=0;entryX=1;entryY=0.5;entryDx=0;entryDy=0;startArrow=none;startFill=0;endArrow=classic;endFill=0;strokeColor=#7DD47D;strokeWidth=2;" edge="1" parent="1" source="UhmW7nwp59RxyAtJVQfH-150" target="UhmW7nwp59RxyAtJVQfH-148">
          <mxGeometry relative="1" as="geometry">
            <mxPoint x="1719" y="1028" as="sourcePoint" />
            <mxPoint x="1672" y="1028" as="targetPoint" />
          </mxGeometry>
        </mxCell>
        <mxCell id="UhmW7nwp59RxyAtJVQfH-169" value="" style="endArrow=none;html=1;rounded=0;entryX=1.005;entryY=0.341;entryDx=0;entryDy=0;entryPerimeter=0;exitX=0;exitY=0.5;exitDx=0;exitDy=0;strokeColor=#FF0000;strokeWidth=7;" edge="1" parent="1">
          <mxGeometry width="50" height="50" relative="1" as="geometry">
            <mxPoint x="1818.5" y="683.5" as="sourcePoint" />
            <mxPoint x="2031.5" y="726.5" as="targetPoint" />
          </mxGeometry>
        </mxCell>
        <mxCell id="UhmW7nwp59RxyAtJVQfH-170" value="" style="endArrow=none;html=1;rounded=0;exitX=0;exitY=0.5;exitDx=0;exitDy=0;strokeColor=#FF0000;strokeWidth=7;" edge="1" parent="1">
          <mxGeometry width="50" height="50" relative="1" as="geometry">
            <mxPoint x="1818.5" y="683.5" as="sourcePoint" />
            <mxPoint x="2140" y="750" as="targetPoint" />
          </mxGeometry>
        </mxCell>
        <mxCell id="UhmW7nwp59RxyAtJVQfH-171" value="" style="endArrow=none;html=1;rounded=0;strokeColor=#FF0000;strokeWidth=7;" edge="1" parent="1">
          <mxGeometry width="50" height="50" relative="1" as="geometry">
            <mxPoint x="1710" y="660" as="sourcePoint" />
            <mxPoint x="2140" y="750" as="targetPoint" />
          </mxGeometry>
        </mxCell>
        <mxCell id="UhmW7nwp59RxyAtJVQfH-172" value="" style="endArrow=none;html=1;rounded=0;exitX=0;exitY=0.5;exitDx=0;exitDy=0;strokeColor=#FF0000;strokeWidth=7;" edge="1" parent="1">
          <mxGeometry width="50" height="50" relative="1" as="geometry">
            <mxPoint x="1818.5" y="726.5" as="sourcePoint" />
            <mxPoint x="2140" y="670" as="targetPoint" />
          </mxGeometry>
        </mxCell>
        <mxCell id="UhmW7nwp59RxyAtJVQfH-173" value="" style="endArrow=none;html=1;rounded=0;strokeColor=#FF0000;strokeWidth=7;" edge="1" parent="1">
          <mxGeometry width="50" height="50" relative="1" as="geometry">
            <mxPoint x="1710" y="750" as="sourcePoint" />
            <mxPoint x="2140" y="670" as="targetPoint" />
          </mxGeometry>
        </mxCell>
        <mxCell id="UhmW7nwp59RxyAtJVQfH-174" value="&lt;font color=&quot;#ffffff&quot; style=&quot;font-size: 18px;&quot;&gt;&lt;span style=&quot;background-color: rgb(255, 0, 0);&quot;&gt;! ПОЛНЫЙ СБОЙ ПЛОЩАДКИ ! &lt;br&gt;&lt;/span&gt;&lt;/font&gt;" style="rounded=0;whiteSpace=wrap;html=1;fillColor=#FF0000;strokeColor=none;" vertex="1" parent="1">
          <mxGeometry x="1779.5" y="691.5" width="290.5" height="28.5" as="geometry" />
        </mxCell>
        <mxCell id="UhmW7nwp59RxyAtJVQfH-175" value="&lt;div&gt;&lt;font style=&quot;font-size: 10px;&quot; color=&quot;#008000&quot;&gt;Маунт p0-uasp-main&lt;/font&gt;&lt;/div&gt;" style="text;html=1;align=center;verticalAlign=middle;whiteSpace=wrap;rounded=0;fontSize=8;fontColor=#3399FF;fontStyle=1" vertex="1" parent="1">
          <mxGeometry x="940" y="580" width="79" height="31" as="geometry" />
        </mxCell>
        <mxCell id="UhmW7nwp59RxyAtJVQfH-176" value="&lt;font style=&quot;font-size: 10px;&quot; color=&quot;#008000&quot;&gt;Маунт p0-uasp-stand-in&lt;/font&gt;" style="text;html=1;align=center;verticalAlign=middle;whiteSpace=wrap;rounded=0;fontSize=8;fontColor=#3399FF;fontStyle=1" vertex="1" parent="1">
          <mxGeometry x="940" y="790" width="79" height="31" as="geometry" />
        </mxCell>
        <mxCell id="UhmW7nwp59RxyAtJVQfH-177" value="&lt;font style=&quot;font-size: 10px;&quot; color=&quot;#008000&quot;&gt;Маунт p0-uasp-main&lt;/font&gt;" style="text;html=1;align=center;verticalAlign=middle;whiteSpace=wrap;rounded=0;fontSize=8;fontColor=#3399FF;fontStyle=1" vertex="1" parent="1">
          <mxGeometry x="1290" y="580" width="79" height="31" as="geometry" />
        </mxCell>
        <mxCell id="UhmW7nwp59RxyAtJVQfH-178" value="&lt;font style=&quot;font-size: 10px;&quot; color=&quot;#008000&quot;&gt;Маунт p0-uasp-stand-in&lt;/font&gt;" style="text;html=1;align=center;verticalAlign=middle;whiteSpace=wrap;rounded=0;fontSize=8;fontColor=#3399FF;fontStyle=1" vertex="1" parent="1">
          <mxGeometry x="1290" y="790" width="79" height="31" as="geometry" />
        </mxCell>
        <mxCell id="UhmW7nwp59RxyAtJVQfH-179" value="" style="edgeStyle=orthogonalEdgeStyle;rounded=0;orthogonalLoop=1;jettySize=auto;html=1;" edge="1" parent="1" source="UhmW7nwp59RxyAtJVQfH-181" target="UhmW7nwp59RxyAtJVQfH-19">
          <mxGeometry relative="1" as="geometry">
            <Array as="points">
              <mxPoint x="1025" y="723" />
              <mxPoint x="1025" y="730" />
            </Array>
          </mxGeometry>
        </mxCell>
        <mxCell id="UhmW7nwp59RxyAtJVQfH-180" value="" style="edgeStyle=orthogonalEdgeStyle;rounded=0;orthogonalLoop=1;jettySize=auto;html=1;exitX=1;exitY=0.5;exitDx=0;exitDy=0;" edge="1" parent="1" source="UhmW7nwp59RxyAtJVQfH-2" target="UhmW7nwp59RxyAtJVQfH-139">
          <mxGeometry relative="1" as="geometry">
            <mxPoint x="1260" y="723" as="sourcePoint" />
            <Array as="points">
              <mxPoint x="1272" y="723" />
              <mxPoint x="1272" y="730" />
            </Array>
          </mxGeometry>
        </mxCell>
        <UserObject label="proxy с fail-over" lucidchartObjectId="8XpIHrtV3hBn" id="UhmW7nwp59RxyAtJVQfH-181">
          <mxCell style="html=1;overflow=block;blockSpacing=1;whiteSpace=wrap;fontSize=18.3;fontColor=#333333;align=center;spacingLeft=8.4;spacingRight=8.4;spacingTop=2.4;spacing=3.6;verticalAlign=middle;strokeOpacity=0;fillOpacity=100;rounded=1;absoluteArcSize=1;arcSize=12;fillColor=#CACBE8;strokeWidth=0.8;strokeColor=#CACBE8;" vertex="1" parent="1">
            <mxGeometry x="1040" y="697.25" width="100" height="51" as="geometry" />
          </mxCell>
        </UserObject>
        <mxCell id="UhmW7nwp59RxyAtJVQfH-182" style="edgeStyle=none;rounded=1;jumpStyle=none;orthogonalLoop=1;jettySize=auto;html=1;startArrow=oval;startFill=1;endArrow=oval;endFill=1;strokeColor=#82b366;strokeWidth=2;fillColor=#d5e8d4;entryX=0.644;entryY=0.033;entryDx=0;entryDy=0;entryPerimeter=0;" edge="1" parent="1" target="UhmW7nwp59RxyAtJVQfH-181">
          <mxGeometry relative="1" as="geometry">
            <Array as="points">
              <mxPoint x="293" y="572" />
              <mxPoint x="1105" y="572" />
            </Array>
            <mxPoint x="293" y="528" as="sourcePoint" />
            <mxPoint x="1105" y="690" as="targetPoint" />
          </mxGeometry>
        </mxCell>
        <mxCell id="UhmW7nwp59RxyAtJVQfH-183" style="edgeStyle=none;rounded=1;jumpStyle=none;orthogonalLoop=1;jettySize=auto;html=1;startArrow=oval;startFill=1;endArrow=oval;endFill=1;strokeColor=#82b366;strokeWidth=2;fillColor=#d5e8d4;entryX=0.404;entryY=0.031;entryDx=0;entryDy=0;entryPerimeter=0;" edge="1" parent="1" target="UhmW7nwp59RxyAtJVQfH-2">
          <mxGeometry relative="1" as="geometry">
            <Array as="points">
              <mxPoint x="2010.12" y="572" />
              <mxPoint x="1196" y="572" />
            </Array>
            <mxPoint x="2010.12" y="528" as="sourcePoint" />
            <mxPoint x="1196" y="680" as="targetPoint" />
          </mxGeometry>
        </mxCell>
        <mxCell id="UhmW7nwp59RxyAtJVQfH-184" style="edgeStyle=none;rounded=1;jumpStyle=none;orthogonalLoop=1;jettySize=auto;html=1;startArrow=oval;startFill=1;endArrow=oval;endFill=1;strokeColor=#82b366;strokeWidth=2;fillColor=#d5e8d4;" edge="1" parent="1">
          <mxGeometry relative="1" as="geometry">
            <Array as="points">
              <mxPoint x="293" y="836" />
              <mxPoint x="1105" y="836" />
            </Array>
            <mxPoint x="293" y="880" as="sourcePoint" />
            <mxPoint x="1105" y="750" as="targetPoint" />
          </mxGeometry>
        </mxCell>
        <mxCell id="UhmW7nwp59RxyAtJVQfH-185" style="edgeStyle=none;rounded=1;jumpStyle=none;orthogonalLoop=1;jettySize=auto;html=1;startArrow=oval;startFill=1;endArrow=oval;endFill=1;strokeColor=#82b366;strokeWidth=2;fillColor=#d5e8d4;" edge="1" parent="1">
          <mxGeometry relative="1" as="geometry">
            <Array as="points">
              <mxPoint x="2010" y="836" />
              <mxPoint x="1196" y="836" />
            </Array>
            <mxPoint x="2010" y="880" as="sourcePoint" />
            <mxPoint x="1196" y="750" as="targetPoint" />
          </mxGeometry>
        </mxCell>
        <mxCell id="UhmW7nwp59RxyAtJVQfH-186" value="ДО" style="text;strokeColor=#B20000;fillColor=#e51400;html=1;fontSize=15;fontStyle=1;verticalAlign=middle;align=center;fontColor=#ffffff;" vertex="1" parent="1">
          <mxGeometry x="1050" y="210" width="80" height="40" as="geometry" />
        </mxCell>
        <mxCell id="UhmW7nwp59RxyAtJVQfH-187" value="ПОСЛЕ" style="text;strokeColor=#B20000;fillColor=#e51400;html=1;fontSize=15;fontStyle=1;verticalAlign=middle;align=center;fontColor=#ffffff;" vertex="1" parent="1">
          <mxGeometry x="1169" y="210" width="80" height="40" as="geometry" />
        </mxCell>
        <mxCell id="UhmW7nwp59RxyAtJVQfH-188" value="" style="endArrow=none;dashed=1;html=1;strokeWidth=4;rounded=0;fillColor=#e51400;strokeColor=#B20000;curved=0;" edge="1" parent="1">
          <mxGeometry width="50" height="50" relative="1" as="geometry">
            <mxPoint x="1151" y="112" as="sourcePoint" />
            <mxPoint x="1151.9790575916231" y="-823" as="targetPoint" />
          </mxGeometry>
        </mxCell>
        <mxCell id="UhmW7nwp59RxyAtJVQfH-189" value="" style="endArrow=none;dashed=1;html=1;dashPattern=1 3;strokeWidth=2;rounded=0;" edge="1" parent="1">
          <mxGeometry width="50" height="50" relative="1" as="geometry">
            <mxPoint x="597" y="102" as="sourcePoint" />
            <mxPoint x="598" y="-853" as="targetPoint" />
          </mxGeometry>
        </mxCell>
        <UserObject label="Server 1" lucidchartObjectId="HypIMii0T2fg" id="UhmW7nwp59RxyAtJVQfH-190">
          <mxCell style="html=1;overflow=block;blockSpacing=1;whiteSpace=wrap;fontSize=18.3;fontColor=#333333;fontStyle=1;spacingLeft=8.4;spacingRight=8.4;spacingTop=2.4;spacing=3.6;verticalAlign=top;strokeOpacity=0;fillOpacity=100;rounded=1;absoluteArcSize=1;arcSize=12;fillColor=#ffdda6;strokeWidth=0.8;" vertex="1" parent="1">
            <mxGeometry x="144.5" y="-798" width="212" height="256" as="geometry" />
          </mxCell>
        </UserObject>
        <UserObject label="Server N" lucidchartObjectId="kbqIFTrSSb0c" id="UhmW7nwp59RxyAtJVQfH-191">
          <mxCell style="html=1;overflow=block;blockSpacing=1;whiteSpace=wrap;fontSize=18.3;fontColor=#333333;fontStyle=1;spacingLeft=8.4;spacingRight=8.4;spacingTop=2.4;spacing=3.6;verticalAlign=top;strokeOpacity=0;fillOpacity=100;rounded=1;absoluteArcSize=1;arcSize=12;fillColor=#ffdda6;strokeWidth=0.8;" vertex="1" parent="1">
            <mxGeometry x="374.5" y="-798" width="212" height="256" as="geometry" />
          </mxCell>
        </UserObject>
        <UserObject label="Server 1" lucidchartObjectId="kgqIT20~Yh46" id="UhmW7nwp59RxyAtJVQfH-192">
          <mxCell style="html=1;overflow=block;blockSpacing=1;whiteSpace=wrap;fontSize=18.3;fontColor=#333333;fontStyle=1;spacingLeft=8.4;spacingRight=8.4;spacingTop=2.4;spacing=3.6;verticalAlign=top;strokeOpacity=0;fillOpacity=100;rounded=1;absoluteArcSize=1;arcSize=12;fillColor=#ffdda6;strokeWidth=0.8;" vertex="1" parent="1">
            <mxGeometry x="608.5" y="-798" width="212" height="256" as="geometry" />
          </mxCell>
        </UserObject>
        <UserObject label="Server N" lucidchartObjectId="NgqIsRjEYktH" id="UhmW7nwp59RxyAtJVQfH-193">
          <mxCell style="html=1;overflow=block;blockSpacing=1;whiteSpace=wrap;fontSize=18.3;fontColor=#333333;fontStyle=1;spacingLeft=8.4;spacingRight=8.4;spacingTop=2.4;spacing=3.6;verticalAlign=top;strokeOpacity=0;fillOpacity=100;rounded=1;absoluteArcSize=1;arcSize=12;fillColor=#ffdda6;strokeWidth=0.8;" vertex="1" parent="1">
            <mxGeometry x="838.5" y="-798" width="212" height="256" as="geometry" />
          </mxCell>
        </UserObject>
        <UserObject label="&lt;div style=&quot;line-height: 0.9;&quot;&gt;Кластер Apache Flink&lt;br&gt;&lt;/div&gt;&lt;div&gt;&lt;sup&gt;&lt;font style=&quot;font-size: 10px;&quot;&gt;MAIN&lt;/font&gt;&lt;/sup&gt;&lt;/div&gt;" lucidchartObjectId="WnqImOF1_m_N" id="UhmW7nwp59RxyAtJVQfH-194">
          <mxCell style="html=1;overflow=block;blockSpacing=1;whiteSpace=wrap;fontSize=20;fontColor=#ffffff;fontStyle=1;spacingLeft=8.4;spacingRight=8.4;spacingTop=2.4;spacing=3.6;verticalAlign=top;strokeOpacity=0;fillOpacity=100;rounded=1;absoluteArcSize=1;arcSize=12;fillColor=#8b90ff;strokeWidth=0.8;" vertex="1" parent="1">
            <mxGeometry x="133" y="-713" width="929" height="164" as="geometry" />
          </mxCell>
        </UserObject>
        <UserObject label="&lt;div&gt;JOBMANAGER&lt;/div&gt;&lt;div&gt;&lt;font color=&quot;#33ff33&quot; style=&quot;font-size: 14px;&quot;&gt;&lt;b&gt;Leader&lt;/b&gt;&lt;/font&gt;&lt;/div&gt;" lucidchartObjectId="HypInYoTSrlu" id="UhmW7nwp59RxyAtJVQfH-195">
          <mxCell style="html=1;overflow=block;blockSpacing=1;whiteSpace=wrap;fontSize=18.3;fontColor=#ffffff;align=center;spacingLeft=8.4;spacingRight=8.4;spacingTop=2.4;spacing=3.6;strokeOpacity=0;fillOpacity=100;rounded=1;absoluteArcSize=1;arcSize=12;fillColor=#636aff;strokeWidth=0.8;" vertex="1" parent="1">
            <mxGeometry x="159" y="-669" width="184" height="48" as="geometry" />
          </mxCell>
        </UserObject>
        <UserObject label="TASKMANAGER" lucidchartObjectId="HypIgOagNPgA" id="UhmW7nwp59RxyAtJVQfH-196">
          <mxCell style="html=1;overflow=block;blockSpacing=1;whiteSpace=wrap;fontSize=18.3;fontColor=#ffffff;align=center;spacingLeft=8.4;spacingRight=8.4;spacingTop=2.4;spacing=3.6;strokeOpacity=0;fillOpacity=100;rounded=1;absoluteArcSize=1;arcSize=12;fillColor=#636aff;strokeWidth=0.8;" vertex="1" parent="1">
            <mxGeometry x="159" y="-605" width="184" height="48" as="geometry" />
          </mxCell>
        </UserObject>
        <UserObject label="JOBMANAGER&lt;br&gt;&lt;font style=&quot;font-size: 14px;&quot;&gt;Standby&lt;/font&gt;" lucidchartObjectId="RXpI0It2jUcH" id="UhmW7nwp59RxyAtJVQfH-197">
          <mxCell style="html=1;overflow=block;blockSpacing=1;whiteSpace=wrap;fontSize=18.3;fontColor=#ffffff;align=center;spacingLeft=8.4;spacingRight=8.4;spacingTop=2.4;spacing=3.6;strokeOpacity=0;fillOpacity=100;rounded=1;absoluteArcSize=1;arcSize=12;fillColor=#636aff;strokeWidth=0.8;" vertex="1" parent="1">
            <mxGeometry x="390" y="-669" width="184" height="48" as="geometry" />
          </mxCell>
        </UserObject>
        <UserObject label="TASKMANAGER" lucidchartObjectId="RXpIgnX.f~PW" id="UhmW7nwp59RxyAtJVQfH-198">
          <mxCell style="html=1;overflow=block;blockSpacing=1;whiteSpace=wrap;fontSize=18.3;fontColor=#ffffff;align=center;spacingLeft=8.4;spacingRight=8.4;spacingTop=2.4;spacing=3.6;strokeOpacity=0;fillOpacity=100;rounded=1;absoluteArcSize=1;arcSize=12;fillColor=#636aff;strokeWidth=0.8;" vertex="1" parent="1">
            <mxGeometry x="390" y="-605" width="184" height="48" as="geometry" />
          </mxCell>
        </UserObject>
        <UserObject label="JOBMANAGER&lt;br&gt;&lt;font style=&quot;font-size: 14px;&quot;&gt;Standby&lt;/font&gt;" lucidchartObjectId="1XpI324HXPmj" id="UhmW7nwp59RxyAtJVQfH-199">
          <mxCell style="html=1;overflow=block;blockSpacing=1;whiteSpace=wrap;fontSize=18.3;fontColor=#ffffff;align=center;spacingLeft=8.4;spacingRight=8.4;spacingTop=2.4;spacing=3.6;strokeOpacity=0;fillOpacity=100;rounded=1;absoluteArcSize=1;arcSize=12;fillColor=#636aff;strokeWidth=0.8;" vertex="1" parent="1">
            <mxGeometry x="624" y="-669" width="184" height="48" as="geometry" />
          </mxCell>
        </UserObject>
        <UserObject label="TASKMANAGER" lucidchartObjectId="1XpItajlC~17" id="UhmW7nwp59RxyAtJVQfH-200">
          <mxCell style="html=1;overflow=block;blockSpacing=1;whiteSpace=wrap;fontSize=18.3;fontColor=#ffffff;align=center;spacingLeft=8.4;spacingRight=8.4;spacingTop=2.4;spacing=3.6;strokeOpacity=0;fillOpacity=100;rounded=1;absoluteArcSize=1;arcSize=12;fillColor=#636aff;strokeWidth=0.8;" vertex="1" parent="1">
            <mxGeometry x="624" y="-605" width="184" height="48" as="geometry" />
          </mxCell>
        </UserObject>
        <UserObject label="HISTORYSERVER" lucidchartObjectId="8XpIVe4FQzVd" id="UhmW7nwp59RxyAtJVQfH-201">
          <mxCell style="html=1;overflow=block;blockSpacing=1;whiteSpace=wrap;fontSize=18.3;fontColor=#ffffff;align=center;spacingLeft=8.4;spacingRight=8.4;spacingTop=2.4;spacing=3.6;strokeOpacity=0;fillOpacity=100;rounded=1;absoluteArcSize=1;arcSize=12;fillColor=#636aff;strokeWidth=0.8;" vertex="1" parent="1">
            <mxGeometry x="853" y="-669" width="184" height="48" as="geometry" />
          </mxCell>
        </UserObject>
        <UserObject label="TASKMANAGER" lucidchartObjectId="8XpI6pTr3cQC" id="UhmW7nwp59RxyAtJVQfH-202">
          <mxCell style="html=1;overflow=block;blockSpacing=1;whiteSpace=wrap;fontSize=18.3;fontColor=#ffffff;align=center;spacingLeft=8.4;spacingRight=8.4;spacingTop=2.4;spacing=3.6;strokeOpacity=0;fillOpacity=100;rounded=1;absoluteArcSize=1;arcSize=12;fillColor=#636aff;strokeWidth=0.8;" vertex="1" parent="1">
            <mxGeometry x="853" y="-605" width="184" height="48" as="geometry" />
          </mxCell>
        </UserObject>
        <mxCell id="UhmW7nwp59RxyAtJVQfH-203" style="edgeStyle=none;rounded=1;jumpStyle=none;orthogonalLoop=1;jettySize=auto;html=1;exitX=0.75;exitY=1;exitDx=0;exitDy=0;startArrow=oval;startFill=1;endArrow=oval;endFill=1;strokeColor=#82b366;strokeWidth=2;fillColor=#d5e8d4;" edge="1" parent="1">
          <mxGeometry relative="1" as="geometry">
            <mxPoint x="899" y="-540" as="sourcePoint" />
            <mxPoint x="899" y="-496" as="targetPoint" />
          </mxGeometry>
        </mxCell>
        <mxCell id="UhmW7nwp59RxyAtJVQfH-204" style="edgeStyle=none;rounded=1;jumpStyle=none;orthogonalLoop=1;jettySize=auto;html=1;exitX=0.75;exitY=1;exitDx=0;exitDy=0;startArrow=oval;startFill=1;endArrow=oval;endFill=1;strokeColor=#82b366;strokeWidth=2;fillColor=#d5e8d4;" edge="1" parent="1">
          <mxGeometry relative="1" as="geometry">
            <mxPoint x="697" y="-540" as="sourcePoint" />
            <mxPoint x="697" y="-496" as="targetPoint" />
          </mxGeometry>
        </mxCell>
        <mxCell id="UhmW7nwp59RxyAtJVQfH-205" style="edgeStyle=none;rounded=1;jumpStyle=none;orthogonalLoop=1;jettySize=auto;html=1;exitX=0.75;exitY=1;exitDx=0;exitDy=0;startArrow=oval;startFill=1;endArrow=oval;endFill=1;strokeColor=#82b366;strokeWidth=2;fillColor=#d5e8d4;" edge="1" parent="1">
          <mxGeometry relative="1" as="geometry">
            <mxPoint x="499" y="-540" as="sourcePoint" />
            <mxPoint x="499" y="-496" as="targetPoint" />
          </mxGeometry>
        </mxCell>
        <UserObject label="Replicator" lucidchartObjectId="HypIE5tfspSB" id="UhmW7nwp59RxyAtJVQfH-206">
          <mxCell style="html=1;overflow=block;blockSpacing=1;whiteSpace=wrap;fontSize=18.3;fontColor=#333333;align=center;spacingLeft=8.4;spacingRight=8.4;spacingTop=2.4;spacing=3.6;verticalAlign=middle;strokeOpacity=0;fillOpacity=100;rounded=1;absoluteArcSize=1;arcSize=12;fillColor=#CACBE8;strokeWidth=0.8;" vertex="1" parent="1">
            <mxGeometry x="158.5" y="-771" width="184" height="51" as="geometry" />
          </mxCell>
        </UserObject>
        <UserObject label="Data Syncronizer" lucidchartObjectId="RXpI~8YFsiHd" id="UhmW7nwp59RxyAtJVQfH-207">
          <mxCell style="html=1;overflow=block;blockSpacing=1;whiteSpace=wrap;fontSize=18.3;fontColor=#333333;align=center;spacingLeft=8.4;spacingRight=8.4;spacingTop=2.4;spacing=3.6;verticalAlign=middle;strokeOpacity=0;fillOpacity=100;rounded=1;absoluteArcSize=1;arcSize=12;fillColor=#CACBE8;strokeWidth=0.8;" vertex="1" parent="1">
            <mxGeometry x="389.5" y="-771" width="184" height="51" as="geometry" />
          </mxCell>
        </UserObject>
        <UserObject label="Calculator / Processor" lucidchartObjectId="1XpIAn_rVOTK" id="UhmW7nwp59RxyAtJVQfH-208">
          <mxCell style="html=1;overflow=block;blockSpacing=1;whiteSpace=wrap;fontSize=18.3;fontColor=#333333;align=center;spacingLeft=8.4;spacingRight=8.4;spacingTop=2.4;spacing=3.6;verticalAlign=middle;strokeOpacity=0;fillOpacity=100;rounded=1;absoluteArcSize=1;arcSize=12;fillColor=#CACBE8;strokeWidth=0.8;" vertex="1" parent="1">
            <mxGeometry x="623.5" y="-771" width="184" height="51" as="geometry" />
          </mxCell>
        </UserObject>
        <UserObject label="Model Inference" lucidchartObjectId="8XpIHrtV3hBn" id="UhmW7nwp59RxyAtJVQfH-209">
          <mxCell style="html=1;overflow=block;blockSpacing=1;whiteSpace=wrap;fontSize=18.3;fontColor=#333333;align=center;spacingLeft=8.4;spacingRight=8.4;spacingTop=2.4;spacing=3.6;verticalAlign=middle;strokeOpacity=0;fillOpacity=100;rounded=1;absoluteArcSize=1;arcSize=12;fillColor=#CACBE8;strokeWidth=0.8;strokeColor=#CACBE8;" vertex="1" parent="1">
            <mxGeometry x="852.5" y="-771" width="184" height="51" as="geometry" />
          </mxCell>
        </UserObject>
        <mxCell id="UhmW7nwp59RxyAtJVQfH-210" style="edgeStyle=none;rounded=1;jumpStyle=none;orthogonalLoop=1;jettySize=auto;html=1;startArrow=oval;startFill=1;endArrow=oval;endFill=1;strokeColor=#CACBE8;strokeWidth=2;entryX=0.183;entryY=0.994;entryDx=0;entryDy=0;entryPerimeter=0;" edge="1" parent="1">
          <mxGeometry relative="1" as="geometry">
            <mxPoint x="421" y="-722" as="targetPoint" />
            <mxPoint x="421" y="-690" as="sourcePoint" />
          </mxGeometry>
        </mxCell>
        <mxCell id="UhmW7nwp59RxyAtJVQfH-211" style="edgeStyle=none;rounded=1;jumpStyle=none;orthogonalLoop=1;jettySize=auto;html=1;startArrow=oval;startFill=1;endArrow=oval;endFill=1;strokeColor=#CACBE8;strokeWidth=2;entryX=0.75;entryY=1;entryDx=0;entryDy=0;" edge="1" parent="1">
          <mxGeometry relative="1" as="geometry">
            <mxPoint x="294" y="-722" as="targetPoint" />
            <mxPoint x="294" y="-700" as="sourcePoint" />
          </mxGeometry>
        </mxCell>
        <mxCell id="UhmW7nwp59RxyAtJVQfH-212" style="edgeStyle=none;rounded=1;jumpStyle=none;orthogonalLoop=1;jettySize=auto;html=1;startArrow=oval;startFill=1;endArrow=oval;endFill=1;strokeColor=#CACBE8;strokeWidth=2;entryX=0.75;entryY=1;entryDx=0;entryDy=0;" edge="1" parent="1">
          <mxGeometry relative="1" as="geometry">
            <mxPoint x="988" y="-722" as="targetPoint" />
            <mxPoint x="988" y="-700" as="sourcePoint" />
          </mxGeometry>
        </mxCell>
        <mxCell id="UhmW7nwp59RxyAtJVQfH-213" style="edgeStyle=none;rounded=1;jumpStyle=none;orthogonalLoop=1;jettySize=auto;html=1;startArrow=oval;startFill=1;endArrow=oval;endFill=1;strokeColor=#CACBE8;strokeWidth=2;exitX=0.812;exitY=0.994;exitDx=0;exitDy=0;exitPerimeter=0;" edge="1" parent="1">
          <mxGeometry relative="1" as="geometry">
            <mxPoint x="770" y="-690" as="targetPoint" />
            <mxPoint x="770" y="-722" as="sourcePoint" />
          </mxGeometry>
        </mxCell>
        <mxCell id="UhmW7nwp59RxyAtJVQfH-214" value="&lt;b style=&quot;font-size: 24px;&quot;&gt;DC1&lt;/b&gt;" style="rounded=0;whiteSpace=wrap;html=1;fontSize=24;" vertex="1" parent="1">
          <mxGeometry x="328" y="-868" width="100" height="40" as="geometry" />
        </mxCell>
        <mxCell id="UhmW7nwp59RxyAtJVQfH-215" value="&lt;b style=&quot;font-size: 24px;&quot;&gt;DC2&lt;/b&gt;" style="rounded=0;whiteSpace=wrap;html=1;fontSize=24;" vertex="1" parent="1">
          <mxGeometry x="778" y="-868" width="100" height="40" as="geometry" />
        </mxCell>
        <mxCell id="UhmW7nwp59RxyAtJVQfH-216" value="" style="endArrow=none;dashed=1;html=1;dashPattern=1 3;strokeWidth=6;rounded=0;entryX=0.818;entryY=0.058;entryDx=0;entryDy=0;entryPerimeter=0;strokeColor=#727272;exitX=0.252;exitY=0.066;exitDx=0;exitDy=0;exitPerimeter=0;" edge="1" parent="1">
          <mxGeometry width="50" height="50" relative="1" as="geometry">
            <mxPoint x="416.924" y="-780.8400000000001" as="sourcePoint" />
            <mxPoint x="303.91599999999994" y="-780.9200000000001" as="targetPoint" />
          </mxGeometry>
        </mxCell>
        <mxCell id="UhmW7nwp59RxyAtJVQfH-217" value="" style="endArrow=none;dashed=1;html=1;dashPattern=1 3;strokeWidth=6;rounded=0;entryX=0.818;entryY=0.058;entryDx=0;entryDy=0;entryPerimeter=0;strokeColor=#727272;exitX=0.252;exitY=0.066;exitDx=0;exitDy=0;exitPerimeter=0;" edge="1" parent="1">
          <mxGeometry width="50" height="50" relative="1" as="geometry">
            <mxPoint x="880.924" y="-779.8400000000001" as="sourcePoint" />
            <mxPoint x="767.9159999999999" y="-779.9200000000001" as="targetPoint" />
          </mxGeometry>
        </mxCell>
        <mxCell id="UhmW7nwp59RxyAtJVQfH-218" style="edgeStyle=none;rounded=0;jumpStyle=none;orthogonalLoop=1;jettySize=auto;html=1;exitX=1;exitY=0.5;exitDx=0;exitDy=0;entryX=0;entryY=0.5;entryDx=0;entryDy=0;startArrow=none;startFill=0;endArrow=classic;endFill=0;strokeColor=#7DD47D;strokeWidth=2;" edge="1" parent="1" source="UhmW7nwp59RxyAtJVQfH-195" target="UhmW7nwp59RxyAtJVQfH-197">
          <mxGeometry relative="1" as="geometry">
            <mxPoint x="350" y="-640" as="sourcePoint" />
            <mxPoint x="397" y="-640" as="targetPoint" />
          </mxGeometry>
        </mxCell>
        <mxCell id="UhmW7nwp59RxyAtJVQfH-219" style="edgeStyle=none;rounded=0;jumpStyle=none;orthogonalLoop=1;jettySize=auto;html=1;exitX=1;exitY=0.5;exitDx=0;exitDy=0;entryX=0;entryY=0.5;entryDx=0;entryDy=0;startArrow=none;startFill=0;endArrow=classic;endFill=0;strokeColor=#7DD47D;strokeWidth=2;" edge="1" parent="1" source="UhmW7nwp59RxyAtJVQfH-197" target="UhmW7nwp59RxyAtJVQfH-199">
          <mxGeometry relative="1" as="geometry">
            <mxPoint x="575" y="-650" as="sourcePoint" />
            <mxPoint x="622" y="-650" as="targetPoint" />
          </mxGeometry>
        </mxCell>
        <UserObject label="Server 1" lucidchartObjectId="HypIMii0T2fg" id="UhmW7nwp59RxyAtJVQfH-220">
          <mxCell style="html=1;overflow=block;blockSpacing=1;whiteSpace=wrap;fontSize=18.3;fontColor=#333333;fontStyle=1;spacingLeft=8.4;spacingRight=8.4;spacingTop=2.4;spacing=3.6;verticalAlign=top;strokeOpacity=0;fillOpacity=100;rounded=1;absoluteArcSize=1;arcSize=12;fillColor=#ffdda6;strokeWidth=0.8;" vertex="1" parent="1">
            <mxGeometry x="144.5" y="-188" width="212" height="256" as="geometry" />
          </mxCell>
        </UserObject>
        <UserObject label="Server N" lucidchartObjectId="kbqIFTrSSb0c" id="UhmW7nwp59RxyAtJVQfH-221">
          <mxCell style="html=1;overflow=block;blockSpacing=1;whiteSpace=wrap;fontSize=18.3;fontColor=#333333;fontStyle=1;spacingLeft=8.4;spacingRight=8.4;spacingTop=2.4;spacing=3.6;verticalAlign=top;strokeOpacity=0;fillOpacity=100;rounded=1;absoluteArcSize=1;arcSize=12;fillColor=#ffdda6;strokeWidth=0.8;" vertex="1" parent="1">
            <mxGeometry x="374.5" y="-188" width="212" height="256" as="geometry" />
          </mxCell>
        </UserObject>
        <UserObject label="Server 1" lucidchartObjectId="kgqIT20~Yh46" id="UhmW7nwp59RxyAtJVQfH-222">
          <mxCell style="html=1;overflow=block;blockSpacing=1;whiteSpace=wrap;fontSize=18.3;fontColor=#333333;fontStyle=1;spacingLeft=8.4;spacingRight=8.4;spacingTop=2.4;spacing=3.6;verticalAlign=top;strokeOpacity=0;fillOpacity=100;rounded=1;absoluteArcSize=1;arcSize=12;fillColor=#ffdda6;strokeWidth=0.8;" vertex="1" parent="1">
            <mxGeometry x="608.5" y="-188" width="212" height="256" as="geometry" />
          </mxCell>
        </UserObject>
        <UserObject label="Server N" lucidchartObjectId="NgqIsRjEYktH" id="UhmW7nwp59RxyAtJVQfH-223">
          <mxCell style="html=1;overflow=block;blockSpacing=1;whiteSpace=wrap;fontSize=18.3;fontColor=#333333;fontStyle=1;spacingLeft=8.4;spacingRight=8.4;spacingTop=2.4;spacing=3.6;verticalAlign=top;strokeOpacity=0;fillOpacity=100;rounded=1;absoluteArcSize=1;arcSize=12;fillColor=#ffdda6;strokeWidth=0.8;" vertex="1" parent="1">
            <mxGeometry x="838.5" y="-188" width="212" height="256" as="geometry" />
          </mxCell>
        </UserObject>
        <UserObject label="&lt;div style=&quot;line-height: 0.9;&quot;&gt;Кластер Apache Flink&lt;br&gt;&lt;/div&gt;&lt;div&gt;&lt;sup&gt;&lt;font style=&quot;font-size: 10px;&quot;&gt;STAND-IN&lt;/font&gt;&lt;/sup&gt;&lt;/div&gt;" lucidchartObjectId="WnqImOF1_m_N" id="UhmW7nwp59RxyAtJVQfH-224">
          <mxCell style="html=1;overflow=block;blockSpacing=1;whiteSpace=wrap;fontSize=20;fontColor=#ffffff;fontStyle=1;spacingLeft=8.4;spacingRight=8.4;spacingTop=2.4;spacing=3.6;verticalAlign=top;strokeOpacity=0;fillOpacity=100;rounded=1;absoluteArcSize=1;arcSize=12;fillColor=#8b90ff;strokeWidth=0.8;" vertex="1" parent="1">
            <mxGeometry x="133" y="-103" width="929" height="164" as="geometry" />
          </mxCell>
        </UserObject>
        <UserObject label="&lt;div&gt;JOBMANAGER&lt;/div&gt;&lt;div&gt;&lt;font style=&quot;font-size: 14px;&quot;&gt;Standby&lt;/font&gt;&lt;/div&gt;" lucidchartObjectId="HypInYoTSrlu" id="UhmW7nwp59RxyAtJVQfH-225">
          <mxCell style="html=1;overflow=block;blockSpacing=1;whiteSpace=wrap;fontSize=18.3;fontColor=#ffffff;align=center;spacingLeft=8.4;spacingRight=8.4;spacingTop=2.4;spacing=3.6;strokeOpacity=0;fillOpacity=100;rounded=1;absoluteArcSize=1;arcSize=12;fillColor=#636aff;strokeWidth=0.8;" vertex="1" parent="1">
            <mxGeometry x="159" y="-59" width="184" height="48" as="geometry" />
          </mxCell>
        </UserObject>
        <UserObject label="TASKMANAGER" lucidchartObjectId="HypIgOagNPgA" id="UhmW7nwp59RxyAtJVQfH-226">
          <mxCell style="html=1;overflow=block;blockSpacing=1;whiteSpace=wrap;fontSize=18.3;fontColor=#ffffff;align=center;spacingLeft=8.4;spacingRight=8.4;spacingTop=2.4;spacing=3.6;strokeOpacity=0;fillOpacity=100;rounded=1;absoluteArcSize=1;arcSize=12;fillColor=#636aff;strokeWidth=0.8;" vertex="1" parent="1">
            <mxGeometry x="159" y="5" width="184" height="48" as="geometry" />
          </mxCell>
        </UserObject>
        <UserObject label="&lt;div&gt;JOBMANAGER&lt;/div&gt;&lt;div&gt;&lt;font style=&quot;font-size: 14px;&quot;&gt;Standby&lt;/font&gt;&lt;/div&gt;" lucidchartObjectId="RXpI0It2jUcH" id="UhmW7nwp59RxyAtJVQfH-227">
          <mxCell style="html=1;overflow=block;blockSpacing=1;whiteSpace=wrap;fontSize=18.3;fontColor=#ffffff;align=center;spacingLeft=8.4;spacingRight=8.4;spacingTop=2.4;spacing=3.6;strokeOpacity=0;fillOpacity=100;rounded=1;absoluteArcSize=1;arcSize=12;fillColor=#636aff;strokeWidth=0.8;" vertex="1" parent="1">
            <mxGeometry x="390" y="-59" width="184" height="48" as="geometry" />
          </mxCell>
        </UserObject>
        <UserObject label="TASKMANAGER" lucidchartObjectId="RXpIgnX.f~PW" id="UhmW7nwp59RxyAtJVQfH-228">
          <mxCell style="html=1;overflow=block;blockSpacing=1;whiteSpace=wrap;fontSize=18.3;fontColor=#ffffff;align=center;spacingLeft=8.4;spacingRight=8.4;spacingTop=2.4;spacing=3.6;strokeOpacity=0;fillOpacity=100;rounded=1;absoluteArcSize=1;arcSize=12;fillColor=#636aff;strokeWidth=0.8;" vertex="1" parent="1">
            <mxGeometry x="390" y="5" width="184" height="48" as="geometry" />
          </mxCell>
        </UserObject>
        <UserObject label="JOBMANAGER&lt;font color=&quot;#33ff33&quot; style=&quot;font-size: 14px;&quot;&gt;&lt;b&gt;&lt;br&gt;Leader&lt;/b&gt;&lt;/font&gt;" lucidchartObjectId="1XpI324HXPmj" id="UhmW7nwp59RxyAtJVQfH-229">
          <mxCell style="html=1;overflow=block;blockSpacing=1;whiteSpace=wrap;fontSize=18.3;fontColor=#ffffff;align=center;spacingLeft=8.4;spacingRight=8.4;spacingTop=2.4;spacing=3.6;strokeOpacity=0;fillOpacity=100;rounded=1;absoluteArcSize=1;arcSize=12;fillColor=#636aff;strokeWidth=0.8;" vertex="1" parent="1">
            <mxGeometry x="624" y="-59" width="184" height="48" as="geometry" />
          </mxCell>
        </UserObject>
        <UserObject label="TASKMANAGER" lucidchartObjectId="1XpItajlC~17" id="UhmW7nwp59RxyAtJVQfH-230">
          <mxCell style="html=1;overflow=block;blockSpacing=1;whiteSpace=wrap;fontSize=18.3;fontColor=#ffffff;align=center;spacingLeft=8.4;spacingRight=8.4;spacingTop=2.4;spacing=3.6;strokeOpacity=0;fillOpacity=100;rounded=1;absoluteArcSize=1;arcSize=12;fillColor=#636aff;strokeWidth=0.8;" vertex="1" parent="1">
            <mxGeometry x="624" y="5" width="184" height="48" as="geometry" />
          </mxCell>
        </UserObject>
        <UserObject label="HISTORYSERVER" lucidchartObjectId="8XpIVe4FQzVd" id="UhmW7nwp59RxyAtJVQfH-231">
          <mxCell style="html=1;overflow=block;blockSpacing=1;whiteSpace=wrap;fontSize=18.3;fontColor=#ffffff;align=center;spacingLeft=8.4;spacingRight=8.4;spacingTop=2.4;spacing=3.6;strokeOpacity=0;fillOpacity=100;rounded=1;absoluteArcSize=1;arcSize=12;fillColor=#636aff;strokeWidth=0.8;" vertex="1" parent="1">
            <mxGeometry x="853" y="-59" width="184" height="48" as="geometry" />
          </mxCell>
        </UserObject>
        <UserObject label="TASKMANAGER" lucidchartObjectId="8XpI6pTr3cQC" id="UhmW7nwp59RxyAtJVQfH-232">
          <mxCell style="html=1;overflow=block;blockSpacing=1;whiteSpace=wrap;fontSize=18.3;fontColor=#ffffff;align=center;spacingLeft=8.4;spacingRight=8.4;spacingTop=2.4;spacing=3.6;strokeOpacity=0;fillOpacity=100;rounded=1;absoluteArcSize=1;arcSize=12;fillColor=#636aff;strokeWidth=0.8;" vertex="1" parent="1">
            <mxGeometry x="853" y="5" width="184" height="48" as="geometry" />
          </mxCell>
        </UserObject>
        <mxCell id="UhmW7nwp59RxyAtJVQfH-233" style="edgeStyle=none;rounded=1;jumpStyle=none;orthogonalLoop=1;jettySize=auto;html=1;exitX=0.75;exitY=1;exitDx=0;exitDy=0;startArrow=oval;startFill=1;endArrow=oval;endFill=1;strokeColor=#82b366;strokeWidth=2;fillColor=#d5e8d4;" edge="1" parent="1">
          <mxGeometry relative="1" as="geometry">
            <mxPoint x="901.5" y="-188" as="sourcePoint" />
            <mxPoint x="901.5" y="-232" as="targetPoint" />
          </mxGeometry>
        </mxCell>
        <mxCell id="UhmW7nwp59RxyAtJVQfH-234" style="edgeStyle=none;rounded=1;jumpStyle=none;orthogonalLoop=1;jettySize=auto;html=1;exitX=0.75;exitY=1;exitDx=0;exitDy=0;startArrow=oval;startFill=1;endArrow=oval;endFill=1;strokeColor=#82b366;strokeWidth=2;fillColor=#d5e8d4;" edge="1" parent="1">
          <mxGeometry relative="1" as="geometry">
            <mxPoint x="699.5" y="-188" as="sourcePoint" />
            <mxPoint x="699.5" y="-232" as="targetPoint" />
          </mxGeometry>
        </mxCell>
        <mxCell id="UhmW7nwp59RxyAtJVQfH-235" style="edgeStyle=none;rounded=1;jumpStyle=none;orthogonalLoop=1;jettySize=auto;html=1;exitX=0.75;exitY=1;exitDx=0;exitDy=0;startArrow=oval;startFill=1;endArrow=oval;endFill=1;strokeColor=#82b366;strokeWidth=2;fillColor=#d5e8d4;" edge="1" parent="1">
          <mxGeometry relative="1" as="geometry">
            <mxPoint x="501.5" y="-188" as="sourcePoint" />
            <mxPoint x="501.5" y="-232" as="targetPoint" />
          </mxGeometry>
        </mxCell>
        <UserObject label="Data Syncronizer" lucidchartObjectId="HypIE5tfspSB" id="UhmW7nwp59RxyAtJVQfH-236">
          <mxCell style="html=1;overflow=block;blockSpacing=1;whiteSpace=wrap;fontSize=18.3;fontColor=#333333;align=center;spacingLeft=8.4;spacingRight=8.4;spacingTop=2.4;spacing=3.6;verticalAlign=middle;strokeOpacity=0;fillOpacity=100;rounded=1;absoluteArcSize=1;arcSize=12;fillColor=#CACBE8;strokeWidth=0.8;" vertex="1" parent="1">
            <mxGeometry x="158.5" y="-161" width="184" height="51" as="geometry" />
          </mxCell>
        </UserObject>
        <UserObject label="Calculator / Processor" lucidchartObjectId="RXpI~8YFsiHd" id="UhmW7nwp59RxyAtJVQfH-237">
          <mxCell style="html=1;overflow=block;blockSpacing=1;whiteSpace=wrap;fontSize=18.3;fontColor=#333333;align=center;spacingLeft=8.4;spacingRight=8.4;spacingTop=2.4;spacing=3.6;verticalAlign=middle;strokeOpacity=0;fillOpacity=100;rounded=1;absoluteArcSize=1;arcSize=12;fillColor=#CACBE8;strokeWidth=0.8;" vertex="1" parent="1">
            <mxGeometry x="389.5" y="-161" width="184" height="51" as="geometry" />
          </mxCell>
        </UserObject>
        <UserObject label="Model Inference" lucidchartObjectId="1XpIAn_rVOTK" id="UhmW7nwp59RxyAtJVQfH-238">
          <mxCell style="html=1;overflow=block;blockSpacing=1;whiteSpace=wrap;fontSize=18.3;fontColor=#333333;align=center;spacingLeft=8.4;spacingRight=8.4;spacingTop=2.4;spacing=3.6;verticalAlign=middle;strokeOpacity=0;fillOpacity=100;rounded=1;absoluteArcSize=1;arcSize=12;fillColor=#CACBE8;strokeWidth=0.8;" vertex="1" parent="1">
            <mxGeometry x="623.5" y="-161" width="184" height="51" as="geometry" />
          </mxCell>
        </UserObject>
        <UserObject label="Replicator" lucidchartObjectId="8XpIHrtV3hBn" id="UhmW7nwp59RxyAtJVQfH-239">
          <mxCell style="html=1;overflow=block;blockSpacing=1;whiteSpace=wrap;fontSize=18.3;fontColor=#333333;align=center;spacingLeft=8.4;spacingRight=8.4;spacingTop=2.4;spacing=3.6;verticalAlign=middle;strokeOpacity=0;fillOpacity=100;rounded=1;absoluteArcSize=1;arcSize=12;fillColor=#CACBE8;strokeWidth=0.8;strokeColor=#CACBE8;" vertex="1" parent="1">
            <mxGeometry x="852.5" y="-161" width="184" height="51" as="geometry" />
          </mxCell>
        </UserObject>
        <mxCell id="UhmW7nwp59RxyAtJVQfH-240" style="edgeStyle=none;rounded=1;jumpStyle=none;orthogonalLoop=1;jettySize=auto;html=1;startArrow=oval;startFill=1;endArrow=oval;endFill=1;strokeColor=#CACBE8;strokeWidth=2;entryX=0.183;entryY=0.994;entryDx=0;entryDy=0;entryPerimeter=0;" edge="1" parent="1">
          <mxGeometry relative="1" as="geometry">
            <mxPoint x="421" y="-112" as="targetPoint" />
            <mxPoint x="421" y="-80" as="sourcePoint" />
          </mxGeometry>
        </mxCell>
        <mxCell id="UhmW7nwp59RxyAtJVQfH-241" style="edgeStyle=none;rounded=1;jumpStyle=none;orthogonalLoop=1;jettySize=auto;html=1;startArrow=oval;startFill=1;endArrow=oval;endFill=1;strokeColor=#CACBE8;strokeWidth=2;entryX=0.75;entryY=1;entryDx=0;entryDy=0;" edge="1" parent="1">
          <mxGeometry relative="1" as="geometry">
            <mxPoint x="294" y="-112" as="targetPoint" />
            <mxPoint x="294" y="-70" as="sourcePoint" />
          </mxGeometry>
        </mxCell>
        <mxCell id="UhmW7nwp59RxyAtJVQfH-242" style="edgeStyle=none;rounded=1;jumpStyle=none;orthogonalLoop=1;jettySize=auto;html=1;startArrow=oval;startFill=1;endArrow=oval;endFill=1;strokeColor=#CACBE8;strokeWidth=2;entryX=0.75;entryY=1;entryDx=0;entryDy=0;" edge="1" parent="1">
          <mxGeometry relative="1" as="geometry">
            <mxPoint x="988" y="-112" as="targetPoint" />
            <mxPoint x="988" y="-70" as="sourcePoint" />
          </mxGeometry>
        </mxCell>
        <mxCell id="UhmW7nwp59RxyAtJVQfH-243" style="edgeStyle=none;rounded=1;jumpStyle=none;orthogonalLoop=1;jettySize=auto;html=1;startArrow=oval;startFill=1;endArrow=oval;endFill=1;strokeColor=#CACBE8;strokeWidth=2;exitX=0.812;exitY=0.994;exitDx=0;exitDy=0;exitPerimeter=0;" edge="1" parent="1">
          <mxGeometry relative="1" as="geometry">
            <mxPoint x="771" y="-80" as="targetPoint" />
            <mxPoint x="770" y="-112" as="sourcePoint" />
          </mxGeometry>
        </mxCell>
        <mxCell id="UhmW7nwp59RxyAtJVQfH-244" value="" style="endArrow=none;dashed=1;html=1;dashPattern=1 3;strokeWidth=6;rounded=0;entryX=0.818;entryY=0.058;entryDx=0;entryDy=0;entryPerimeter=0;strokeColor=#727272;exitX=0.252;exitY=0.066;exitDx=0;exitDy=0;exitPerimeter=0;" edge="1" parent="1">
          <mxGeometry width="50" height="50" relative="1" as="geometry">
            <mxPoint x="416.924" y="-170.84000000000015" as="sourcePoint" />
            <mxPoint x="303.91599999999994" y="-170.92000000000007" as="targetPoint" />
          </mxGeometry>
        </mxCell>
        <mxCell id="UhmW7nwp59RxyAtJVQfH-245" value="" style="endArrow=none;dashed=1;html=1;dashPattern=1 3;strokeWidth=6;rounded=0;entryX=0.818;entryY=0.058;entryDx=0;entryDy=0;entryPerimeter=0;strokeColor=#727272;exitX=0.252;exitY=0.066;exitDx=0;exitDy=0;exitPerimeter=0;" edge="1" parent="1">
          <mxGeometry width="50" height="50" relative="1" as="geometry">
            <mxPoint x="880.924" y="-169.84000000000015" as="sourcePoint" />
            <mxPoint x="767.9159999999999" y="-169.92000000000007" as="targetPoint" />
          </mxGeometry>
        </mxCell>
        <mxCell id="UhmW7nwp59RxyAtJVQfH-246" style="edgeStyle=none;rounded=0;jumpStyle=none;orthogonalLoop=1;jettySize=auto;html=1;exitX=0;exitY=0.5;exitDx=0;exitDy=0;entryX=1;entryY=0.5;entryDx=0;entryDy=0;startArrow=none;startFill=0;endArrow=classic;endFill=0;strokeColor=#7DD47D;strokeWidth=2;" edge="1" parent="1" source="UhmW7nwp59RxyAtJVQfH-227" target="UhmW7nwp59RxyAtJVQfH-225">
          <mxGeometry relative="1" as="geometry">
            <mxPoint x="397" y="-30" as="sourcePoint" />
            <mxPoint x="350" y="-30" as="targetPoint" />
          </mxGeometry>
        </mxCell>
        <mxCell id="UhmW7nwp59RxyAtJVQfH-247" style="edgeStyle=none;rounded=0;jumpStyle=none;orthogonalLoop=1;jettySize=auto;html=1;exitX=0;exitY=0.5;exitDx=0;exitDy=0;entryX=1;entryY=0.5;entryDx=0;entryDy=0;startArrow=none;startFill=0;endArrow=classic;endFill=0;strokeColor=#7DD47D;strokeWidth=2;" edge="1" parent="1" source="UhmW7nwp59RxyAtJVQfH-229" target="UhmW7nwp59RxyAtJVQfH-227">
          <mxGeometry relative="1" as="geometry">
            <mxPoint x="622" y="-40" as="sourcePoint" />
            <mxPoint x="575" y="-40" as="targetPoint" />
          </mxGeometry>
        </mxCell>
        <mxCell id="UhmW7nwp59RxyAtJVQfH-248" value="" style="endArrow=none;dashed=1;html=1;dashPattern=1 3;strokeWidth=2;rounded=0;strokeColor=#FF0000;" edge="1" parent="1">
          <mxGeometry width="50" height="50" relative="1" as="geometry">
            <mxPoint x="1697" y="102" as="sourcePoint" />
            <mxPoint x="1698" y="-853" as="targetPoint" />
          </mxGeometry>
        </mxCell>
        <UserObject label="Server 1" lucidchartObjectId="HypIMii0T2fg" id="UhmW7nwp59RxyAtJVQfH-249">
          <mxCell style="html=1;overflow=block;blockSpacing=1;whiteSpace=wrap;fontSize=18.3;fontColor=#333333;fontStyle=1;spacingLeft=8.4;spacingRight=8.4;spacingTop=2.4;spacing=3.6;verticalAlign=top;strokeOpacity=0;fillOpacity=100;rounded=1;absoluteArcSize=1;arcSize=12;fillColor=#ffdda6;strokeWidth=0.8;" vertex="1" parent="1">
            <mxGeometry x="1244.5" y="-798" width="212" height="256" as="geometry" />
          </mxCell>
        </UserObject>
        <UserObject label="Server N" lucidchartObjectId="kbqIFTrSSb0c" id="UhmW7nwp59RxyAtJVQfH-250">
          <mxCell style="html=1;overflow=block;blockSpacing=1;whiteSpace=wrap;fontSize=18.3;fontColor=#333333;fontStyle=1;spacingLeft=8.4;spacingRight=8.4;spacingTop=2.4;spacing=3.6;verticalAlign=top;strokeOpacity=0;fillOpacity=100;rounded=1;absoluteArcSize=1;arcSize=12;fillColor=#ffdda6;strokeWidth=0.8;" vertex="1" parent="1">
            <mxGeometry x="1474.5" y="-798" width="212" height="256" as="geometry" />
          </mxCell>
        </UserObject>
        <UserObject label="Server 1" lucidchartObjectId="kgqIT20~Yh46" id="UhmW7nwp59RxyAtJVQfH-251">
          <mxCell style="html=1;overflow=block;blockSpacing=1;whiteSpace=wrap;fontSize=18.3;fontColor=#333333;fontStyle=1;spacingLeft=8.4;spacingRight=8.4;spacingTop=2.4;spacing=3.6;verticalAlign=top;strokeOpacity=0;fillOpacity=100;rounded=1;absoluteArcSize=1;arcSize=12;fillColor=#ffdda6;strokeWidth=0.8;" vertex="1" parent="1">
            <mxGeometry x="1708.5" y="-798" width="212" height="256" as="geometry" />
          </mxCell>
        </UserObject>
        <UserObject label="Server N" lucidchartObjectId="NgqIsRjEYktH" id="UhmW7nwp59RxyAtJVQfH-252">
          <mxCell style="html=1;overflow=block;blockSpacing=1;whiteSpace=wrap;fontSize=18.3;fontColor=#333333;fontStyle=1;spacingLeft=8.4;spacingRight=8.4;spacingTop=2.4;spacing=3.6;verticalAlign=top;strokeOpacity=0;fillOpacity=100;rounded=1;absoluteArcSize=1;arcSize=12;fillColor=#ffdda6;strokeWidth=0.8;" vertex="1" parent="1">
            <mxGeometry x="1938.5" y="-798" width="212" height="256" as="geometry" />
          </mxCell>
        </UserObject>
        <UserObject label="&lt;div&gt;Объектное хранилище Ceph без георезервирования&lt;br&gt;&lt;/div&gt;&lt;div&gt;&lt;br&gt;&lt;/div&gt;&lt;div&gt;&lt;br&gt;&lt;/div&gt;&lt;div style=&quot;font-size: 16px;&quot;&gt;&lt;br&gt;&lt;/div&gt;&lt;div&gt;&lt;font style=&quot;font-size: 9px;&quot;&gt;&lt;i&gt;2 бакета на 1 кластер Flink&lt;/i&gt;&lt;/font&gt;&lt;/div&gt;" lucidchartObjectId="_KpIE2-JrPc8" id="UhmW7nwp59RxyAtJVQfH-253">
          <mxCell style="html=1;overflow=block;blockSpacing=1;whiteSpace=wrap;fontSize=20;fontStyle=1;align=center;spacing=9;verticalAlign=top;strokeOpacity=0;fillOpacity=100;rounded=1;absoluteArcSize=1;arcSize=12;fillColor=#d5e8d4;strokeWidth=0.8;strokeColor=#82b366;" vertex="1" parent="1">
            <mxGeometry x="1748" y="-438" width="360" height="150" as="geometry" />
          </mxCell>
        </UserObject>
        <UserObject label="Площадка для часто обновляемых HA-метаданных и&amp;nbsp;инкрементных / полных снэпшотов кластера Flink " lucidchartObjectId="fSpIcaWIN3Va" id="UhmW7nwp59RxyAtJVQfH-254">
          <mxCell style="html=1;overflow=block;blockSpacing=1;whiteSpace=wrap;fontSize=16.7;fontColor=#333333;align=left;spacing=9;verticalAlign=top;strokeOpacity=100;fillOpacity=100;rounded=1;absoluteArcSize=1;arcSize=12;fillColor=#ffffff;strokeWidth=0.8;" vertex="1" parent="1">
            <mxGeometry x="1763" y="-380" width="330" height="72" as="geometry" />
          </mxCell>
        </UserObject>
        <UserObject label="&lt;div style=&quot;line-height: 0.9;&quot;&gt;Кластер Apache Flink&lt;br&gt;&lt;/div&gt;&lt;div&gt;&lt;sup&gt;&lt;font style=&quot;font-size: 10px;&quot;&gt;MAIN&lt;/font&gt;&lt;/sup&gt;&lt;/div&gt;" lucidchartObjectId="WnqImOF1_m_N" id="UhmW7nwp59RxyAtJVQfH-255">
          <mxCell style="html=1;overflow=block;blockSpacing=1;whiteSpace=wrap;fontSize=20;fontColor=#ffffff;fontStyle=1;spacingLeft=8.4;spacingRight=8.4;spacingTop=2.4;spacing=3.6;verticalAlign=top;strokeOpacity=0;fillOpacity=100;rounded=1;absoluteArcSize=1;arcSize=12;fillColor=#8b90ff;strokeWidth=0.8;" vertex="1" parent="1">
            <mxGeometry x="1233" y="-713" width="929" height="164" as="geometry" />
          </mxCell>
        </UserObject>
        <UserObject label="&lt;div&gt;JOBMANAGER&lt;/div&gt;&lt;div&gt;&lt;font color=&quot;#33ff33&quot; style=&quot;font-size: 14px;&quot;&gt;&lt;b&gt;Leader&lt;/b&gt;&lt;/font&gt;&lt;/div&gt;" lucidchartObjectId="HypInYoTSrlu" id="UhmW7nwp59RxyAtJVQfH-256">
          <mxCell style="html=1;overflow=block;blockSpacing=1;whiteSpace=wrap;fontSize=18.3;fontColor=#ffffff;align=center;spacingLeft=8.4;spacingRight=8.4;spacingTop=2.4;spacing=3.6;strokeOpacity=0;fillOpacity=100;rounded=1;absoluteArcSize=1;arcSize=12;fillColor=#636aff;strokeWidth=0.8;" vertex="1" parent="1">
            <mxGeometry x="1259" y="-669" width="184" height="48" as="geometry" />
          </mxCell>
        </UserObject>
        <UserObject label="TASKMANAGER" lucidchartObjectId="HypIgOagNPgA" id="UhmW7nwp59RxyAtJVQfH-257">
          <mxCell style="html=1;overflow=block;blockSpacing=1;whiteSpace=wrap;fontSize=18.3;fontColor=#ffffff;align=center;spacingLeft=8.4;spacingRight=8.4;spacingTop=2.4;spacing=3.6;strokeOpacity=0;fillOpacity=100;rounded=1;absoluteArcSize=1;arcSize=12;fillColor=#636aff;strokeWidth=0.8;" vertex="1" parent="1">
            <mxGeometry x="1259" y="-605" width="184" height="48" as="geometry" />
          </mxCell>
        </UserObject>
        <UserObject label="JOBMANAGER&lt;br&gt;&lt;font style=&quot;font-size: 14px;&quot;&gt;Standby&lt;/font&gt;" lucidchartObjectId="RXpI0It2jUcH" id="UhmW7nwp59RxyAtJVQfH-258">
          <mxCell style="html=1;overflow=block;blockSpacing=1;whiteSpace=wrap;fontSize=18.3;fontColor=#ffffff;align=center;spacingLeft=8.4;spacingRight=8.4;spacingTop=2.4;spacing=3.6;strokeOpacity=0;fillOpacity=100;rounded=1;absoluteArcSize=1;arcSize=12;fillColor=#636aff;strokeWidth=0.8;" vertex="1" parent="1">
            <mxGeometry x="1490" y="-669" width="184" height="48" as="geometry" />
          </mxCell>
        </UserObject>
        <UserObject label="TASKMANAGER" lucidchartObjectId="RXpIgnX.f~PW" id="UhmW7nwp59RxyAtJVQfH-259">
          <mxCell style="html=1;overflow=block;blockSpacing=1;whiteSpace=wrap;fontSize=18.3;fontColor=#ffffff;align=center;spacingLeft=8.4;spacingRight=8.4;spacingTop=2.4;spacing=3.6;strokeOpacity=0;fillOpacity=100;rounded=1;absoluteArcSize=1;arcSize=12;fillColor=#636aff;strokeWidth=0.8;" vertex="1" parent="1">
            <mxGeometry x="1490" y="-605" width="184" height="48" as="geometry" />
          </mxCell>
        </UserObject>
        <UserObject label="JOBMANAGER&lt;br&gt;&lt;font style=&quot;font-size: 14px;&quot;&gt;Standby&lt;/font&gt;" lucidchartObjectId="1XpI324HXPmj" id="UhmW7nwp59RxyAtJVQfH-260">
          <mxCell style="html=1;overflow=block;blockSpacing=1;whiteSpace=wrap;fontSize=18.3;fontColor=#ffffff;align=center;spacingLeft=8.4;spacingRight=8.4;spacingTop=2.4;spacing=3.6;strokeOpacity=0;fillOpacity=100;rounded=1;absoluteArcSize=1;arcSize=12;fillColor=#e51400;strokeWidth=0.8;strokeColor=#B20000;" vertex="1" parent="1">
            <mxGeometry x="1724" y="-669" width="184" height="48" as="geometry" />
          </mxCell>
        </UserObject>
        <UserObject label="TASKMANAGER" lucidchartObjectId="1XpItajlC~17" id="UhmW7nwp59RxyAtJVQfH-261">
          <mxCell style="html=1;overflow=block;blockSpacing=1;whiteSpace=wrap;fontSize=18.3;fontColor=#ffffff;align=center;spacingLeft=8.4;spacingRight=8.4;spacingTop=2.4;spacing=3.6;strokeOpacity=0;fillOpacity=100;rounded=1;absoluteArcSize=1;arcSize=12;fillColor=#e51400;strokeWidth=0.8;strokeColor=#B20000;" vertex="1" parent="1">
            <mxGeometry x="1724" y="-605" width="184" height="48" as="geometry" />
          </mxCell>
        </UserObject>
        <UserObject label="HISTORYSERVER" lucidchartObjectId="8XpIVe4FQzVd" id="UhmW7nwp59RxyAtJVQfH-262">
          <mxCell style="html=1;overflow=block;blockSpacing=1;whiteSpace=wrap;fontSize=18.3;fontColor=#ffffff;align=center;spacingLeft=8.4;spacingRight=8.4;spacingTop=2.4;spacing=3.6;strokeOpacity=0;fillOpacity=100;rounded=1;absoluteArcSize=1;arcSize=12;fillColor=#e51400;strokeWidth=0.8;strokeColor=#B20000;" vertex="1" parent="1">
            <mxGeometry x="1953" y="-669" width="184" height="48" as="geometry" />
          </mxCell>
        </UserObject>
        <UserObject label="TASKMANAGER" lucidchartObjectId="8XpI6pTr3cQC" id="UhmW7nwp59RxyAtJVQfH-263">
          <mxCell style="html=1;overflow=block;blockSpacing=1;whiteSpace=wrap;fontSize=18.3;fontColor=#ffffff;align=center;spacingLeft=8.4;spacingRight=8.4;spacingTop=2.4;spacing=3.6;strokeOpacity=0;fillOpacity=100;rounded=1;absoluteArcSize=1;arcSize=12;fillColor=#e51400;strokeWidth=0.8;strokeColor=#B20000;" vertex="1" parent="1">
            <mxGeometry x="1953" y="-605" width="184" height="48" as="geometry" />
          </mxCell>
        </UserObject>
        <mxCell id="UhmW7nwp59RxyAtJVQfH-264" style="edgeStyle=none;rounded=1;jumpStyle=none;orthogonalLoop=1;jettySize=auto;html=1;exitX=0.75;exitY=1;exitDx=0;exitDy=0;startArrow=oval;startFill=1;endArrow=oval;endFill=1;strokeColor=#82b366;strokeWidth=2;fillColor=#d5e8d4;" edge="1" parent="1">
          <mxGeometry relative="1" as="geometry">
            <mxPoint x="1419" y="-540" as="sourcePoint" />
            <mxPoint x="1419" y="-496" as="targetPoint" />
          </mxGeometry>
        </mxCell>
        <UserObject label="NGINX + nginx-ldap-auth" lucidchartObjectId="HypIE5tfspSB" id="UhmW7nwp59RxyAtJVQfH-265">
          <mxCell style="html=1;overflow=block;blockSpacing=1;whiteSpace=wrap;fontSize=18.3;fontColor=#333333;align=center;spacingLeft=8.4;spacingRight=8.4;spacingTop=2.4;spacing=3.6;verticalAlign=middle;strokeOpacity=0;fillOpacity=100;rounded=1;absoluteArcSize=1;arcSize=12;fillColor=#CACBE8;strokeWidth=0.8;" vertex="1" parent="1">
            <mxGeometry x="1258.5" y="-771" width="184" height="51" as="geometry" />
          </mxCell>
        </UserObject>
        <UserObject label="NGINX + nginx-ldap-auth" lucidchartObjectId="RXpI~8YFsiHd" id="UhmW7nwp59RxyAtJVQfH-266">
          <mxCell style="html=1;overflow=block;blockSpacing=1;whiteSpace=wrap;fontSize=18.3;fontColor=#333333;align=center;spacingLeft=8.4;spacingRight=8.4;spacingTop=2.4;spacing=3.6;verticalAlign=middle;strokeOpacity=0;fillOpacity=100;rounded=1;absoluteArcSize=1;arcSize=12;fillColor=#CACBE8;strokeWidth=0.8;" vertex="1" parent="1">
            <mxGeometry x="1489.5" y="-771" width="184" height="51" as="geometry" />
          </mxCell>
        </UserObject>
        <UserObject label="NGINX + nginx-ldap-auth" lucidchartObjectId="1XpIAn_rVOTK" id="UhmW7nwp59RxyAtJVQfH-267">
          <mxCell style="html=1;overflow=block;blockSpacing=1;whiteSpace=wrap;fontSize=18.3;fontColor=#333333;align=center;spacingLeft=8.4;spacingRight=8.4;spacingTop=2.4;spacing=3.6;verticalAlign=middle;strokeOpacity=0;fillOpacity=100;rounded=1;absoluteArcSize=1;arcSize=12;fillColor=#CACBE8;strokeWidth=0.8;" vertex="1" parent="1">
            <mxGeometry x="1723.5" y="-771" width="184" height="51" as="geometry" />
          </mxCell>
        </UserObject>
        <UserObject label="NGINX + nginx-ldap-auth" lucidchartObjectId="8XpIHrtV3hBn" id="UhmW7nwp59RxyAtJVQfH-268">
          <mxCell style="html=1;overflow=block;blockSpacing=1;whiteSpace=wrap;fontSize=18.3;fontColor=#333333;align=center;spacingLeft=8.4;spacingRight=8.4;spacingTop=2.4;spacing=3.6;verticalAlign=middle;strokeOpacity=0;fillOpacity=100;rounded=1;absoluteArcSize=1;arcSize=12;fillColor=#CACBE8;strokeWidth=0.8;strokeColor=#CACBE8;" vertex="1" parent="1">
            <mxGeometry x="1952.5" y="-771" width="184" height="51" as="geometry" />
          </mxCell>
        </UserObject>
        <mxCell id="UhmW7nwp59RxyAtJVQfH-269" style="edgeStyle=none;rounded=1;jumpStyle=none;orthogonalLoop=1;jettySize=auto;html=1;startArrow=oval;startFill=1;endArrow=oval;endFill=1;strokeColor=#CACBE8;strokeWidth=2;entryX=0.183;entryY=0.994;entryDx=0;entryDy=0;entryPerimeter=0;exitX=0.187;exitY=-0.014;exitDx=0;exitDy=0;exitPerimeter=0;" edge="1" parent="1">
          <mxGeometry relative="1" as="geometry">
            <mxPoint x="1521" y="-722" as="targetPoint" />
            <mxPoint x="1521" y="-670" as="sourcePoint" />
          </mxGeometry>
        </mxCell>
        <mxCell id="UhmW7nwp59RxyAtJVQfH-270" style="edgeStyle=none;rounded=1;jumpStyle=none;orthogonalLoop=1;jettySize=auto;html=1;exitX=0.75;exitY=0;exitDx=0;exitDy=0;startArrow=oval;startFill=1;endArrow=oval;endFill=1;strokeColor=#CACBE8;strokeWidth=2;entryX=0.75;entryY=1;entryDx=0;entryDy=0;" edge="1" parent="1">
          <mxGeometry relative="1" as="geometry">
            <mxPoint x="1394" y="-722" as="targetPoint" />
            <mxPoint x="1394" y="-669" as="sourcePoint" />
          </mxGeometry>
        </mxCell>
        <mxCell id="UhmW7nwp59RxyAtJVQfH-271" style="edgeStyle=none;rounded=1;jumpStyle=none;orthogonalLoop=1;jettySize=auto;html=1;exitX=0.75;exitY=0;exitDx=0;exitDy=0;startArrow=oval;startFill=1;endArrow=oval;endFill=1;strokeColor=#CACBE8;strokeWidth=2;entryX=0.75;entryY=1;entryDx=0;entryDy=0;" edge="1" parent="1">
          <mxGeometry relative="1" as="geometry">
            <mxPoint x="2088" y="-722" as="targetPoint" />
            <mxPoint x="2088" y="-669" as="sourcePoint" />
          </mxGeometry>
        </mxCell>
        <mxCell id="UhmW7nwp59RxyAtJVQfH-272" style="edgeStyle=none;rounded=1;jumpStyle=none;orthogonalLoop=1;jettySize=auto;html=1;startArrow=oval;startFill=1;endArrow=oval;endFill=1;strokeColor=#CACBE8;strokeWidth=2;exitX=0.812;exitY=0.994;exitDx=0;exitDy=0;exitPerimeter=0;entryX=0.815;entryY=-0.014;entryDx=0;entryDy=0;entryPerimeter=0;" edge="1" parent="1">
          <mxGeometry relative="1" as="geometry">
            <mxPoint x="1871" y="-670" as="targetPoint" />
            <mxPoint x="1870" y="-722" as="sourcePoint" />
          </mxGeometry>
        </mxCell>
        <mxCell id="UhmW7nwp59RxyAtJVQfH-273" value="&lt;b style=&quot;font-size: 24px;&quot;&gt;DC1&lt;/b&gt;" style="rounded=0;whiteSpace=wrap;html=1;fontSize=24;" vertex="1" parent="1">
          <mxGeometry x="1428" y="-868" width="100" height="40" as="geometry" />
        </mxCell>
        <mxCell id="UhmW7nwp59RxyAtJVQfH-274" value="&lt;b style=&quot;font-size: 24px;&quot;&gt;DC2&lt;/b&gt;" style="rounded=0;whiteSpace=wrap;html=1;fontSize=24;" vertex="1" parent="1">
          <mxGeometry x="1878" y="-868" width="100" height="40" as="geometry" />
        </mxCell>
        <mxCell id="UhmW7nwp59RxyAtJVQfH-275" value="" style="endArrow=none;dashed=1;html=1;dashPattern=1 3;strokeWidth=6;rounded=0;entryX=0.818;entryY=0.058;entryDx=0;entryDy=0;entryPerimeter=0;strokeColor=#727272;exitX=0.252;exitY=0.066;exitDx=0;exitDy=0;exitPerimeter=0;" edge="1" parent="1">
          <mxGeometry width="50" height="50" relative="1" as="geometry">
            <mxPoint x="1516.924" y="-780.8400000000001" as="sourcePoint" />
            <mxPoint x="1403.916" y="-780.9200000000001" as="targetPoint" />
          </mxGeometry>
        </mxCell>
        <mxCell id="UhmW7nwp59RxyAtJVQfH-276" value="" style="endArrow=none;dashed=1;html=1;dashPattern=1 3;strokeWidth=6;rounded=0;entryX=0.818;entryY=0.058;entryDx=0;entryDy=0;entryPerimeter=0;strokeColor=#727272;exitX=0.252;exitY=0.066;exitDx=0;exitDy=0;exitPerimeter=0;" edge="1" parent="1">
          <mxGeometry width="50" height="50" relative="1" as="geometry">
            <mxPoint x="1980.924" y="-779.8400000000001" as="sourcePoint" />
            <mxPoint x="1867.916" y="-779.9200000000001" as="targetPoint" />
          </mxGeometry>
        </mxCell>
        <mxCell id="UhmW7nwp59RxyAtJVQfH-277" style="edgeStyle=none;rounded=0;jumpStyle=none;orthogonalLoop=1;jettySize=auto;html=1;exitX=1;exitY=0.5;exitDx=0;exitDy=0;entryX=0;entryY=0.5;entryDx=0;entryDy=0;startArrow=none;startFill=0;endArrow=classic;endFill=0;strokeColor=#7DD47D;strokeWidth=2;" edge="1" parent="1" source="UhmW7nwp59RxyAtJVQfH-256" target="UhmW7nwp59RxyAtJVQfH-258">
          <mxGeometry relative="1" as="geometry">
            <mxPoint x="1450" y="-640" as="sourcePoint" />
            <mxPoint x="1497" y="-640" as="targetPoint" />
          </mxGeometry>
        </mxCell>
        <mxCell id="UhmW7nwp59RxyAtJVQfH-278" style="edgeStyle=none;rounded=0;jumpStyle=none;orthogonalLoop=1;jettySize=auto;html=1;exitX=1;exitY=0.5;exitDx=0;exitDy=0;entryX=0;entryY=0.5;entryDx=0;entryDy=0;startArrow=none;startFill=0;endArrow=classic;endFill=0;strokeColor=#7DD47D;strokeWidth=2;" edge="1" parent="1" source="UhmW7nwp59RxyAtJVQfH-258" target="UhmW7nwp59RxyAtJVQfH-260">
          <mxGeometry relative="1" as="geometry">
            <mxPoint x="1675" y="-650" as="sourcePoint" />
            <mxPoint x="1722" y="-650" as="targetPoint" />
          </mxGeometry>
        </mxCell>
        <UserObject label="Server 1" lucidchartObjectId="HypIMii0T2fg" id="UhmW7nwp59RxyAtJVQfH-279">
          <mxCell style="html=1;overflow=block;blockSpacing=1;whiteSpace=wrap;fontSize=18.3;fontColor=#333333;fontStyle=1;spacingLeft=8.4;spacingRight=8.4;spacingTop=2.4;spacing=3.6;verticalAlign=top;strokeOpacity=0;fillOpacity=100;rounded=1;absoluteArcSize=1;arcSize=12;fillColor=#ffdda6;strokeWidth=0.8;" vertex="1" parent="1">
            <mxGeometry x="1244.5" y="-188" width="212" height="256" as="geometry" />
          </mxCell>
        </UserObject>
        <UserObject label="Server N" lucidchartObjectId="kbqIFTrSSb0c" id="UhmW7nwp59RxyAtJVQfH-280">
          <mxCell style="html=1;overflow=block;blockSpacing=1;whiteSpace=wrap;fontSize=18.3;fontColor=#333333;fontStyle=1;spacingLeft=8.4;spacingRight=8.4;spacingTop=2.4;spacing=3.6;verticalAlign=top;strokeOpacity=0;fillOpacity=100;rounded=1;absoluteArcSize=1;arcSize=12;fillColor=#ffdda6;strokeWidth=0.8;" vertex="1" parent="1">
            <mxGeometry x="1474.5" y="-188" width="212" height="256" as="geometry" />
          </mxCell>
        </UserObject>
        <UserObject label="Server 1" lucidchartObjectId="kgqIT20~Yh46" id="UhmW7nwp59RxyAtJVQfH-281">
          <mxCell style="html=1;overflow=block;blockSpacing=1;whiteSpace=wrap;fontSize=18.3;fontColor=#333333;fontStyle=1;spacingLeft=8.4;spacingRight=8.4;spacingTop=2.4;spacing=3.6;verticalAlign=top;strokeOpacity=0;fillOpacity=100;rounded=1;absoluteArcSize=1;arcSize=12;fillColor=#ffdda6;strokeWidth=0.8;" vertex="1" parent="1">
            <mxGeometry x="1708.5" y="-188" width="212" height="256" as="geometry" />
          </mxCell>
        </UserObject>
        <UserObject label="Server N" lucidchartObjectId="NgqIsRjEYktH" id="UhmW7nwp59RxyAtJVQfH-282">
          <mxCell style="html=1;overflow=block;blockSpacing=1;whiteSpace=wrap;fontSize=18.3;fontColor=#333333;fontStyle=1;spacingLeft=8.4;spacingRight=8.4;spacingTop=2.4;spacing=3.6;verticalAlign=top;strokeOpacity=0;fillOpacity=100;rounded=1;absoluteArcSize=1;arcSize=12;fillColor=#ffdda6;strokeWidth=0.8;" vertex="1" parent="1">
            <mxGeometry x="1938.5" y="-188" width="212" height="256" as="geometry" />
          </mxCell>
        </UserObject>
        <UserObject label="&lt;div style=&quot;line-height: 0.9;&quot;&gt;Кластер Apache Flink&lt;br&gt;&lt;/div&gt;&lt;div&gt;&lt;sup&gt;&lt;font style=&quot;font-size: 10px;&quot;&gt;STAND-IN&lt;/font&gt;&lt;/sup&gt;&lt;/div&gt;" lucidchartObjectId="WnqImOF1_m_N" id="UhmW7nwp59RxyAtJVQfH-283">
          <mxCell style="html=1;overflow=block;blockSpacing=1;whiteSpace=wrap;fontSize=20;fontColor=#ffffff;fontStyle=1;spacingLeft=8.4;spacingRight=8.4;spacingTop=2.4;spacing=3.6;verticalAlign=top;strokeOpacity=0;fillOpacity=100;rounded=1;absoluteArcSize=1;arcSize=12;fillColor=#8b90ff;strokeWidth=0.8;" vertex="1" parent="1">
            <mxGeometry x="1233" y="-103" width="929" height="164" as="geometry" />
          </mxCell>
        </UserObject>
        <UserObject label="&lt;div&gt;JOBMANAGER&lt;/div&gt;&lt;div&gt;&lt;font style=&quot;font-size: 14px;&quot;&gt;Standby&lt;/font&gt;&lt;/div&gt;" lucidchartObjectId="HypInYoTSrlu" id="UhmW7nwp59RxyAtJVQfH-284">
          <mxCell style="html=1;overflow=block;blockSpacing=1;whiteSpace=wrap;fontSize=18.3;fontColor=#ffffff;align=center;spacingLeft=8.4;spacingRight=8.4;spacingTop=2.4;spacing=3.6;strokeOpacity=0;fillOpacity=100;rounded=1;absoluteArcSize=1;arcSize=12;fillColor=#e51400;strokeWidth=0.8;strokeColor=#B20000;" vertex="1" parent="1">
            <mxGeometry x="1259" y="-59" width="184" height="48" as="geometry" />
          </mxCell>
        </UserObject>
        <UserObject label="TASKMANAGER" lucidchartObjectId="HypIgOagNPgA" id="UhmW7nwp59RxyAtJVQfH-285">
          <mxCell style="html=1;overflow=block;blockSpacing=1;whiteSpace=wrap;fontSize=18.3;fontColor=#ffffff;align=center;spacingLeft=8.4;spacingRight=8.4;spacingTop=2.4;spacing=3.6;strokeOpacity=0;fillOpacity=100;rounded=1;absoluteArcSize=1;arcSize=12;fillColor=#e51400;strokeWidth=0.8;strokeColor=#B20000;" vertex="1" parent="1">
            <mxGeometry x="1259" y="5" width="184" height="48" as="geometry" />
          </mxCell>
        </UserObject>
        <UserObject label="&lt;div&gt;JOBMANAGER&lt;/div&gt;&lt;div&gt;&lt;font style=&quot;font-size: 14px;&quot;&gt;Standby&lt;/font&gt;&lt;/div&gt;" lucidchartObjectId="RXpI0It2jUcH" id="UhmW7nwp59RxyAtJVQfH-286">
          <mxCell style="html=1;overflow=block;blockSpacing=1;whiteSpace=wrap;fontSize=18.3;fontColor=#ffffff;align=center;spacingLeft=8.4;spacingRight=8.4;spacingTop=2.4;spacing=3.6;strokeOpacity=0;fillOpacity=100;rounded=1;absoluteArcSize=1;arcSize=12;fillColor=#e51400;strokeWidth=0.8;strokeColor=#B20000;" vertex="1" parent="1">
            <mxGeometry x="1490" y="-59" width="184" height="48" as="geometry" />
          </mxCell>
        </UserObject>
        <UserObject label="TASKMANAGER" lucidchartObjectId="RXpIgnX.f~PW" id="UhmW7nwp59RxyAtJVQfH-287">
          <mxCell style="html=1;overflow=block;blockSpacing=1;whiteSpace=wrap;fontSize=18.3;fontColor=#ffffff;align=center;spacingLeft=8.4;spacingRight=8.4;spacingTop=2.4;spacing=3.6;strokeOpacity=0;fillOpacity=100;rounded=1;absoluteArcSize=1;arcSize=12;fillColor=#e51400;strokeWidth=0.8;strokeColor=#B20000;" vertex="1" parent="1">
            <mxGeometry x="1490" y="5" width="184" height="48" as="geometry" />
          </mxCell>
        </UserObject>
        <UserObject label="JOBMANAGER&lt;font color=&quot;#33ff33&quot; style=&quot;font-size: 14px;&quot;&gt;&lt;b&gt;&lt;br&gt;Leader&lt;/b&gt;&lt;/font&gt;" lucidchartObjectId="1XpI324HXPmj" id="UhmW7nwp59RxyAtJVQfH-288">
          <mxCell style="html=1;overflow=block;blockSpacing=1;whiteSpace=wrap;fontSize=18.3;fontColor=#ffffff;align=center;spacingLeft=8.4;spacingRight=8.4;spacingTop=2.4;spacing=3.6;strokeOpacity=0;fillOpacity=100;rounded=1;absoluteArcSize=1;arcSize=12;fillColor=#636aff;strokeWidth=0.8;" vertex="1" parent="1">
            <mxGeometry x="1724" y="-59" width="184" height="48" as="geometry" />
          </mxCell>
        </UserObject>
        <UserObject label="TASKMANAGER" lucidchartObjectId="1XpItajlC~17" id="UhmW7nwp59RxyAtJVQfH-289">
          <mxCell style="html=1;overflow=block;blockSpacing=1;whiteSpace=wrap;fontSize=18.3;fontColor=#ffffff;align=center;spacingLeft=8.4;spacingRight=8.4;spacingTop=2.4;spacing=3.6;strokeOpacity=0;fillOpacity=100;rounded=1;absoluteArcSize=1;arcSize=12;fillColor=#636aff;strokeWidth=0.8;" vertex="1" parent="1">
            <mxGeometry x="1724" y="5" width="184" height="48" as="geometry" />
          </mxCell>
        </UserObject>
        <UserObject label="HISTORYSERVER" lucidchartObjectId="8XpIVe4FQzVd" id="UhmW7nwp59RxyAtJVQfH-290">
          <mxCell style="html=1;overflow=block;blockSpacing=1;whiteSpace=wrap;fontSize=18.3;fontColor=#ffffff;align=center;spacingLeft=8.4;spacingRight=8.4;spacingTop=2.4;spacing=3.6;strokeOpacity=0;fillOpacity=100;rounded=1;absoluteArcSize=1;arcSize=12;fillColor=#636aff;strokeWidth=0.8;" vertex="1" parent="1">
            <mxGeometry x="1953" y="-59" width="184" height="48" as="geometry" />
          </mxCell>
        </UserObject>
        <UserObject label="TASKMANAGER" lucidchartObjectId="8XpI6pTr3cQC" id="UhmW7nwp59RxyAtJVQfH-291">
          <mxCell style="html=1;overflow=block;blockSpacing=1;whiteSpace=wrap;fontSize=18.3;fontColor=#ffffff;align=center;spacingLeft=8.4;spacingRight=8.4;spacingTop=2.4;spacing=3.6;strokeOpacity=0;fillOpacity=100;rounded=1;absoluteArcSize=1;arcSize=12;fillColor=#636aff;strokeWidth=0.8;" vertex="1" parent="1">
            <mxGeometry x="1953" y="5" width="184" height="48" as="geometry" />
          </mxCell>
        </UserObject>
        <UserObject label="NGINX + nginx-ldap-auth" lucidchartObjectId="HypIE5tfspSB" id="UhmW7nwp59RxyAtJVQfH-292">
          <mxCell style="html=1;overflow=block;blockSpacing=1;whiteSpace=wrap;fontSize=18.3;fontColor=#333333;align=center;spacingLeft=8.4;spacingRight=8.4;spacingTop=2.4;spacing=3.6;verticalAlign=middle;strokeOpacity=0;fillOpacity=100;rounded=1;absoluteArcSize=1;arcSize=12;fillColor=#CACBE8;strokeWidth=0.8;" vertex="1" parent="1">
            <mxGeometry x="1258.5" y="-161" width="184" height="51" as="geometry" />
          </mxCell>
        </UserObject>
        <UserObject label="NGINX + nginx-ldap-auth" lucidchartObjectId="RXpI~8YFsiHd" id="UhmW7nwp59RxyAtJVQfH-293">
          <mxCell style="html=1;overflow=block;blockSpacing=1;whiteSpace=wrap;fontSize=18.3;fontColor=#333333;align=center;spacingLeft=8.4;spacingRight=8.4;spacingTop=2.4;spacing=3.6;verticalAlign=middle;strokeOpacity=0;fillOpacity=100;rounded=1;absoluteArcSize=1;arcSize=12;fillColor=#CACBE8;strokeWidth=0.8;" vertex="1" parent="1">
            <mxGeometry x="1489.5" y="-161" width="184" height="51" as="geometry" />
          </mxCell>
        </UserObject>
        <UserObject label="NGINX + nginx-ldap-auth" lucidchartObjectId="1XpIAn_rVOTK" id="UhmW7nwp59RxyAtJVQfH-294">
          <mxCell style="html=1;overflow=block;blockSpacing=1;whiteSpace=wrap;fontSize=18.3;fontColor=#333333;align=center;spacingLeft=8.4;spacingRight=8.4;spacingTop=2.4;spacing=3.6;verticalAlign=middle;strokeOpacity=0;fillOpacity=100;rounded=1;absoluteArcSize=1;arcSize=12;fillColor=#CACBE8;strokeWidth=0.8;" vertex="1" parent="1">
            <mxGeometry x="1723.5" y="-161" width="184" height="51" as="geometry" />
          </mxCell>
        </UserObject>
        <UserObject label="NGINX + nginx-ldap-auth" lucidchartObjectId="8XpIHrtV3hBn" id="UhmW7nwp59RxyAtJVQfH-295">
          <mxCell style="html=1;overflow=block;blockSpacing=1;whiteSpace=wrap;fontSize=18.3;fontColor=#333333;align=center;spacingLeft=8.4;spacingRight=8.4;spacingTop=2.4;spacing=3.6;verticalAlign=middle;strokeOpacity=0;fillOpacity=100;rounded=1;absoluteArcSize=1;arcSize=12;fillColor=#CACBE8;strokeWidth=0.8;strokeColor=#CACBE8;" vertex="1" parent="1">
            <mxGeometry x="1952.5" y="-161" width="184" height="51" as="geometry" />
          </mxCell>
        </UserObject>
        <mxCell id="UhmW7nwp59RxyAtJVQfH-296" style="edgeStyle=none;rounded=1;jumpStyle=none;orthogonalLoop=1;jettySize=auto;html=1;startArrow=oval;startFill=1;endArrow=oval;endFill=1;strokeColor=#CACBE8;strokeWidth=2;entryX=0.183;entryY=0.994;entryDx=0;entryDy=0;entryPerimeter=0;exitX=0.187;exitY=-0.014;exitDx=0;exitDy=0;exitPerimeter=0;" edge="1" parent="1">
          <mxGeometry relative="1" as="geometry">
            <mxPoint x="1521" y="-112" as="targetPoint" />
            <mxPoint x="1521" y="-60" as="sourcePoint" />
          </mxGeometry>
        </mxCell>
        <mxCell id="UhmW7nwp59RxyAtJVQfH-297" style="edgeStyle=none;rounded=1;jumpStyle=none;orthogonalLoop=1;jettySize=auto;html=1;exitX=0.75;exitY=0;exitDx=0;exitDy=0;startArrow=oval;startFill=1;endArrow=oval;endFill=1;strokeColor=#CACBE8;strokeWidth=2;entryX=0.75;entryY=1;entryDx=0;entryDy=0;" edge="1" parent="1">
          <mxGeometry relative="1" as="geometry">
            <mxPoint x="1394" y="-112" as="targetPoint" />
            <mxPoint x="1394" y="-59" as="sourcePoint" />
          </mxGeometry>
        </mxCell>
        <mxCell id="UhmW7nwp59RxyAtJVQfH-298" style="edgeStyle=none;rounded=1;jumpStyle=none;orthogonalLoop=1;jettySize=auto;html=1;exitX=0.75;exitY=0;exitDx=0;exitDy=0;startArrow=oval;startFill=1;endArrow=oval;endFill=1;strokeColor=#CACBE8;strokeWidth=2;entryX=0.75;entryY=1;entryDx=0;entryDy=0;" edge="1" parent="1">
          <mxGeometry relative="1" as="geometry">
            <mxPoint x="2088" y="-112" as="targetPoint" />
            <mxPoint x="2088" y="-59" as="sourcePoint" />
          </mxGeometry>
        </mxCell>
        <mxCell id="UhmW7nwp59RxyAtJVQfH-299" style="edgeStyle=none;rounded=1;jumpStyle=none;orthogonalLoop=1;jettySize=auto;html=1;startArrow=oval;startFill=1;endArrow=oval;endFill=1;strokeColor=#CACBE8;strokeWidth=2;exitX=0.812;exitY=0.994;exitDx=0;exitDy=0;exitPerimeter=0;entryX=0.815;entryY=-0.014;entryDx=0;entryDy=0;entryPerimeter=0;" edge="1" parent="1">
          <mxGeometry relative="1" as="geometry">
            <mxPoint x="1871" y="-60" as="targetPoint" />
            <mxPoint x="1870" y="-112" as="sourcePoint" />
          </mxGeometry>
        </mxCell>
        <mxCell id="UhmW7nwp59RxyAtJVQfH-300" value="" style="endArrow=none;dashed=1;html=1;dashPattern=1 3;strokeWidth=6;rounded=0;entryX=0.818;entryY=0.058;entryDx=0;entryDy=0;entryPerimeter=0;strokeColor=#727272;exitX=0.252;exitY=0.066;exitDx=0;exitDy=0;exitPerimeter=0;" edge="1" parent="1">
          <mxGeometry width="50" height="50" relative="1" as="geometry">
            <mxPoint x="1516.924" y="-170.84000000000015" as="sourcePoint" />
            <mxPoint x="1403.916" y="-170.92000000000007" as="targetPoint" />
          </mxGeometry>
        </mxCell>
        <mxCell id="UhmW7nwp59RxyAtJVQfH-301" value="" style="endArrow=none;dashed=1;html=1;dashPattern=1 3;strokeWidth=6;rounded=0;entryX=0.818;entryY=0.058;entryDx=0;entryDy=0;entryPerimeter=0;strokeColor=#727272;exitX=0.252;exitY=0.066;exitDx=0;exitDy=0;exitPerimeter=0;" edge="1" parent="1">
          <mxGeometry width="50" height="50" relative="1" as="geometry">
            <mxPoint x="1980.924" y="-169.84000000000015" as="sourcePoint" />
            <mxPoint x="1867.916" y="-169.92000000000007" as="targetPoint" />
          </mxGeometry>
        </mxCell>
        <mxCell id="UhmW7nwp59RxyAtJVQfH-302" style="edgeStyle=none;rounded=0;jumpStyle=none;orthogonalLoop=1;jettySize=auto;html=1;exitX=0;exitY=0.5;exitDx=0;exitDy=0;entryX=1;entryY=0.5;entryDx=0;entryDy=0;startArrow=none;startFill=0;endArrow=classic;endFill=0;strokeColor=#7DD47D;strokeWidth=2;" edge="1" parent="1" source="UhmW7nwp59RxyAtJVQfH-286" target="UhmW7nwp59RxyAtJVQfH-284">
          <mxGeometry relative="1" as="geometry">
            <mxPoint x="1497" y="-30" as="sourcePoint" />
            <mxPoint x="1450" y="-30" as="targetPoint" />
          </mxGeometry>
        </mxCell>
        <mxCell id="UhmW7nwp59RxyAtJVQfH-303" style="edgeStyle=none;rounded=0;jumpStyle=none;orthogonalLoop=1;jettySize=auto;html=1;exitX=0;exitY=0.5;exitDx=0;exitDy=0;entryX=1;entryY=0.5;entryDx=0;entryDy=0;startArrow=none;startFill=0;endArrow=classic;endFill=0;strokeColor=#7DD47D;strokeWidth=2;" edge="1" parent="1" source="UhmW7nwp59RxyAtJVQfH-288" target="UhmW7nwp59RxyAtJVQfH-286">
          <mxGeometry relative="1" as="geometry">
            <mxPoint x="1722" y="-40" as="sourcePoint" />
            <mxPoint x="1675" y="-40" as="targetPoint" />
          </mxGeometry>
        </mxCell>
        <mxCell id="UhmW7nwp59RxyAtJVQfH-304" value="" style="endArrow=none;html=1;rounded=0;entryX=1.005;entryY=0.341;entryDx=0;entryDy=0;entryPerimeter=0;exitX=0;exitY=0.5;exitDx=0;exitDy=0;strokeColor=#FF0000;strokeWidth=7;" edge="1" parent="1">
          <mxGeometry width="50" height="50" relative="1" as="geometry">
            <mxPoint x="1591.5" y="-974.5" as="sourcePoint" />
            <mxPoint x="1804.5" y="-931.5" as="targetPoint" />
          </mxGeometry>
        </mxCell>
        <mxCell id="UhmW7nwp59RxyAtJVQfH-305" value="" style="endArrow=none;html=1;rounded=0;exitX=0;exitY=0.5;exitDx=0;exitDy=0;strokeColor=#FF0000;strokeWidth=7;" edge="1" parent="1">
          <mxGeometry width="50" height="50" relative="1" as="geometry">
            <mxPoint x="1591.5" y="-974.5" as="sourcePoint" />
            <mxPoint x="1913" y="-908" as="targetPoint" />
          </mxGeometry>
        </mxCell>
        <mxCell id="UhmW7nwp59RxyAtJVQfH-306" value="" style="endArrow=none;html=1;rounded=0;strokeColor=#FF0000;strokeWidth=7;" edge="1" parent="1">
          <mxGeometry width="50" height="50" relative="1" as="geometry">
            <mxPoint x="1483" y="-998" as="sourcePoint" />
            <mxPoint x="1913" y="-908" as="targetPoint" />
          </mxGeometry>
        </mxCell>
        <mxCell id="UhmW7nwp59RxyAtJVQfH-307" value="" style="endArrow=none;html=1;rounded=0;exitX=0;exitY=0.5;exitDx=0;exitDy=0;strokeColor=#FF0000;strokeWidth=7;" edge="1" parent="1">
          <mxGeometry width="50" height="50" relative="1" as="geometry">
            <mxPoint x="1591.5" y="-931.5" as="sourcePoint" />
            <mxPoint x="1913" y="-988" as="targetPoint" />
          </mxGeometry>
        </mxCell>
        <mxCell id="UhmW7nwp59RxyAtJVQfH-308" value="" style="endArrow=none;html=1;rounded=0;strokeColor=#FF0000;strokeWidth=7;" edge="1" parent="1">
          <mxGeometry width="50" height="50" relative="1" as="geometry">
            <mxPoint x="1483" y="-908" as="sourcePoint" />
            <mxPoint x="1913" y="-988" as="targetPoint" />
          </mxGeometry>
        </mxCell>
        <mxCell id="UhmW7nwp59RxyAtJVQfH-309" value="&lt;font color=&quot;#ffffff&quot; style=&quot;font-size: 18px;&quot;&gt;&lt;span style=&quot;background-color: rgb(255, 0, 0);&quot;&gt;! ПОТЕРЯ СЕТИ МЕЖДУ ЦОД ! &lt;br&gt;&lt;/span&gt;&lt;/font&gt;" style="rounded=0;whiteSpace=wrap;html=1;fillColor=#FF0000;strokeColor=none;" vertex="1" parent="1">
          <mxGeometry x="1552.5" y="-966.5" width="290.5" height="28.5" as="geometry" />
        </mxCell>
        <mxCell id="UhmW7nwp59RxyAtJVQfH-310" value="" style="text;html=1;align=center;verticalAlign=middle;whiteSpace=wrap;rounded=0;fontSize=8;fontColor=#3399FF;fontStyle=1" vertex="1" parent="1">
          <mxGeometry x="983" y="-969" width="79" height="31" as="geometry" />
        </mxCell>
        <mxCell id="UhmW7nwp59RxyAtJVQfH-311" value="&lt;font style=&quot;font-size: 10px;&quot; color=&quot;#008000&quot;&gt;Тенант p0-uasp&lt;br&gt;&lt;/font&gt;" style="text;html=1;align=center;verticalAlign=middle;whiteSpace=wrap;rounded=0;fontSize=8;fontColor=#3399FF;fontStyle=1" vertex="1" parent="1">
          <mxGeometry x="1293" y="-488" width="79" height="31" as="geometry" />
        </mxCell>
        <mxCell id="UhmW7nwp59RxyAtJVQfH-312" value="&lt;font color=&quot;#008000&quot;&gt;Тенант p0-uasp-spm&lt;/font&gt;" style="text;html=1;align=center;verticalAlign=middle;whiteSpace=wrap;rounded=0;fontSize=8;fontColor=#3399FF;fontStyle=1" vertex="1" parent="1">
          <mxGeometry x="1923" y="-278" width="79" height="31" as="geometry" />
        </mxCell>
        <mxCell id="UhmW7nwp59RxyAtJVQfH-313" style="edgeStyle=none;rounded=1;jumpStyle=none;orthogonalLoop=1;jettySize=auto;html=1;entryX=0.851;entryY=-0.002;entryDx=0;entryDy=0;startArrow=oval;startFill=1;endArrow=oval;endFill=1;strokeColor=#82b366;strokeWidth=2;fillColor=#d5e8d4;entryPerimeter=0;exitX=0.686;exitY=1.002;exitDx=0;exitDy=0;exitPerimeter=0;" edge="1" parent="1">
          <mxGeometry relative="1" as="geometry">
            <Array as="points">
              <mxPoint x="292" y="-496" />
              <mxPoint x="961" y="-495.7" />
            </Array>
            <mxPoint x="291.932" y="-541.488" as="sourcePoint" />
            <mxPoint x="961.3600000000001" y="-438.00000000000017" as="targetPoint" />
          </mxGeometry>
        </mxCell>
        <mxCell id="UhmW7nwp59RxyAtJVQfH-314" style="edgeStyle=none;rounded=1;jumpStyle=none;orthogonalLoop=1;jettySize=auto;html=1;entryX=0.75;entryY=0;entryDx=0;entryDy=0;startArrow=oval;startFill=1;endArrow=oval;endFill=1;strokeColor=#82b366;strokeWidth=2;fillColor=#d5e8d4;exitX=0.5;exitY=1;exitDx=0;exitDy=0;" edge="1" parent="1" source="UhmW7nwp59RxyAtJVQfH-250">
          <mxGeometry relative="1" as="geometry">
            <Array as="points">
              <mxPoint x="1581" y="-496" />
              <mxPoint x="1199" y="-496" />
            </Array>
            <mxPoint x="2013.12" y="-540" as="sourcePoint" />
            <mxPoint x="1199.125" y="-370.75" as="targetPoint" />
          </mxGeometry>
        </mxCell>
        <mxCell id="UhmW7nwp59RxyAtJVQfH-315" style="edgeStyle=none;rounded=1;jumpStyle=none;orthogonalLoop=1;jettySize=auto;html=1;startArrow=oval;startFill=1;endArrow=oval;endFill=1;strokeColor=#82b366;strokeWidth=2;fillColor=#d5e8d4;entryX=0.867;entryY=0.987;entryDx=0;entryDy=0;entryPerimeter=0;" edge="1" parent="1">
          <mxGeometry relative="1" as="geometry">
            <Array as="points">
              <mxPoint x="296" y="-232" />
              <mxPoint x="960" y="-232" />
            </Array>
            <mxPoint x="296" y="-188" as="sourcePoint" />
            <mxPoint x="960.1200000000003" y="-289.9499999999998" as="targetPoint" />
          </mxGeometry>
        </mxCell>
        <mxCell id="UhmW7nwp59RxyAtJVQfH-316" value="ДО" style="text;strokeColor=#B20000;fillColor=#e51400;html=1;fontSize=15;fontStyle=1;verticalAlign=middle;align=center;fontColor=#ffffff;" vertex="1" parent="1">
          <mxGeometry x="1053" y="-858" width="80" height="40" as="geometry" />
        </mxCell>
        <mxCell id="UhmW7nwp59RxyAtJVQfH-317" value="ПОСЛЕ" style="text;strokeColor=#B20000;fillColor=#e51400;html=1;fontSize=15;fontStyle=1;verticalAlign=middle;align=center;fontColor=#ffffff;" vertex="1" parent="1">
          <mxGeometry x="1172" y="-858" width="80" height="40" as="geometry" />
        </mxCell>
        <mxCell id="UhmW7nwp59RxyAtJVQfH-318" style="edgeStyle=none;rounded=1;jumpStyle=none;orthogonalLoop=1;jettySize=auto;html=1;exitX=0.75;exitY=1;exitDx=0;exitDy=0;startArrow=oval;startFill=1;endArrow=oval;endFill=1;strokeColor=#82b366;strokeWidth=2;fillColor=#d5e8d4;" edge="1" parent="1">
          <mxGeometry relative="1" as="geometry">
            <mxPoint x="1981.5" y="-187" as="sourcePoint" />
            <mxPoint x="1981.5" y="-231" as="targetPoint" />
          </mxGeometry>
        </mxCell>
        <mxCell id="UhmW7nwp59RxyAtJVQfH-319" style="edgeStyle=none;rounded=1;jumpStyle=none;orthogonalLoop=1;jettySize=auto;html=1;startArrow=oval;startFill=1;endArrow=oval;endFill=1;strokeColor=#82b366;strokeWidth=2;fillColor=#d5e8d4;entryX=0.867;entryY=0.987;entryDx=0;entryDy=0;entryPerimeter=0;exitX=0.5;exitY=0;exitDx=0;exitDy=0;" edge="1" parent="1" source="UhmW7nwp59RxyAtJVQfH-281">
          <mxGeometry relative="1" as="geometry">
            <Array as="points">
              <mxPoint x="1815" y="-231" />
              <mxPoint x="2040" y="-231" />
            </Array>
            <mxPoint x="1376" y="-187" as="sourcePoint" />
            <mxPoint x="2040" y="-289" as="targetPoint" />
          </mxGeometry>
        </mxCell>
        <mxCell id="UhmW7nwp59RxyAtJVQfH-320" value="" style="endArrow=none;html=1;rounded=0;strokeWidth=5;strokeColor=#FF0000;" edge="1" parent="1">
          <mxGeometry width="50" height="50" relative="1" as="geometry">
            <mxPoint x="1173" y="-344" as="sourcePoint" />
            <mxPoint x="1223" y="-394" as="targetPoint" />
          </mxGeometry>
        </mxCell>
        <mxCell id="UhmW7nwp59RxyAtJVQfH-321" value="" style="endArrow=none;html=1;rounded=0;strokeWidth=5;strokeColor=#FF0000;" edge="1" parent="1">
          <mxGeometry width="50" height="50" relative="1" as="geometry">
            <mxPoint x="1227" y="-343" as="sourcePoint" />
            <mxPoint x="1172" y="-392" as="targetPoint" />
          </mxGeometry>
        </mxCell>
        <mxCell id="UhmW7nwp59RxyAtJVQfH-322" value="" style="endArrow=none;dashed=1;html=1;dashPattern=1 3;strokeWidth=6;rounded=0;entryX=0.818;entryY=0.058;entryDx=0;entryDy=0;entryPerimeter=0;strokeColor=#727272;exitX=0.252;exitY=0.066;exitDx=0;exitDy=0;exitPerimeter=0;" edge="1" parent="1">
          <mxGeometry width="50" height="50" relative="1" as="geometry">
            <mxPoint x="2773.01" y="-579.92" as="sourcePoint" />
            <mxPoint x="2660.0020000000004" y="-579.9999999999999" as="targetPoint" />
          </mxGeometry>
        </mxCell>
      </root>
    </mxGraphModel>
  </diagram>
</mxfile>
